<?xml version="1.0" encoding="utf-8"?>
<!-- Generator: Adobe Illustrator 19.0.0, SVG Export Plug-In . SVG Version: 6.00 Build 0)  -->
<svg version="1.1" id="Layer_1" xmlns="http://www.w3.org/2000/svg" xmlns:xlink="http://www.w3.org/1999/xlink" x="0px" y="0px"
	 viewBox="0 0 89.6 89.4" style="enable-background:new 0 0 89.6 89.4;" xml:space="preserve">
<style type="text/css">
	.st0{fill:#CB3332;}
</style>
<g id="XMLID_23_">
	<path id="XMLID_62_" class="st0" d="M44.6,89.4C20,89.4,1.1,69.4,0.1,47c-1.2-27.2,20.6-46,42.1-47c13.7-0.6,25.5,4,34.9,13.9
		c8.9,9.3,13,20.6,12.4,33.6C88.4,69.2,69.7,89.7,44.6,89.4z M44.7,35c-0.4-0.5-0.7-0.9-1.1-1.3C38.3,28.3,32.9,23,27.5,17.6
		c-1.3-1.3-1.4-1.3-2.8,0c-2.6,2.6-5.2,5.2-7.8,7.8c-0.9,0.9-0.9,1.5,0,2.4c5.5,5.4,10.9,10.9,16.3,16.3c0.4,0.4,0.7,0.7,1.1,1.2
		c-0.4,0.4-0.7,0.8-1.1,1.2c-5.4,5.4-10.9,10.9-16.3,16.3c-1.1,1.1-1.1,1.6,0,2.7c2.6,2.6,5.3,5.3,7.9,7.9c1.3,1.3,1.4,1.3,2.6,0
		c5.4-5.4,10.9-10.9,16.3-16.3c0.3-0.3,0.7-0.7,1.1-1c1.4,1.3,2.6,2.4,3.9,3.6c4.6,4.6,9.1,9.2,13.7,13.9c0.9,0.9,1.5,0.9,2.3,0
		c2.6-2.7,5.3-5.3,7.9-7.9c1.3-1.3,1.3-1.7,0-3c-5.4-5.4-10.8-10.8-16.2-16.2c-0.4-0.4-0.7-0.7-1.2-1.3c0.5-0.4,0.9-0.7,1.3-1
		c5.4-5.4,10.9-10.9,16.3-16.3c0.9-0.8,0.9-1.5,0-2.3c-2.6-2.6-5.2-5.2-7.8-7.8c-1.4-1.4-1.5-1.4-2.9,0C56.4,23.3,50.7,29.1,44.7,35
		z"/>
</g>
</svg>
