<?xml version="1.0" encoding="utf-8"?>
<!-- Generator: Adobe Illustrator 19.0.0, SVG Export Plug-In . SVG Version: 6.00 Build 0)  -->
<svg version="1.1" id="Layer_1" xmlns="http://www.w3.org/2000/svg" xmlns:xlink="http://www.w3.org/1999/xlink" x="0px" y="0px"
	 viewBox="0 0 400 400" style="enable-background:new 0 0 400 400;" xml:space="preserve">
<style type="text/css">
	.st0{opacity:0.1;}
</style>
<g id="XMLID_11_" class="st0">
	<path id="XMLID_16_" d="M330.7,268.1c-28.4,56.6-74,82.9-137.3,79.2c-2.3,8.7-4.7,17.8-7.1,26.9c-0.4,1.5-0.8,3.1-1.2,4.6
		c-1.9,5.7-5.8,8.1-11.7,6.8c-5.6-1.3-11.1-2.8-16.6-4.4c-6.5-1.8-9-6.1-7.3-12.6c2.4-9.4,4.9-18.9,7.6-28.3
		c0.7-2.5,0.1-3.6-2.3-4.7c-21.9-9.6-39.8-24.6-53.3-44.2C86.6,270.1,78.3,246,78,219.7c-0.4-40.2,13.8-74.5,43.7-101.2
		c27.7-24.8,60.7-36.3,98.1-33.2c34.9,2.9,64.6,17.2,87.8,43.4c24,27.1,35.1,59.2,32.9,95.6c-0.5,7.8-0.6,7.7,7,9.8
		c7.9,2.1,15.7,4.2,23.6,6.3c6.7,1.9,9.1,6,7.4,12.7c-1.3,5-2.5,10-3.9,15c-2,7.6-6.1,10-13.9,7.9c-8.9-2.4-17.8-4.8-26.6-7.1
		C332.8,268.5,331.5,268.3,330.7,268.1z M261.1,306.1c49.7-28.6,67.2-92.2,38-142.2c-29.2-50-91.7-66.3-141.5-37.8
		c-50.2,28.9-67.2,91.9-38.2,142.1C148.3,318.1,211.5,334.7,261.1,306.1z"/>
	<path id="XMLID_4_" d="M289.8,73.1c-36.3-6.2-72.4-12.5-108.7-18.7c6.4-26.1,36.7-43.9,64.1-38.4C275.2,22.1,292.6,50.2,289.8,73.1
		z"/>
	<path id="XMLID_2_" d="M83.3,110.8c-12.8,34.6-25.6,69.1-38.3,103.7c-20.2-9.2-36.1-36.2-27.7-65C25.7,121.4,55.5,103.8,83.3,110.8
		z"/>
	<path id="XMLID_1_" d="M218.5,249.5c9.3-5.3,17.7-10.2,26-15c4.6-2.6,9.2-5.3,13.7-7.9c5.2-2.9,9.9-1.7,13,3.3
		c1.5,2.5,2.9,4.9,4.3,7.4c2.8,5.3,1.6,9.9-3.5,12.9c-21.5,12.4-43,24.8-64.4,37.3c-5.1,3-10,3-14.9-0.2c-5.1-3.4-6.8-8.4-6-14.3
		c3.3-22,6.7-44,10.1-66c1.2-7.7,2.3-15.4,3.6-23.8c-1.7,0.9-2.7,1.3-3.7,1.9c-11.6,6.7-23.3,13.4-34.9,20.2
		c-6.8,3.9-11,2.7-15.1-4.1c-1.3-2.3-2.7-4.5-3.9-6.9c-2.2-4.6-0.7-9.3,3.7-11.8c21.6-12.4,43.1-24.9,64.7-37.4
		c5.2-3,10.3-2.9,15.2,0.5c4.9,3.4,6.6,8.3,5.7,14.1c-4.3,28.5-8.7,56.9-13.1,85.4C218.8,246.1,218.7,247.3,218.5,249.5z"/>
</g>
</svg>
