<?xml version="1.0" encoding="utf-8"?>
<!-- Generator: Adobe Illustrator 19.0.0, SVG Export Plug-In . SVG Version: 6.00 Build 0)  -->
<svg version="1.1" id="Layer_1" xmlns="http://www.w3.org/2000/svg" xmlns:xlink="http://www.w3.org/1999/xlink" x="0px" y="0px"
	 viewBox="0 0 400 400" style="enable-background:new 0 0 400 400;" xml:space="preserve">
<style type="text/css">
	.st0{opacity:0.1;}
	.st1{fill:none;}
	.st2{opacity:0.1;fill:none;stroke:#000000;stroke-width:9;stroke-linecap:round;stroke-miterlimit:10;}
</style>
<g class="st0">
	<path id="XMLID_8_" class="st1" d="M121.9,269.8c3.7,0.6,7.6,1.2,11.3,0.8c10.6-1.1,17.4-7,21.6-16.8c3-7.2,8.4-9.5,16.1-7.9
		c2.2,0.4,4.2,1.1,6.4,1.6c17.5,4.5,27.9-0.1,35.8-16c2.9-5.8,7.9-8.5,14.3-7.6c1.6,0.2,3.1,0.6,4.8,1.1c2.7,0.6,5.4,1.5,8.1,2
		c12.8,2.6,24.1-3.3,30.3-15.9c4.1-8.4,9.2-10.7,18.1-8.4c2.3,0.6,4.8,1.3,7.2,1.9c13.6,3.5,25.8-1.5,33.1-13.5
		c0.9-1.6,1.9-3.1,3.1-5.2c9.8,17,19.3,33.3,29,50.1c-73.1,27.3-146,54.7-218.9,82c-9.7-16.8-19.3-33.3-28.8-49.9
		c0.2-0.3,0.3-0.7,0.6-1C116.3,268.1,119,269.3,121.9,269.8z"/>
	<path id="XMLID_7_" class="st1" d="M83.1,216.8c-0.7-1.2-1.4-2.5-2.4-4.2c1.9-0.9,3-1.4,4.3-1.8c30.6-11.4,61.3-22.9,91.8-34.3
		c40.1-15,80-30,120.1-45.1c2.4-0.9,3.4-0.5,4.5,1.6c7.1,12.5,14.5,25.1,21.6,37.6c0.5,1,0.5,2.8,0,3.8c-1.8,3.5-4.3,6.6-6.2,10
		c-3.8,6.1-9.8,8.9-16.8,7.4c-2.2-0.4-4.3-1.1-6.4-1.6c-17.7-4.7-28,0-36.1,16.2c-2.8,5.5-7.8,8.3-14,7.4c-2.6-0.3-5.2-1-7.7-1.9
		c-13.8-4.7-30.2-0.6-36.6,16.3c-2.2,5.9-7.9,8.4-14.4,7.1c-3.2-0.6-6.3-1.5-9.4-2.3c-15.3-3.9-26.5,1.3-33.5,15.4
		c-3.7,7.7-8.8,10.2-17,8.1c-4.1-1-8.3-3.4-12.2-3c-8.2,0.7-11.2-4.2-14.4-10.2C93.5,234.5,88.2,225.8,83.1,216.8z"/>
	<path d="M64.1,209.4l71,123c1.9,1.3,4,1.1,7.3,0c4.7-1.7,9.3-3.4,14-5.2c39.2-14.7,78.5-29.4,117.7-44.1
		c32.2-12.1,64.3-24.1,96.4-36.2c8-3,9-6,4.7-13.5c-13.9-24-27.6-47.9-41.5-71.9l-13.5-23.4c-0.3-0.3-0.5-0.6-0.7-1.1
		c-0.5-1.1-1.2-2.2-1.7-3.2l-2.2-3.8c-1.9-3.2-3.8-6.4-5.5-9.7c-1.8-3.6-4.4-5-8.2-5.4c-45.1-5.4-90.2-10.5-135.2-16.4
		c4.1,4.1,7.2,9.1,8.9,15c30.9,3.7,61.9,7.4,92.8,11.2c1.5,0.2,3,0.4,4.5,0.6c-0.1,0.3,0.1,0.5,0,0.7
		c-64.7,24.3-129.5,48.5-195,73.1c0.6-14.6,3.4-28.2,9.8-40.6c5.3-10.2,12.2-18.8,20-26.6c0-0.4-0.3-0.9-0.3-1.3
		c-1.2-5.7-1-11.7,0.7-17.2c-12.1,10.7-23.4,21.9-31.1,36.3c-9.8,18.2-13.3,37.9-12.6,58.4C64,208.6,64,209,64.1,209.4z M113,268.3
		c0.2-0.3,0.3-0.7,0.6-1c2.8,0.8,5.5,2,8.3,2.5c3.7,0.6,7.6,1.2,11.3,0.8c10.6-1.1,17.4-7,21.6-16.8c3-7.2,8.4-9.5,16.1-7.9
		c2.2,0.4,4.2,1.1,6.4,1.6c17.5,4.5,27.9-0.1,35.8-16c2.9-5.8,7.9-8.5,14.3-7.6c1.6,0.2,3.1,0.6,4.8,1.1c2.7,0.6,5.4,1.5,8.1,2
		c12.8,2.6,24.1-3.3,30.3-15.9c4.1-8.4,9.2-10.7,18.1-8.4c2.3,0.6,4.8,1.3,7.2,1.9c13.6,3.5,25.8-1.5,33.1-13.5
		c0.9-1.6,1.9-3.1,3.1-5.2c9.8,17,19.3,33.3,29,50.1c-73.1,27.3-146,54.7-218.9,82C132,301.3,122.5,284.8,113,268.3z M98.3,243.5
		c-4.8-9-10.2-17.8-15.3-26.6c-0.7-1.2-1.4-2.5-2.4-4.2c1.9-0.9,3-1.4,4.3-1.8c30.6-11.4,61.3-22.9,91.8-34.3
		c40.1-15,80-30,120.1-45.1c2.4-0.9,3.4-0.5,4.5,1.6c7.1,12.5,14.5,25.1,21.6,37.6c0.6,1,0.5,2.8,0,3.8c-1.8,3.5-4.3,6.6-6.2,10
		c-3.8,6.1-9.8,8.9-16.8,7.4c-2.2-0.4-4.3-1.1-6.4-1.6c-17.7-4.7-28,0-36.1,16.2c-2.8,5.5-7.8,8.3-14,7.4c-2.6-0.3-5.2-1-7.7-1.9
		c-13.8-4.7-30.2-0.6-36.6,16.3c-2.2,5.9-7.9,8.4-14.4,7.1c-3.2-0.6-6.3-1.5-9.4-2.3c-15.3-3.9-26.5,1.3-33.5,15.4
		c-3.7,7.7-8.8,10.2-17,8.1c-4.1-1-8.3-3.4-12.2-3C104.5,254.4,101.6,249.5,98.3,243.5z"/>
	<path d="M126.6,146.2c6.1,4,13.4,5.3,20.5,3.9c3-0.6,5.6-1.7,8-3.1c9.9-5.7,15.5-17.4,13.1-29.1l0,0c-0.4-1.9-1-3.8-1.8-5.5
		c-5.1-11.5-17.7-18.2-30.5-15.6c-7.1,1.5-13.2,5.7-17.3,11.7c-3.3,5-4.9,11-4.3,16.9c0,1.3,0.2,2.3,0.5,3.5
		C116.4,136.1,120.5,142.2,126.6,146.2z M122.6,127.4c-0.6-3-0.6-6,0.3-8.9c0.5-1.9,1.4-3.8,2.4-5.6c2.8-4.3,7.1-7.2,12.3-8.4
		c7.2-1.5,14.4,1.3,18.8,6.7c1.9,2.3,3.4,5.2,4,8.4l0,0c2.2,10.4-4.6,20.7-15,22.9c-5,1.1-10.3,0-14.5-2.8
		C126.6,136.8,123.7,132.4,122.6,127.4z"/>
</g>
<path id="XMLID_1_" class="st2" d="M121.2,105.7c-5-3.8-7.2-6.2-14.3-10.1c-3.3-1.8-11.3-2.5-17.7-2.7"/>
</svg>
