<?xml version="1.0" encoding="utf-8"?>
<!-- Generator: Adobe Illustrator 19.0.0, SVG Export Plug-In . SVG Version: 6.00 Build 0)  -->
<svg version="1.1" id="Layer_1" xmlns="http://www.w3.org/2000/svg" xmlns:xlink="http://www.w3.org/1999/xlink" x="0px" y="0px"
	 viewBox="0 0 400 400" style="enable-background:new 0 0 400 400;" xml:space="preserve">
<style type="text/css">
	.st0{opacity:0.1;}
</style>
<g id="XMLID_2_" class="st0">
	<path id="XMLID_43_" d="M124.7,160.3c23-13.3,46.2-26.6,69.2-39.9c8.8-5.1,18-3.9,24.1,3.7c2.2,2.9,3.6,6.5,5.2,9.8
		c9.4,20.9,18.8,41.9,28.2,62.8c9.5,21.1,19.1,42,28.6,63.1c5.2,11.3,10.2,22.6,15.2,34.1c3.6,8.4,0.4,17.5-7.6,22.2
		c-35.7,20.6-71.4,41-106.9,61.8c-9.3,5.5-20.1,4.7-27.8-6.1c-13.3-19.1-27-38-40.6-56.8c-13-18-25.9-36.1-38.8-54
		c-8-11.2-16.2-22.2-24-33.5c-7.1-10.3-4.5-20.8,6.3-27.1C78.8,186.8,101.7,173.6,124.7,160.3z M105.4,275.3
		c4.8,6.8,9.4,13.1,14,19.6c7.2,10.1,14.3,20.2,21.7,30.3c8.4,11.8,17,23.5,25.5,35.3c2.5,3.6,2.5,3.7,6.4,1.5
		c33.3-19.3,66.7-38.5,100-57.8c5.9-3.4,6.1-3.5,3.5-9.6c-5.9-13.4-11.9-26.6-17.9-40c-6-13.2-11.9-26.5-17.9-39.6
		c-2.1-4.6-4.1-9.2-6.4-14C191.1,225.8,148.5,250.4,105.4,275.3z M63.1,216.3c1.5,2.2,2.6,4.1,3.9,5.7c8.4,11.8,17,23.5,25.5,35.3
		c2.5,3.6,2.5,3.7,6.4,1.4c18.2-10.5,36.5-21,54.6-31.5c23.3-13.4,46.7-26.9,70.1-40.4c2.3-1.4,3.3-2.3,1.9-5.4
		c-5.2-11.1-10.1-22.2-15-33.4c-2-4.4-4-8.7-6.2-13.3C157.1,162,110.3,189,63.1,216.3z"/>
	<path id="XMLID_42_" d="M143.9,127.5c-7.3-33.9,11.2-75,50.6-89.6c42-15.6,86.3,5.1,102.9,44c17.4,41-2.6,83.4-32.2,100.1
		c-1.3-2.7-2.7-5.4-3.8-8.2c-1-2.5-3-5.3-2.5-7.6c0.4-2.1,3.6-3.5,5.6-5.2c19-16.4,26.7-43.7,18.5-67.5c-9.3-27.1-33.6-44.4-63-43.3
		c-34.6,1.4-60.7,29.3-60.5,64.7c0,2.6-0.7,4-2.9,5.1C152.5,122.4,148.4,124.9,143.9,127.5z"/>
</g>
</svg>
