<?xml version="1.0" encoding="utf-8"?>
<!-- Generator: Adobe Illustrator 19.0.0, SVG Export Plug-In . SVG Version: 6.00 Build 0)  -->
<svg version="1.1" id="Layer_1" xmlns="http://www.w3.org/2000/svg" xmlns:xlink="http://www.w3.org/1999/xlink" x="0px" y="0px"
	 viewBox="0 0 400 400" style="enable-background:new 0 0 400 400;" xml:space="preserve">
<style type="text/css">
	.st0{opacity:0.1;}
</style>
<g id="XMLID_9_" class="st0">
	<path id="XMLID_12_" d="M313.8,149.7c16.8,30.4,24.6,60.5,22.8,92.9c-1.3,22.4-8.4,42.7-24.5,59c-12,12.1-25.7,20.9-43.5,21
		c-6.7,0-12.3,2.9-15.7,8.6c-11.3,18.6-28.9,26.6-49.2,29.7c-23,3.4-43.8-3.2-63.3-14.7c-20.2-11.9-37.2-27.6-50.7-46.7
		c-16.2-22.7-26.3-47.7-26.4-76.1c0-21,7.1-39.2,23.1-53.4c8.5-7.5,18.5-12.2,29.2-15.2c12-3.4,24.4-5.8,36.8-8.3
		c2.6-0.6,4.3-1.5,6-3.6c10.6-14.1,22.6-26.9,37.1-36.9c17.3-11.8,36.2-15,56.5-9.1c21.4,6.3,37.5,20.2,51.1,37.1
		C307.2,139.8,311.1,145.8,313.8,149.7z M292.5,169.5c-15.6-24.7-28.6-35.6-40-41.8c-14.5-7.9-31.3-6.4-44,3.7
		c-13.6,10.8-24.7,23.8-33.8,38.5c-1.8,3-3.9,4.4-7.6,4.5c-17.5,0.5-34.5,3.7-50.8,10.4c-17.4,7.1-24.4,21.7-24.8,36.9
		c-0.5,18.8,5.6,35.9,14.9,51.9c9.1,15.7,21.3,28.6,35.7,39.5c14.8,11.3,31,20.2,50.2,20.1c15-0.1,28.6-3.8,37.3-17.8
		c4-6.5,9.8-11.3,16.4-15.2c6.8-4,14.5-5.1,22.3-6c4.4-0.4,8.9-1.6,12.6-3.7c16.1-9.5,24-24.5,26.7-42.4c1.9-12.4,1-24.8-1.2-37.2
		C303.1,193.6,297.5,177.4,292.5,169.5z"/>
	<path id="XMLID_3_" d="M129.2,119.8c-2.4-6.4-5.2-12.8-7.2-19.4c-5.7-19.6,0.7-35.8,15.7-48.6c5.9-5,12.8-8.7,19.3-13
		c1.8-1.1,2.9-0.6,3.8,0.9c8.5,13.7,14.9,28.1,13.1,44.9c-1.1,11-6.7,20.2-15,27.2c-6.6,5.7-14.3,10.3-21.4,15.3
		c-1.5,1.1-2.7,0.9-3.6-0.9c-1.2-2.3-2.6-4.5-3.9-6.8C129.6,119.5,129.5,119.6,129.2,119.8z"/>
</g>
</svg>
