<?xml version="1.0" encoding="utf-8"?>
<!-- Generator: Adobe Illustrator 19.0.0, SVG Export Plug-In . SVG Version: 6.00 Build 0)  -->
<svg version="1.1" id="Layer_1" xmlns="http://www.w3.org/2000/svg" xmlns:xlink="http://www.w3.org/1999/xlink" x="0px" y="0px"
	 viewBox="0 0 400 400" style="enable-background:new 0 0 400 400;" xml:space="preserve">
<style type="text/css">
	.st0{opacity:0.1;}
</style>
<g id="XMLID_13_" class="st0">
	<path id="XMLID_15_" d="M135.7,84.5c2-7.5,3.8-14.7,6-21.6c1.1-3.4,2.4-7,4.6-9.8c5.3-7,12.8-8.5,21-6.5c8.4,2.1,16.8,4.4,25.1,6.7
		c12.6,3.4,24.9,7,37.5,10c11,2.7,18.4,8.2,19.3,21c2.1-1.1,4-1.9,5.7-2.9c9.4-5.5,19-10.6,30-12c28.4-3.5,51.5,6,68.2,29.2
		c19.8,27.3,16.4,67.9-11.1,91.8c-5.1,4.4-11.2,7.8-17,11.4c-2.5,1.5-3.1,2.7-1.6,5.4c14,26.3,4.9,61.4-20.7,76.6
		c-36.4,21.6-73,42.6-109.8,63.4c-23.2,13.3-54.5,7-71.8-13.5c-3.3-3.9-6.3-8.1-8.9-12.6c-19.1-32.9-38.2-65.9-57.2-99
		c-5.3-9.3-4.7-18.2,1.7-25.4c4.4-4.8,4.4-4.8,1.1-10.5c-6.8-11.8-13.3-23.6-20.4-35.2c-6.1-9.9-4.3-22.7,7.9-29.6
		c21.1-11.9,42-24,62.9-36.3C117.3,79.7,126,77.4,135.7,84.5z M84.4,213.7c1,1.7,1.8,3.1,2.6,4.4c17.6,30.5,35.2,61,52.7,91.4
		c8.3,14.3,26.7,19.7,41,11.4c34.9-20,69.7-40.1,104.4-60.3c3.1-1.8,6.1-4.2,8.3-7c8.9-10.7,9.7-23.7,2.5-36.5
		c-17.3-30.2-34.9-60.2-52.1-90.5c-1.8-3.1-3.2-3.3-6.2-1.6c-32.4,18.8-64.9,37.6-97.4,56.3c-2.9,1.6-3.4,2.9-1.6,5.9
		c5.4,9,10.7,18.1,15.8,27.3c2.8,5,2.8,10.1-0.4,14.9c-3.4,5-8,7.3-14.2,6.7c-5.1-0.5-8.7-3.4-11.2-7.8c-5.2-9-10.4-18-15.6-26.9
		c-0.8-1.4-1.5-3.3-3.9-1.9C101.1,204,93.1,208.7,84.4,213.7z M286.8,143.3c6.1,10.7,12.3,21.3,18.5,32c0.8,1.4,1.5,3.5,3.8,2.1
		c5-3.2,10.5-6,14.8-10c12.8-11.9,15.9-29.2,9.1-45.7c-6-14.3-21.1-24-37.5-24c-9.5,0-17.4,3.9-25.3,8.5c-2.9,1.6-3.1,3-1.5,5.7
		C274.9,122.4,280.8,132.9,286.8,143.3z M133.6,151.2c-1.6-1.3-2.7-2.3-3.7-3.2c-5.3-5.1-8-11.4-5.9-18.6c1.6-5.2,0.4-9-2.2-13.3
		c-1.5-2.5-2.7-3.1-5.4-1.5c-15.4,9-30.8,17.9-46.2,26.7c-2.7,1.5-2.8,2.9-1.4,5.4c5.4,9.2,10.9,18.5,16.1,27.9
		c1.6,2.9,3,3.4,5.9,1.7c12.9-7.6,25.9-15.1,38.9-22.6C130.8,153.1,131.9,152.3,133.6,151.2z M155.3,127.8c3.5,0.8,7.1,1.8,10.8,2.3
		c1.8,0.3,4,0.1,5.5-0.6c13.5-7.6,26.9-15.4,40.3-23.3c1.2-0.7,2.4-1.8,2.9-3c1.5-4,2.6-8.1,3.7-11.7c-17.3-4.7-33.7-9.2-49.8-13.5
		C164.3,94.1,159.9,110.4,155.3,127.8z"/>
</g>
</svg>
