<?xml version="1.0" encoding="utf-8"?>
<!-- Generator: Adobe Illustrator 19.0.0, SVG Export Plug-In . SVG Version: 6.00 Build 0)  -->
<svg version="1.1" id="Layer_1" xmlns="http://www.w3.org/2000/svg" xmlns:xlink="http://www.w3.org/1999/xlink" x="0px" y="0px"
	 viewBox="0 0 400 400" style="enable-background:new 0 0 400 400;" xml:space="preserve">
<style type="text/css">
	.st0{opacity:0.1;}
</style>
<g id="XMLID_11_" class="st0">
	<path id="XMLID_14_" d="M170.1,142.9c32.2-18.6,64-37.8,96.7-55.6c25.2-13.7,50.4-11.3,73.6,5.8c34.4,25.5,36.4,79-0.1,107.3
		c-4.1,3.2-8.7,5.8-13.2,8.3c-2.3,1.4-2.5,2.5-1.3,4.8c12.3,23.9,6.2,53.6-14.3,70.7c-2.7,2.3-5.7,4.3-8.7,6.1
		c-33.3,19.3-66.5,38.5-99.9,57.7c-25.9,14.8-55.5,9.6-74.9-13c-2.4-2.8-4.5-5.8-6.4-9c-18.8-32.4-37.6-64.9-56.3-97.4
		c-7.2-12.4-4.3-22.9,8.1-30.1C105.6,180,137.8,161.4,170.1,142.9L170.1,142.9z M170,175.8L170,175.8c-24.2,14-48.4,28.1-72.7,42
		c-2.9,1.7-3.5,2.9-1.7,6c17.3,29.8,34.5,59.8,51.9,89.7c4.8,8.3,12.3,13,21.9,14.3c8,1.1,15.2-1.7,21.9-5.6
		c26.3-15.2,52.7-30.4,78.9-45.5c6.5-3.8,13.1-7.3,19.2-11.5c14.6-9.7,18.4-26.1,9.6-41.3c-16.9-29.3-33.8-58.5-50.7-88
		c-1.9-3.2-3.3-3.4-6.3-1.7C218.1,148.1,194,162,170,175.8z M290.3,151.9c5.9,10.3,11.9,20.5,17.8,30.8c0.8,1.4,1.4,3.2,3.7,1.9
		c3.8-2.3,7.9-4.1,11.2-6.8c12.9-10.6,17.8-24.4,14-40.7c-3.7-15.8-16.7-27-32.6-29.3c-11.4-1.7-21.2,2.3-30.6,8
		c-2.5,1.5-2.9,2.7-1.4,5.3C278.5,131.3,284.3,141.6,290.3,151.9z"/>
	<path id="XMLID_6_" d="M101.6,47.5c0.8-0.4,1.6-0.9,2.4-1.4c7.2-4.7,11.6-1.9,15.6,3.1c6.8,8.4,15.7,13.9,25.8,17.5
		c6.2,2.2,12.5,4.3,18.6,7.2c9.9,4.8,18.2,11.9,25.2,20.4c4.7,5.7,3.5,12.1-3,15.8c-2.1,1.2-4.1,2.3-6.1,3.6
		c-6.1,3.5-9.7,2.6-14.8-2.3c-4.6-4.3-9.3-8.5-14.7-11.5c-5.9-3.3-12.8-5-19.2-7.4c-14.7-5.8-26.8-15.1-36.5-27.6
		c-4.4-5.6-3.2-11.5,2.9-15.3C99.1,48.9,100.3,48.2,101.6,47.5z"/>
	<path id="XMLID_3_" d="M123.5,146.3c-1.2,0.7-2.4,1.4-3.7,2.2c-4.6,2.5-8.9,2.1-12.2-1.7c-7.8-9.3-17.8-14.4-29.3-17.9
		c-17.7-5.4-31.9-16-43.1-30.5c-3.6-4.6-2.4-10.8,2.5-13.9c2.7-1.7,5.5-3.3,8.3-4.8c5.2-2.9,9.7-2.4,13.3,2.2
		c8.5,11,20,17,33.1,20.9c15.1,4.5,27.4,13.3,37.4,25.4c5.2,6.5,4,12.3-3.2,16.5C125.6,145.1,124.6,145.7,123.5,146.3z"/>
</g>
</svg>
