<?xml version="1.0" encoding="utf-8"?>
<!-- Generator: Adobe Illustrator 19.0.0, SVG Export Plug-In . SVG Version: 6.00 Build 0)  -->
<svg version="1.1" id="Layer_1" xmlns="http://www.w3.org/2000/svg" xmlns:xlink="http://www.w3.org/1999/xlink" x="0px" y="0px"
	 viewBox="0 0 400 400" style="enable-background:new 0 0 400 400;" xml:space="preserve">
<style type="text/css">
	.st0{opacity:0.1;}
</style>
<g class="st0">
	<path d="M180.4,81.6c6.4-6.5,13.8-10.8,22.3-13.7c14.1-4.8,27.8-4,41.3,2c3.7,1.6,7,4.2,10.6,6.1c1.8,0.9,3.9,1.6,5.9,1.6
		c20.2-0.1,37.8,6.5,52.7,20c10.6,9.6,17.5,21.4,21.4,35.1c0.4,1.5,1.2,3.3,2.4,4c6.4,4.3,9.1,10.8,11.5,17.5
		c9,24.7,10,49.7,3.3,75.1c-3.2,12-8.8,23.1-15.6,33.6c-1.4,2.2-1.5,4.1-0.8,6.5c4.6,15.3-1.1,29.8-14.9,37.8
		c-29.4,17-58.9,34-88.3,51c-13.3,7.7-30,4.7-40.2-6.8c-1.1-1.3-3.7-1.9-5.5-1.8c-13.9,0.7-27.6-0.5-40.9-4.5
		c-24.6-7.4-45.2-20.9-61.1-41.3c-2.9-3.7-5.4-7.9-7.1-12.3c-2.7-7.1-1.3-13.9,3.9-19.6c2.3-2.5,1.9-4.3-0.2-6.1
		c-7-6-13.8-12.1-21.2-17.6c-8.5-6.4-16.3-13.1-21.5-22.6c-8.6-15.9-9.8-32.3-2.8-48.9c6.6-15.7,18.1-26.7,34.6-32
		c2.9-0.9,3.8-2.2,3.6-5.4c-1.2-23,7.1-42.1,25.2-56.5c23.5-18.7,55.2-18.9,79-2.6C178.6,80.6,179.3,80.9,180.4,81.6z M322.5,162.1
		c-2.4,1.2-3.8,1.9-5.2,2.7c-68.4,39.5-136.8,79-205.2,118.5c-6.3,3.6-6.4,3.7-1.3,8.9c22.5,23.3,49.8,32.8,81.9,28.8
		c3.9-0.5,8.6-2.7,11.4-1.2c3.1,1.6,4.5,6.5,6.6,10c3.4,5.7,4.8,6.1,10.6,2.7c27.7-16,55.4-32,83.1-48c0.9-0.5,1.9-1,2.7-1.7
		c2.2-1.7,3-3.8,1.3-6.4c-1.6-2.6-3.1-5.2-4.6-7.9c-3.5-6.2-3.8-4.6,0.9-10c19.3-22.4,26.9-48.2,22.4-77.4
		C326.2,174.9,324.2,168.8,322.5,162.1z M266.5,162.3c12.5-7.2,25.1-14.5,37.6-21.7c2.4-1.3,3.7-2.8,2.1-5.5
		c-2.4-4.1-4.2-8.6-7.2-12.3c-22.2-27.2-65.1-22.6-80.8,8.7c-8.8,17.5-6,37.5,5.1,51.4c1.9,2.3,3.4,2.4,5.8,0.9
		C241.6,176.6,254,169.5,266.5,162.3z M151.1,174.8c7,12.1,14,24.3,21,36.4c2.4,4.1,2.4,4.1,6.4,1.8c3.2-1.9,6.5-3.7,9.7-5.6
		c4.2-2.4,4.2-2.5,1.8-6.7c-13.4-23.2-26.7-46.3-40.1-69.5c-5.7-9.9-6.7-10.2-16.4-4.5c-5.9,3.4-6.6,6-3.2,11.9
		C137.2,150.7,144.2,162.8,151.1,174.8z M170.4,217.8c-0.1-0.4-0.2-0.7-0.3-1.1c-1.1-0.3-2.2-0.7-3.3-1c-17.5-4.7-35-9.3-52.5-13.9
		c-8.7-2.3-17.4-4.6-26.1-6.8c-4.8-1.2-6.9-0.1-8.4,4.7c-0.5,1.7-1,3.4-1.4,5.1c-1.7,6.3-0.6,8.2,5.6,9.9c16.3,4.4,32.9,8.2,49,13.4
		c9.7,3.1,17.9,2.9,26-3.5C162.5,221.7,166.6,220,170.4,217.8z"/>
</g>
</svg>
