<?xml version="1.0" encoding="utf-8"?>
<!-- Generator: Adobe Illustrator 19.0.0, SVG Export Plug-In . SVG Version: 6.00 Build 0)  -->
<svg version="1.1" id="Layer_1" xmlns="http://www.w3.org/2000/svg" xmlns:xlink="http://www.w3.org/1999/xlink" x="0px" y="0px"
	 viewBox="0 0 400 400" style="enable-background:new 0 0 400 400;" xml:space="preserve">
<style type="text/css">
	.st0{opacity:0.1;}
</style>
<g id="XMLID_13_" class="st0">
	<g id="XMLID_14_">
		<path id="XMLID_20_" d="M217.1,229.7c33.8-19.5,67.5-39,101.3-58.5c10.9-6.3,20.4-3.8,26.7,7c7.9,13.6,15.7,27.2,23.6,40.8
			c3.6,6.2,4.3,12.7,0.2,18.8c-1.8,2.6-4.5,5-7.3,6.6c-67.8,39.3-135.8,78.5-203.8,117.7c-10.4,6-19.9,3.4-26-7.1
			c-7.8-13.5-15.6-27.1-23.4-40.5c-6.1-10.6-3.6-20.1,7-26.2C149.4,268.8,183.3,249.2,217.1,229.7L217.1,229.7z M150.6,337
			C215,299.8,279.1,262.8,343,225.9c-0.1-0.4,0-0.7-0.1-0.8c-5.2-9.2-10.5-18.4-15.8-27.6c-0.9-1.6-1.9-1.1-3.1-0.4
			c-4.8,2.7-9.6,5.5-14.3,8.4c-1.4,0.9-2.8,2.3-3.5,3.7c-3.3,6.4-6.4,12.8-9.6,19.3c-3.3,6.6-6.5,13.1-9.8,19.8
			c-14.5-1-28.6-2-42.9-2.9c-1.8-0.1-3.7,0.3-5.2,1.1c-32.6,18.7-65.1,37.5-97.6,56.3c-2.4,1.4-6.3,2.6-6.7,4.5
			c-0.5,2.2,2,5.1,3.4,7.6C142.1,322.2,146.2,329.4,150.6,337z"/>
		<path id="XMLID_17_" d="M182.4,170.2c-33.8,19.5-67.6,39-101.4,58.5c-3.8,2.2-7.5,3.9-12.1,3.3c-6-0.8-10.4-4-13.4-9.1
			c-8.2-14.1-16.4-28.2-24.5-42.5c-5.3-9.4-2.6-19.2,6.7-24.6c68.2-39.4,136.4-78.8,204.6-118.2c10.1-5.8,19.6-3.2,25.5,6.8
			c8,13.8,15.9,27.6,23.9,41.3c4.6,7.9,3.8,16.2-2.1,21.8c-1.7,1.5-3.7,2.7-5.6,3.8C250.2,131.1,216.3,150.6,182.4,170.2z M56.5,174
			c0.8,1.4,1.4,2.4,2,3.4c4.4,7.6,8.7,15.1,13.1,22.7c2.3,4,2.3,4,6.2,1.7c36.8-21.2,73.5-42.4,110.3-63.7
			c25.1-14.5,50.2-29.1,75.4-43.5c2.4-1.4,2.9-2.5,1.4-5c-4.6-7.7-9-15.4-13.5-23.2c-2.1-3.6-2.1-3.6-5.8-1.5
			C183.8,100.6,122,136.3,60.3,172C59.1,172.6,58,173.2,56.5,174z"/>
		<path id="XMLID_3_" d="M131,215.1c11.5-6.3,23.7-9.9,36.8-10.5c9.7-0.5,18.9-2.3,27.7-6.6c8.9-4.4,15.8-11.1,21.5-19
			c6.2-8.7,12.5-17.1,20.8-23.9c13.9-11.4,29.8-17.6,47.6-18.7c8.5-0.5,16.7-1.5,24.6-4.8c3.4-1.4,6.9-0.7,9.1,2.2
			c2.4,3.2,4.5,6.8,5.9,10.5c1.6,4.5-0.8,8.3-5.2,10.3c-9.7,4.5-19.9,6.3-30.5,6.7c-10.6,0.5-20.8,3.1-29.8,8.9
			c-7.8,5.1-14.2,11.8-19.3,19.7c-16.2,24.9-39.4,37.8-68.8,39.5c-22,1.3-38.4,11.3-50.2,29.6c-5.4,8.4-11.9,16-20.2,21.8
			c-4.8,3.3-10,2.7-13.2-2.2c-1.5-2.3-2.8-4.6-4.1-7c-1.9-3.6-1.4-7.9,1.9-10.4c6.8-5.3,11.8-11.9,16.6-18.8
			C109.9,231.2,119.2,221.8,131,215.1z"/>
	</g>
</g>
</svg>
