<?xml version="1.0" encoding="utf-8"?>
<!-- Generator: Adobe Illustrator 19.0.0, SVG Export Plug-In . SVG Version: 6.00 Build 0)  -->
<svg version="1.1" id="Layer_1" xmlns="http://www.w3.org/2000/svg" xmlns:xlink="http://www.w3.org/1999/xlink" x="0px" y="0px"
	 viewBox="0 0 400 400" style="enable-background:new 0 0 400 400;" xml:space="preserve">
<style type="text/css">
	.st0{opacity:0.1;}
</style>
<g class="st0">
	<path d="M42.4,217.5c1.1-8.4,2.3-16.8,3.3-25.3c0.2-1.7,0.3-3.6-0.3-5.2c-3.2-9.4-3.2-18.7-0.5-28.3C52.2,131.8,65.4,108,85.1,88
		c22.1-22.4,48.3-37.7,79.1-44.4c5.9-1.3,12.6-1.1,18.5,0.5c6,1.6,11.4,1,17.2,0.2c35.3-5.2,67,3.5,95.2,25.1
		c6.7,5.2,11.3,12.1,13.4,20.4c0.9,3.4,2.8,5.4,5.7,7.2c20,12.2,34.3,29.4,41.5,51.6c9,27.6-14.9,55.1-43.6,50.7
		c-18.8-2.9-37.6-6.2-56.3-9.4c-3.8-0.6-6.9,1.5-7.3,5.3c-0.9,9.2-4.1,17.5-10.5,24.3c-7.7,8.2-15,16.8-24.7,23
		c-5.5,3.5-11.5,5.2-17.9,6c-4.4,0.5-6.1,2.6-5.4,6.9c2,11.9,4,23.8,6,35.8c1.2,6.8,2.3,13.7,3.4,20.6c3.8,24-15.3,46.6-41.4,45.6
		c-7.9-0.3-14.9-3.3-21.8-6.8c-17.4-9.1-31.4-21.9-41.1-39.1c-0.7-1.3-2.3-2.6-3.7-2.9c-10.2-2.8-18.3-8.6-24.6-17.1
		C51.1,269.2,43,244.7,42.4,217.5z M220.3,190.2c-0.5-2.3-0.9-4.7-1.6-7c-4.7-15.2-9.4-30.5-14.1-45.7
		c-5.5-17.9-10.9-35.7-16.5-53.6c-2.9-9.3-10.6-14.2-19.3-11.5c-9,2.7-18.2,5.6-26.6,9.8c-35.3,17.8-58.3,46-69.1,84.1
		c-3.1,10.7,1.3,18.7,12,22c6.7,2.1,13.5,4.1,20.3,6.2c26.5,8.1,52.9,16.3,79.4,24.5c6,1.9,11.5,0.9,16.1-3.3
		c4.9-4.4,9.5-9.1,14.1-13.8C218,198.6,220.2,195,220.3,190.2z M241.4,158.1c0.8-0.7,1.3-1,1.6-1.5c11.9-15.1,23.8-30,35.5-45.2
		c5.1-6.6,3.8-15.2-3-20.4c-14.4-10.9-30.6-17.1-48.6-18.8c-3.8-0.3-7.8-0.1-12-0.1C223.8,101,232.6,129.4,241.4,158.1z M72.5,214.9
		c0,1.5,0,2.7,0,3.8c0,20.3,6.1,38.6,17.9,55.1c5.6,7.8,14.3,9.2,21.8,3.3c14.4-11.2,28.7-22.4,43.1-33.6c0.8-0.6,1.5-1.4,2.6-2.4
		C129.3,232.3,101.1,223.7,72.5,214.9z M125.5,303.8c7.8,11.1,18.2,18.5,30.4,23.4c8.4,3.3,16.2-3.5,14.6-12.5
		c-2.1-12.4-4.2-24.8-6.3-37.1c-0.2-1-0.6-1.9-1.1-3.1C150.4,284.4,138.1,294,125.5,303.8z M274.8,163.5c1.7,0.2,2.7,0.4,3.6,0.5
		c12,2,24.1,4,36.1,6.2c10.8,2,16.7-8,12.6-15.4c-3.5-6.4-7.1-12.8-11.4-18.6c-3-4.2-7.3-7.4-10.9-11
		C294.7,138.1,284.9,150.6,274.8,163.5z"/>
</g>
</svg>
