<?xml version="1.0" encoding="utf-8"?>
<!-- Generator: Adobe Illustrator 19.0.0, SVG Export Plug-In . SVG Version: 6.00 Build 0)  -->
<svg version="1.1" id="Layer_1" xmlns="http://www.w3.org/2000/svg" xmlns:xlink="http://www.w3.org/1999/xlink" x="0px" y="0px"
	 viewBox="0 0 400 400" style="enable-background:new 0 0 400 400;" xml:space="preserve">
<style type="text/css">
	.st0{opacity:2.000000e-002;}
</style>
<g class="st0">
	<path d="M174.6,130.8c2.5-9.7,4.2-18.7,7.1-27.3c8.4-25,23.9-44.8,47.5-56.5c35.4-17.7,69.8-13.4,100.4,11
		c30.8,24.7,43.2,57.7,35.7,96.7c-4.7,24.5-11.6,48.6-17.7,72.9c-9.9,39.7-19.9,79.3-30,119c-2.7,10.7-11.2,17.4-21.4,17.2
		c-2.5-0.1-5.1-0.7-7.6-1.4c-61.2-17.4-122.4-34.7-183.5-52.3c-27.5-8-48-24.9-61.5-50.4c-18.3-34.9-14.8-81,15.3-111.3
		c18-18.1,40.6-25.9,65.8-26.8c12.3-0.4,24.4,1.4,36.1,5.2C165.2,128.2,169.5,129.3,174.6,130.8z M297.4,341.5
		c0.2-0.7,0.6-1.8,0.9-3c15.3-61.2,30.6-122.3,45.7-183.5c9-36.3-9-74.6-42.6-90c-19.5-8.9-39.7-10.5-59.4-0.7
		c-20.2,10-33.5,26.6-40.4,47.8c-4.4,13.4-7.3,27.3-10.7,41c-0.8,3.1-1.8,3.9-5,3c-11.3-3.4-22.7-6.5-34.1-9.7
		c-11.6-3.3-23.5-4.4-35.5-2.7C90,147.4,70.5,160,59.8,185.1c-17,39.9,3,84,40.1,100.2c14.8,6.5,30.9,10.1,46.6,14.6
		c40.5,11.7,81,23.2,121.5,34.6C277.6,337.1,287.3,339.1,297.4,341.5z"/>
</g>
</svg>
