<?xml version="1.0" encoding="utf-8"?>
<!-- Generator: Adobe Illustrator 19.0.0, SVG Export Plug-In . SVG Version: 6.00 Build 0)  -->
<svg version="1.1" id="Layer_1" xmlns="http://www.w3.org/2000/svg" xmlns:xlink="http://www.w3.org/1999/xlink" x="0px" y="0px"
	 viewBox="0 0 400 400" style="enable-background:new 0 0 400 400;" xml:space="preserve">
<style type="text/css">
	.st0{opacity:2.000000e-002;}
</style>
<g class="st0">
	<path d="M233.1,98.6c1.4-0.8,2.4-1.4,3.5-2c10.9-6.1,21.7-12.5,32.7-18.3c22.4-11.6,52.8-3.6,67.8,16.7
		c16.5,22.3,13.2,52.6-3.2,69.8c-4.3,4.5-9.6,8.1-14.7,11.7c-3.8,2.7-7.9,4.9-12,6.9c-2.8,1.4-2.7,2.8-1.3,5.2c4,7,8.2,14,11.4,21.4
		c9.3,21.6,0.4,50.6-19.2,63.7c-3.5,2.3-7,4.5-10.6,6.6c-29.5,17-59,34-88.4,51.1c-11.1,6.5-22.9,9.7-35.9,8
		c-18.3-2.3-32.4-11.5-41.7-27.3c-18.6-31.6-36.7-63.4-55-95.1c-5.1-8.9-3.4-18,4.6-24.4c2-1.7,1.2-3,0.3-4.6
		c-5.8-10-11.6-20-17.3-30.2c-3.7-6.7-2.4-15.3,3-20.6c1.8-1.8,4-3.3,6.2-4.6c19.9-11.6,39.8-23,59.7-34.5c2.1-1.2,4.5-2.7,6.8-2.8
		c3.5-0.3,4.4-2.1,5.1-5c1.3-5.4,2.7-10.7,4.3-16c3.3-11.3,12.4-16.4,23.8-13.4c14.1,3.7,28.1,7.5,42.1,11.3
		c4.4,1.2,8.7,2.3,13.1,3.5c10.7,2.9,15.6,10,14.7,21C233,97.1,233.1,97.5,233.1,98.6z M186,146.5c-17.6,10.1-35.1,20.3-52.7,30.4
		c-3.8,2.2-3.8,2.2-1.6,6.1c7,12.2,14.1,24.4,21.1,36.6c2,3.4,1.7,6.7-0.6,9.8c-2.3,3-5.4,3.9-9,3.3c-3.6-0.6-5.4-3.4-7.1-6.3
		c-6.6-11.4-13.2-22.8-19.8-34.3c-2.3-4.1-2.4-4.1-6.6-1.6c-8.2,4.7-16.3,9.6-24.6,14.1c-3,1.6-3.4,2.9-1.6,5.9
		c17.7,30.4,35.2,60.9,52.9,91.3c1.6,2.8,3.5,5.6,5.7,7.9c12.9,13.5,30.8,16,47.2,6.6c31.3-18,62.5-36,93.7-54.1
		c2.9-1.7,5.8-3.6,8.1-6c13.1-12.8,15.5-30.5,6.4-46.3c-17.7-30.8-35.5-61.5-53.2-92.3c-1.7-3-3-3.3-5.9-1.6
		C221,126.4,203.5,136.4,186,146.5z M295.3,169.6c5.4-3.1,10.5-6.1,15.6-9c8.9-5.1,15-12.5,17.7-22.4c3.8-13.9,0.6-26.3-9.5-36.4
		c-10.4-10.4-23.4-13.6-37.3-9c-7.2,2.4-13.6,6.9-20.5,10.2c-3,1.5-3.1,2.9-1.5,5.7c11.2,19.1,22.1,38.2,33.2,57.4
		C293.6,167.1,294.3,168.1,295.3,169.6z M215,93.5c-18.8-5-37.5-10.1-56.2-15c-0.6-0.2-2.2,0.9-2.4,1.7
		c-4.9,17.9-9.7,35.9-14.5,53.8c-0.5,1.9,0,2.6,1.8,3.1c4.6,1.1,9.1,2.4,13.8,3.4c1.3,0.3,2.9,0,4.1-0.7c15.6-8.9,31.2-18,46.8-27
		c0.9-0.5,2.1-1.3,2.3-2.2C212.2,105.1,213.5,99.5,215,93.5z M136.7,154.1c-0.9-0.5-1.3-0.8-1.6-1c-9.6-4.6-13.3-12.5-10.8-22.8
		c0.9-3.7,2-7.4,3-11.1c0.2-0.8,0.2-1.6,0.2-2.6c-0.8,0.2-1.1,0.3-1.4,0.4c-18,10.4-35.9,20.7-53.9,31.1c-2,1.2-1.9,2.3-0.8,4.1
		c5.2,8.8,10.4,17.7,15.3,26.7c1.5,2.7,2.7,2.8,5.2,1.3c13.9-8.2,27.9-16.2,41.8-24.2C134.6,155.5,135.4,154.9,136.7,154.1z"/>
</g>
</svg>
