<?xml version="1.0" encoding="utf-8"?>
<!-- Generator: Adobe Illustrator 19.0.0, SVG Export Plug-In . SVG Version: 6.00 Build 0)  -->
<svg version="1.1" id="Layer_1" xmlns="http://www.w3.org/2000/svg" xmlns:xlink="http://www.w3.org/1999/xlink" x="0px" y="0px"
	 viewBox="0 0 400 400" style="enable-background:new 0 0 400 400;" xml:space="preserve">
<style type="text/css">
	.st0{opacity:2.000000e-002;}
</style>
<g class="st0">
	<path d="M304.3,190.5c2.8,4.9,5.3,9.2,7.7,13.4c3.5,6.1,6.2,12.5,7.3,19.5c3.2,20.5-6.1,41.2-24,51.7
		c-30.6,17.9-61.3,35.7-92.2,53.2c-21.5,12.2-50.2,5.7-64.6-14.3c-4.6-6.3-8.4-13.3-12.3-20C112.1,269.7,98,245.3,84,220.9
		c-4.7-8.2-3.9-16.6,2.4-22.3c1.4-1.3,3-2.2,4.7-3.2c58.7-33.9,117.5-67.6,176.1-101.8c25.9-15.1,58.3-5.8,71.9,19.7
		c12.4,23.1,5.3,51.7-16.4,66.4C317,183.6,310.8,186.7,304.3,190.5z M98.1,210.9c0.5,1,0.8,1.9,1.2,2.7
		c16.5,28.6,32.9,57.4,49.6,85.9c10.3,17.5,30.1,23.2,47.4,13.5c30.2-17.1,60.3-34.5,90.3-52.1c16.2-9.6,21.2-30.3,11.8-46.6
		c-16.5-28.6-33.1-57.3-49.6-85.9c-0.6-1.1-1.2-2.1-1.9-3.3C197.2,153.7,147.7,182.2,98.1,210.9z M261.9,116
		c0.2,0.8,0.2,1.2,0.3,1.4c10.9,19,21.8,37.9,32.7,56.9c1,1.7,2,1.4,3.3,0.6c4.9-3,10-5.7,14.8-8.9c13.2-8.7,18.9-26.8,13-40.7
		c-6.8-16.1-22.4-24.8-38.9-21.6C277.6,105.6,270.4,111.8,261.9,116z"/>
	<path d="M132.8,150.8c-0.7,0.4-1.4,0.8-2.2,1.3c-3.9,2.2-5.6,2-8.1-1.7c-8.7-12.8-20.5-20.8-35.3-24.8C74.1,122,64,114,56.1,103.1
		c-2-2.9-1.6-5.3,1.4-7.2c2.1-1.4,4.3-2.6,6.5-3.8c2.5-1.4,4.7-1,6.3,1.4c6,9.2,14.9,14,25.1,17c17,5,30.4,15,40.4,29.5
		c0.4,0.6,0.9,1.2,1.3,1.8c2.4,3.2,1.9,5.3-1.5,7.4C134.6,149.7,133.7,150.2,132.8,150.8z"/>
	<path d="M177.1,125.2c-1,0.6-2,1.2-3,1.7c-2.6,1.5-5,1-6.6-1.5c-9.1-14-22.1-22-37.9-26.4c-12.3-3.5-21.7-11.4-29-21.7
		c-2.2-3.1-1.7-5.3,1.5-7.4c1.6-1,3.2-1.9,4.9-2.8c4.1-2.3,5.5-2.3,8.2,1.6c6,8.5,14.3,13.1,24,16c17.5,5.1,31.4,15.3,41.5,30.5
		c3.4,5,3,6.2-2.3,9.3C178,124.7,177.6,124.9,177.1,125.2z"/>
</g>
</svg>
