<?xml version="1.0" encoding="utf-8"?>
<!-- Generator: Adobe Illustrator 19.0.0, SVG Export Plug-In . SVG Version: 6.00 Build 0)  -->
<svg version="1.1" id="Layer_1" xmlns="http://www.w3.org/2000/svg" xmlns:xlink="http://www.w3.org/1999/xlink" x="0px" y="0px"
	 viewBox="0 0 400 400" style="enable-background:new 0 0 400 400;" xml:space="preserve">
<style type="text/css">
	.st0{opacity:2.000000e-002;}
</style>
<g class="st0">
	<path d="M90.4,274c-2.4-0.4-4.8-0.7-7.1-1.3c-19.9-5.7-36-16.8-47.3-34.3c-17.3-26.8-19-55-5.9-83.7c7.7-17,20.3-29.8,37.1-38.2
		c2.9-1.4,3.7-3,3.7-6.3C70.6,81,82.4,58.2,108,43.4s51.2-13.3,76.4,1.3c2.8,1.6,4.6,1.6,7.3-0.2c30.1-19.9,72.3-16.8,99.5,7.4
		c2.9,2.6,6.1,4.1,9.8,5.1c17,4.8,30.6,14.6,40.8,29.1c7.1,10.3,11.4,21.5,12.5,34c0.1,0.9,0.3,1.7,0.6,3
		c8.7-1.6,11.7,4.4,14.1,10.7c17.8,46.4,10.7,89.2-18.9,128.6c-2,2.7-2.6,4.7-0.7,7.6c1.6,2.3,3.1,4.9,3.8,7.6
		c2.8,10.2-1.1,18.9-10.2,24.2c-36.5,21.1-72.9,42.1-109.4,63.2c-11.7,6.7-23.6,3.6-30.5-8c-3.9-6.5-2.1-5.5-9.6-4.7
		c-46.2,5.2-84.9-9.2-115.8-44.2c-2.6-2.9-4.8-6.2-6.8-9.5c-3-4.9-1.6-10.5,3.3-13.5c5.3-3.2,10.8-6.3,16.2-9.4
		C90.3,275.2,90.4,274.6,90.4,274z M95.4,296.8c0.9,1.1,1.5,2,2.3,2.8c23.4,23.8,51.8,34.8,85,32.8c8.1-0.5,16.2-2.3,24.3-3.7
		c2.4-0.4,3.8,0,5,2.3c2.2,4.3,4.8,8.4,7.2,12.6c2.5,4.4,2.5,4.4,6.9,1.9c34.2-19.8,68.4-39.5,102.6-59.3c0.8-0.5,1.9-0.7,2.3-1.4
		c0.6-1,1.3-2.5,0.9-3.4c-1.4-2.9-3.1-5.7-4.8-8.5c-5.2-9-5.2-9,1.5-16.8c0.9-1,1.7-2,2.5-3c23.7-28.6,31.7-60.9,23.4-97.2
		c-0.6-2.4-1.5-4.8-2.3-7.4C266.3,198.1,181,247.4,95.4,296.8z M238.6,190c-24.7-18.7-36.1-43-31.5-73.2c4.7-30.2,23-49.8,52.2-60
		c-1.3-0.7-1.9-1.2-2.6-1.4c-10-3.1-20.1-4.5-30.5-2.6c-12.5,2.3-23.8,7.3-34.3,14.4c-5.8,3.9-5.6,3.5-11.5,0.2
		c-7.2-4.1-14.6-8.2-22.4-10.9c-25.9-9.3-53.9,7.9-61.4,28.3c-4.3,11.7-5.3,23.9-4.1,36.2c0.3,2.8-0.5,4.1-2.9,5.6
		c-7.5,4.6-15.2,9.1-22.2,14.5c-31.7,24.8-31.8,63.6-11.6,90c19.3,25.3,54.7,32.3,82.6,16.7c13.4-7.5,26.7-15.3,40-23.1
		c0.9-0.5,1.7-1.2,3.1-2.3c-2.3-0.7-3.8-1.2-5.3-1.6c-29.7-8-59.5-15.9-89.2-23.9c-12.2-3.3-12.2-3.3-8.7-15.4
		c1.9-6.6,3.3-7.4,9.9-5.7c31.3,8.3,62.5,16.6,93.8,24.9c1.4,0.4,2.9,0.6,5.5,1.2c-1.3-2.3-2.1-3.6-2.8-4.9
		c-15.9-27.6-31.7-55.1-47.7-82.6c-6.5-11.1-6-10.8,4.5-16.7c6.3-3.6,7.8-3.2,11.4,3c19.1,33.1,38.2,66.2,57.3,99.3
		c0.6,1,1,2.2,1.9,3c0.6,0.5,2,1,2.5,0.7C222.6,199.3,230.3,194.8,238.6,190z M296.8,156.5c11.3-6.5,22.6-13,33.8-19.6
		c1.4-0.8,2.9-2.8,3.1-4.3c1.3-14.8-2.5-28.3-12.5-39.5c-24.3-27.1-65.4-24.2-85.8,5.8c-17.7,26.1-7.7,63.4,20.6,77.2
		c2.7,1.3,4.9,1.3,7.6-0.3C274.6,169.2,285.7,162.9,296.8,156.5z"/>
</g>
</svg>
