<?xml version="1.0" encoding="utf-8"?>
<!-- Generator: Adobe Illustrator 19.0.0, SVG Export Plug-In . SVG Version: 6.00 Build 0)  -->
<svg version="1.1" id="Layer_1" xmlns="http://www.w3.org/2000/svg" xmlns:xlink="http://www.w3.org/1999/xlink" x="0px" y="0px"
	 viewBox="0 0 400 400" style="enable-background:new 0 0 400 400;" xml:space="preserve">
<style type="text/css">
	.st0{opacity:2.000000e-002;}
</style>
<g class="st0">
	<path d="M260.9,305.6c-34.8,20.1-69.6,40.1-104.3,60.3c-5.7,3.3-11.4,4.7-17.2,1.5c-3.1-1.7-6-4.5-7.8-7.6
		c-8.7-14.4-17.1-29-25.3-43.7c-5.8-10.3-2.9-19.5,7.7-25.6c44.7-25.8,89.5-51.7,134.2-77.5c24.4-14.1,48.9-28.2,73.3-42.3
		c3.8-2.2,7.9-3.7,12.4-3.3c5.1,0.5,9.4,2.5,12,6.9c9.5,16.1,19,32.3,28.1,48.7c3.9,7,1.1,16.2-5.8,20.4
		c-6.1,3.8-12.3,7.2-18.5,10.8C320.1,271.4,290.5,288.5,260.9,305.6z M252.9,291.4c34.3-19.8,68.6-39.7,103-59.4
		c2.8-1.6,3.2-2.8,1.5-5.6c-6.7-11.3-13.1-22.7-19.7-34c-1.6-2.8-3.1-6.9-5.5-7.7c-2.1-0.7-5.5,2.5-8.3,4c-2.8,1.4-5,3.2-6.5,6.2
		c-7.7,15.9-15.6,31.7-23.5,47.6c-3.6,7.3-4.9,8.1-13.2,7.6c-18-1.1-35.9-2.3-53.9-3.3c-1.8-0.1-3.9,0.3-5.4,1.2
		c-32.9,18.9-65.7,37.9-98.6,56.8c-2.6,1.5-2.8,2.7-1.4,5.2c7.7,13,15.2,26.2,22.7,39.3c2.2,3.8,2.2,3.8,6,1.6
		C184.4,330.9,218.6,311.2,252.9,291.4z M251.3,230.8c0.1,0.3,0.1,0.5,0.2,0.8c8.9,0.6,17.8,1.2,26.7,1.6c0.9,0,2.2-1.1,2.7-2
		c3.7-7.1,7.2-14.2,10.8-21.3c0.4-0.7,0.8-1.4,1.3-2.1c-0.3-0.1-0.7-0.2-1-0.4C278.4,215.2,264.8,223,251.3,230.8z"/>
	<path d="M182.3,169.2c-35.3,20.4-70.6,40.8-106,61.2c-7,4-15,3-20.5-2.6c-1.1-1.1-2-2.5-2.8-3.8c-8.6-14.8-17.3-29.6-25.7-44.6
		c-5.4-9.8-2.5-19,7.3-24.7c39.9-23.1,79.9-46.1,119.8-69.2c29.8-17.2,59.6-34.4,89.4-51.6c7.8-4.5,16.2-3.7,21.7,2
		c0.7,0.8,1.4,1.6,2,2.5C276.7,54.2,286,70,294.9,86c4.5,8.1,1.5,17.3-6.6,22C253,128.5,217.6,148.8,182.3,169.2z M147.7,108.7
		c-34.5,19.9-69,39.9-103.5,59.7c-2.5,1.5-2.9,2.7-1.4,5.2c7.7,13.1,15.3,26.3,22.8,39.6c1.5,2.6,2.8,3.1,5.5,1.5
		c68.7-39.7,137.4-79.4,206.2-119c2.7-1.5,3-2.9,1.4-5.5c-7.6-12.9-15.1-26-22.6-39c-2.2-3.8-2.2-3.8-6-1.6
		C216,69.3,181.9,89,147.7,108.7z"/>
	<path d="M129.9,220.7c13.2-7.4,25.9-11,39.4-11.4c21.5-0.7,38.3-10.1,51.1-27c6.7-8.8,13-17.8,21.6-25c13.4-11,28.8-16.6,45.9-17.8
		c8.1-0.6,16.1-1.1,23.8-4.2c2.2-0.9,4.3-1.8,6.5-2.7c2-0.9,3.6-0.3,4.7,1.5c1.5,2.3,2.9,4.7,4.2,7.1c1.5,2.7,0.7,4.7-1.9,6.1
		c-9.1,4.8-18.7,7.3-28.9,8.3c-7.7,0.7-15.6,1.3-22.9,3.4c-16.1,4.7-27.8,15.6-36.8,29.5c-6.9,10.6-15.6,19.5-26.5,25.8
		c-10.7,6.2-22.3,10-34.7,10.9c-8.8,0.7-17.5,1.8-25.9,4.8c-13.4,4.9-24.3,13.1-32,25.1c-4.9,7.6-10.2,15-17.2,20.8
		c-2.7,2.2-5.6,4.2-8.5,6.1c-2.3,1.5-4.3,0.9-5.7-1.3c-1.1-1.7-2.1-3.5-3.1-5.2c-2.5-4.5-2.4-5.9,2-8.7c6.5-4.2,11.5-9.8,15.7-16.1
		c6-9.1,12.9-17.4,21.5-24.3C124.8,224.1,128,222,129.9,220.7z"/>
</g>
</svg>
