<?xml version="1.0" encoding="utf-8"?>
<!-- Generator: Adobe Illustrator 19.0.0, SVG Export Plug-In . SVG Version: 6.00 Build 0)  -->
<svg version="1.1" id="Layer_1" xmlns="http://www.w3.org/2000/svg" xmlns:xlink="http://www.w3.org/1999/xlink" x="0px" y="0px"
	 viewBox="0 0 400 400" style="enable-background:new 0 0 400 400;" xml:space="preserve">
<style type="text/css">
	.st0{opacity:2.000000e-002;}
</style>
<g class="st0">
	<path d="M63.5,218.4c-0.2-5,1.3-14.4,3.4-23.8c0.3-1.5,0.1-3.3-0.5-4.7c-3.5-7.8-3.9-15.7-1.7-24.1c4.3-15.9,10.9-30.6,20.2-44.1
		c17.4-25.1,40.5-42.9,69.2-53.3c7.2-2.6,14.5-5.8,22.4-4.9c4.3,0.5,8.4,2,12.6,3c1.5,0.4,3.2,0.9,4.7,0.6c37-9.2,70.6-1.6,101,20.9
		c7.9,5.8,11.7,14.3,11.9,24.1c0.1,2.2,0.6,3.9,2.2,5.5c10.9,11,19.4,23.6,25.2,38.1c7.9,19.8-3.6,40.7-24.7,43.7
		c-5.4,0.8-11.2-0.5-16.7-1.3c-12.5-1.8-24.8-4-37.3-6c-1.1-0.2-2.7,0.2-3.6,0.9c-4,3.5-8.5,6-13.6,7.5c-1.1,0.3-2,1.6-2.6,2.7
		c-2.4,3.7-4.2,7.9-7.1,11.3c-4.3,5.1-9.1,9.8-14.1,14.2c-3.3,2.9-7.5,4.7-11.3,7.1c-1.1,0.7-2.1,1.8-2.8,2.9
		c-2.5,4.2-4.6,8.6-7.2,12.6c-1.1,1.7-1.6,3.1-1.2,5.1c2.6,15.4,5.5,30.7,7.6,46.2c1.9,13.8-7.1,29.5-24.7,33.5
		c-8.9,2.1-17.1-0.5-25-4.4c-12.3-6-23.3-13.7-33.1-23.3c-1-0.9-2.7-1.6-4-1.6c-10.6-0.3-19.2-4.5-25.5-12.9
		C71.4,272.9,63.6,249.2,63.5,218.4z M221.1,192.8c-0.5-2.1-0.8-4.3-1.4-6.4c-4.2-13.9-8.5-27.7-12.7-41.5
		c-5.4-17.6-10.8-35.2-16.2-52.9c-3-9.6-10.7-14.1-20.1-11.3c-46.4,13.6-76.5,43.6-89.9,90.1c-2.6,9,1.5,16.7,10.3,19.5
		c32,10,64,19.8,96.1,29.6c6.4,2,11.9,0.6,16.7-4.1c4.2-4.1,8.3-8.2,12.4-12.4C219,200.5,220.8,197.1,221.1,192.8z M205,81.8
		c10.5,34,20.9,67.6,31.7,102.4c2.8-2.9,5.3-5,7.2-7.4c9.3-11.7,18.4-23.4,27.6-35.2c5-6.4,10.2-12.7,15-19.3
		c6-8.2,4.5-16.7-3.7-22.6c-2.2-1.6-4.4-3.2-6.7-4.6c-14.2-8.8-29.6-13.7-46.2-15C221.6,79.6,213.3,80.1,205,81.8z M81.1,204.9
		c-0.3,6.4-0.9,12.5-0.9,18.6c-0.2,22.3,6.9,42.2,20.2,59.9c2,2.6,5.4,4.6,8.5,5.9c5.6,2.3,10.5-0.3,15-3.8
		c12.4-9.8,24.9-19.6,37.4-29.4c5.9-4.6,11.9-9.2,17.7-13.9c1.8-1.5,3.2-3.5,5.1-5.7C149.3,225.9,115.6,215.5,81.1,204.9z
		 M132.2,300c9.5,8.6,19.7,15.2,31.4,19.1c10.4,3.5,20.1-4.5,19-15.5c-0.8-7.7-2.3-15.4-3.6-23.1c-0.8-4.9-1.6-9.7-2.5-15.2
		C161.6,277.1,147,288.4,132.2,300z M300,132.3c-11.6,14.9-23,29.4-34.4,44c0.6,0.3,0.9,0.5,1.2,0.5c12,2.1,23.9,4.4,36,6.1
		c11.5,1.6,19.8-8.6,16.3-19.5c-0.8-2.6-2-5-3.2-7.5C311.8,147.4,306.7,139.6,300,132.3z"/>
</g>
</svg>
