<?xml version="1.0" encoding="utf-8"?>
<!-- Generator: Adobe Illustrator 19.0.0, SVG Export Plug-In . SVG Version: 6.00 Build 0)  -->
<svg version="1.1" id="Layer_1" xmlns="http://www.w3.org/2000/svg" xmlns:xlink="http://www.w3.org/1999/xlink" x="0px" y="0px"
	 viewBox="0 0 400 400" style="enable-background:new 0 0 400 400;" xml:space="preserve">
<style type="text/css">
	.st0{opacity:2.000000e-002;}
</style>
<g class="st0">
	<path d="M140.8,97.5C168.9,81.3,197,65,225.1,48.8c9.3-5.3,19.4-7.5,30-5.6c14.1,2.5,24.8,9.7,32.3,22.2
		c9.4,15.7,7.6,38.5-5.3,52.2c-3.8,4-8.2,7.5-12.9,10.4c-7.3,4.7-15,8.9-22.6,13.1c-2,1.1-2.3,2.2-1.1,4.1
		c5.1,8.6,10.1,17.3,15,26.1c9,16.3,5.8,38.6-7.5,51.7c-2.9,2.9-6.2,5.6-9.8,7.7c-26.8,15.7-53.7,31.2-80.7,46.6
		c-17.4,9.9-39.9,6.6-54.2-8.8c-2.4-2.6-4.6-5.6-6.4-8.7c-17.7-30.4-35.1-60.9-52.8-91.3c-4.2-7.3-2.7-16.7,6-21.7
		C83.6,130.6,112.2,114,140.8,97.5z M221.3,131.9c-8.7-15-17.4-30-26-45.1c-1.3-2.3-2.4-2.6-4.7-1.2c-9.9,5.9-19.9,11.6-29.9,17.3
		c-14.9,8.6-29.7,17.2-44.6,25.7c-1.9,1.1-2.3,2-1.1,3.9c1.9,3,3.4,6.2,5.4,9.1c0.7,1.1,2,2.2,3.3,2.5c7.1,2.1,14.3,4,21.5,5.8
		c5,1.3,8.8,4.1,11.4,8.7c4.8,8.6,9.8,17,14.7,25.6c4.6,8,2.4,16.6-5.6,21.3c-8.2,4.8-16.4,9.5-24.6,14.2c-8.7,5-17,2.9-22.1-5.7
		c-5-8.4-9.8-16.8-14.6-25.3c-2.6-4.5-3.2-9.2-1.8-14.2c1.1-3.7,2.1-7.5,3.1-11.3c1.1-4,3.2-8.2,2.7-12.1c-0.5-3.8-3.8-7.3-5.7-11
		c-1.1-2.3-2.2-2.6-4.5-1.2c-11.3,6.6-22.6,13.1-34,19.7c-3.5,2-3.5,2-1.4,5.6c16,27.6,31.9,55.3,47.9,82.9c1.5,2.6,3.2,5,4.7,7.5
		c7.8,12.8,26.2,18.4,41.5,9.6c26.2-15.1,52.4-30.2,78.5-45.4c3-1.7,5.8-4.1,8-6.8c8.9-10.6,10-24.2,3.1-36.3
		C238.2,161.1,229.7,146.5,221.3,131.9z M221.3,103.4c4.6,8,9.3,16,13.9,24.1c1.1,1.9,2.1,2.4,4.2,1.2c8.1-4.8,16.4-9.4,24.5-14.3
		c15.3-9.2,19.7-29.1,9.5-44c-9.1-13.4-27.5-16.8-40.4-9.2c-8.1,4.7-16.2,9.4-24.4,14c-2.2,1.2-2.3,2.3-1.1,4.4
		C212.1,87.4,216.7,95.4,221.3,103.4z M159.2,192.4c-5.4-9.3-10.5-18.1-15.6-26.9c-0.3-0.5-0.9-1-1.4-1.2c-6.7-1.8-13.4-3.6-20-5.3
		c-1.9,6.9-3.9,13.6-5.6,20.3c-0.2,0.7,0.2,1.7,0.6,2.3c4.6,8.1,9.4,16.2,14,24.4c0.9,1.6,1.8,1.8,3.3,0.8
		c5.5-3.3,11.1-6.4,16.6-9.6C153.6,195.6,156.2,194,159.2,192.4z"/>
	<path d="M225.5,277.4c40.2-23.2,80.5-46.5,120.7-69.7c4.2-2.4,6.2-1.5,6.9,3.4c0.6,4.3-0.4,9.5-6.8,13.1
		c-23.1,13.2-46.1,26.6-69.2,39.9c-52.4,30.2-104.8,60.4-157.1,90.8c-4.7,2.7-9.2,3.8-14.1,0.9c-1-0.6-2-1.3-2.8-2.2
		c-2.4-2.8-2.1-4.3,1.1-6.1C144.7,324.1,185.1,300.7,225.5,277.4z"/>
</g>
</svg>
