<?xml version="1.0" encoding="utf-8"?>
<!-- Generator: Adobe Illustrator 19.0.0, SVG Export Plug-In . SVG Version: 6.00 Build 0)  -->
<svg version="1.1" id="Layer_1" xmlns="http://www.w3.org/2000/svg" xmlns:xlink="http://www.w3.org/1999/xlink" x="0px" y="0px"
	 viewBox="0 0 400 400" style="enable-background:new 0 0 400 400;" xml:space="preserve">
<style type="text/css">
	.st0{opacity:0.1;}
</style>
<g id="XMLID_13_" class="st0">
	<path id="XMLID_14_" d="M139.4,92.4c20.3-11.7,40.6-23.3,60.8-35.2c6.7-4,12.9-3.7,19.3,0.5c6.1,4.2,12.5,8.1,18.7,12.3
		c1.9,1.2,3.3,1.3,5.2,0.1c1.8-1.1,3.6-2.2,5.5-3.1c3.6-1.6,7.3-0.5,9.4,2.8c5.7,9.6,11.3,19.4,16.9,29.3c2,3.6,0.8,7.7-2.6,9.8
		c-2,1.3-4.1,2.6-6.2,3.6c-2.1,1-2.4,2.3-1.4,4.2c2.5,5,4.8,10.1,7.1,15.2c5.8,12.2,11.5,24.5,17.3,36.7c4.6,9.7,9.2,19.4,13.8,29.1
		c4.6,9.8,9.2,19.7,13.8,29.5c4.6,9.7,9.2,19.4,13.8,29.1c1.5,3.3,3.2,6.5,4.3,9.8c2.4,7.2-0.5,14.9-7,18.6
		c-38.6,22.4-77.3,44.7-116,66.9c-7.5,4.4-16.6,1.7-21.8-5.7c-10.6-15.4-21.4-30.7-32-46.1c-10.2-14.8-20.5-29.6-30.7-44.4
		c-9.7-14-19.4-28-29-42c-1.6-2.3-3-2.6-5.3-1.1c-1.8,1.3-3.8,2.3-5.7,3.3c-3.7,1.9-7.8,0.8-9.9-2.6c-5.7-9.6-11.3-19.4-16.9-29.3
		c-2-3.4-0.9-7.2,2.3-9.5c0.6-0.5,1.3-1,2-1.3c5.3-1.8,6.3-5.5,5.6-10.6c-0.8-6-0.7-12.1-1.1-18.2c-0.6-7.7,2.5-13.1,9.2-16.9
		C98.9,115.9,119.1,104.1,139.4,92.4L139.4,92.4z M138.3,243.5c2.2,3,4.2,5.8,6.2,8.7c9.8,14.2,19.7,28.3,29.3,42.5
		c1.9,2.9,3.2,2.7,5.8,1.1c33.1-19.2,66.4-38.4,99.5-57.6c6-3.4,12-6.9,17.8-10.3c1.1-0.6,2.3-1.2,1.5-3c-2.1-4.4-4.2-8.8-6.3-13.2
		c-4.8-10.1-9.5-20.2-14.2-30.2c-2.3-4.8-4.6-9.6-7.1-14.6C226.5,192.6,182.5,218,138.3,243.5z M86.7,198.2c1.6-0.9,2.7-1.6,3.8-2.2
		c37.2-21.4,74.4-42.9,111.5-64.4c17.5-10.1,34.9-20.3,52.6-30.3c2.1-1.2,2.7-2.3,1.3-4.4c-1.3-1.8-2.2-3.8-3.3-5.7
		c-3.7-6.4-3.7-6.4-10.1-2.7c-1.9,1.1-3.2,1-5.2-0.1c-8.4-5.7-17-11.2-25.3-16.9c-1.9-1.2-3.2-1.4-5.1-0.3
		c-39.8,23.1-79.6,46.1-119.6,69.1c-1.7,1-2.4,2.2-2.3,4.4c0.7,9,0.8,17.9,1.9,26.9c0.6,5.3-0.6,8.5-5.6,10.3
		c-0.6,0.2-1.2,0.5-1.4,0.9c-0.4,0.7-0.8,1.8-0.6,2.2C81.5,189.2,84,193.6,86.7,198.2z M129,230.2c45-26,89.8-51.9,134.9-77.9
		c-4.6-10-9.3-19.8-13.9-29.9c-46.8,27-93.2,53.8-139.9,80.8C116.5,212.4,122.7,221.3,129,230.2z M185,311
		c6.4,9.2,12.6,18.2,18.7,27.2c39-22.5,77.5-44.8,116.3-67.1c-4.8-10.1-9.4-19.9-14.1-29.8C265.4,264.6,225.5,287.6,185,311z"/>
</g>
</svg>
