<?xml version="1.0" encoding="utf-8"?>
<!-- Generator: Adobe Illustrator 19.0.0, SVG Export Plug-In . SVG Version: 6.00 Build 0)  -->
<svg version="1.1" id="Layer_1" xmlns="http://www.w3.org/2000/svg" xmlns:xlink="http://www.w3.org/1999/xlink" x="0px" y="0px"
	 viewBox="0 0 400 400" style="enable-background:new 0 0 400 400;" xml:space="preserve">
<style type="text/css">
	.st0{opacity:0.1;}
</style>
<g class="st0">
	<path d="M216.4,362.1c-5.9,3.4-11.5,7.4-17.7,10c-8.8,3.7-19.7-0.4-24.2-8.9c-6.8-12.6-13.1-25.5-19.6-38.3
		c-4.2-8.3-8.5-16.7-12.7-25c-6.5-12.8-13-25.6-19.4-38.4c-0.8-1.7-1.8-2.3-3.7-2.2c-22.4,1.7-40.9-6.3-54.9-23.8
		c-4.6-5.7-8.2-12.4-11.1-19.2c-6.8-15.9-13-32-19.2-48.1c-4.1-10.5,0-20.3,9.2-27c5.8-4.2,12.4-6.5,19.8-5.9
		c0.8,0.1,2.2-0.8,2.6-1.6c6.2-11.3,15.7-17,28.6-16.5c2.2,0.1,2.7-1.2,3.4-2.6c5.6-10.9,18.4-17.3,30.1-15.3
		c5.7,1,9.8,4.3,13.3,8.7c9.6,12,19.4,23.9,28.7,36.1c7.4,9.7,13.7,20,16.4,32.1c4.1,17.8,0.7,34.2-9.3,49.3
		c-1.4,2.1-1.6,3.6-0.2,5.7c7.9,11.8,15.7,23.8,23.5,35.7c4.5,6.9,9.1,13.9,13.6,20.8c7.7,12,15.2,24.1,23.2,35.9
		c8.3,12.1,3.5,26.2-8,31.9c-4.2,2.1-8.1,4.6-12.2,7C216.5,362.4,216.5,362.3,216.4,362.1z M80.3,182.5c-5.2-9-10.4-18.1-15.6-27.1
		c-1.9-3.3-4.1-4.2-7.7-2.7c-1.8,0.8-3.6,1.8-5.2,3c-2.6,2-3.4,4.6-2.1,7.9c6.9,16.6,13.5,33.2,20.5,49.7
		c9.5,22.5,31.1,34.1,55,29.5c6.2-1.2,6.1-1.1,9.1,4.9c8.8,17.5,17.7,34.9,26.5,52.3c4.3,8.4,8.4,16.9,12.7,25.3
		c4.8,9.5,9.7,18.9,14.6,28.3c1.8,3.5,3.5,3.9,7,1.9c8.8-5,17.5-10.1,26.3-15.2c3.2-1.8,3.7-4,1.8-7.1c-1.3-2.2-2.8-4.2-4.2-6.4
		c-5.4-8.4-10.8-16.8-16.3-25.2c-9.8-15-19.7-30.1-29.5-45.1c-5.8-8.9-11.5-17.9-17.4-26.7c-1.1-1.6-0.9-2.5,0.4-3.8
		c1.8-1.9,3.6-3.9,5.2-6c12.8-17.3,12.6-37.4,2-54.8c-10.3-16.8-23-31.8-35.8-46.7c-2.8-3.2-5.2-3.7-8.9-1.8c-0.9,0.5-1.9,1-2.8,1.6
		c-4.3,2.7-5,5.5-2.5,9.8c10.2,17.7,20.4,35.4,30.6,53.1c2.3,4,1.6,6.8-2.5,9.3c-5,3.1-8.1,2.7-10.7-1.3
		c-8.6-13.1-17.1-26.1-25.7-39.2c-3.2-4.8-6.3-9.6-9.7-14.2c-0.7-1-2.2-1.8-3.4-2c-3.7-0.5-9.6,2.8-11,6.3c-0.5,1.4-0.5,3.5,0.1,4.8
		c9.3,18.9,18.7,37.7,28.1,56.5c2.2,4.5,1.3,7.1-3.9,9.9c-4.4,2.4-7.4,1.7-9.7-2.3C90.6,200.4,85.5,191.4,80.3,182.5z"/>
	<path d="M313.1,146.1c19.4,33.5,38.7,67.1,58.1,100.6c7.2,12.4,4,24.4-8.4,31.5c-8.2,4.8-16.4,9.5-24.6,14.2
		c-12.3,7.1-26.1,1.9-31.4-10.7c-4.3-10.3-9.5-20.2-14.2-30.3c-5.7-12.1-11.2-24.3-16.9-36.4c-1.3-2.9-2.9-5.7-4-8.7
		c-1.3-3.3-3.5-4.8-7.1-5.3c-12.3-1.7-23.7-5.8-34.4-12c-12.5-7.2-22.6-17-29.6-29.6c-9-16.1-12.2-33.6-11.2-51.9
		c1.2-20.5,6.8-39.5,19.1-56.3c4.4-6,9.6-11.3,16.2-15.1c10.8-6.1,23.2-2.9,29.5,7.9C273.9,78.1,293.5,112.1,313.1,146.1
		C313.1,146.1,313.1,146.1,313.1,146.1z M298.7,154.8C298.7,154.8,298.7,154.8,298.7,154.8c-19.5-33.7-38.9-67.4-58.4-101.2
		c-2.5-4.3-4.5-5.1-8.4-2c-4.1,3.4-8.3,7.1-11.2,11.5c-11.9,17.8-16.6,37.7-14.3,58.9c2.5,23.8,13.1,42.8,35.2,54.1
		c11.4,5.8,23.6,8.3,36.1,9.9c2,0.2,3.3,1,4.1,2.9c5,10.8,10,21.6,15,32.3c8.4,18,16.8,36,25.3,53.9c1.8,3.9,4.2,4.6,8,2.5
		c7.9-4.5,15.9-9.1,23.8-13.7c5-2.9,5.4-4.3,2.4-9.4C337.1,221.3,317.9,188,298.7,154.8z"/>
</g>
</svg>
