<?xml version="1.0" encoding="utf-8"?>
<!-- Generator: Adobe Illustrator 19.0.0, SVG Export Plug-In . SVG Version: 6.00 Build 0)  -->
<svg version="1.1" id="Layer_1" xmlns="http://www.w3.org/2000/svg" xmlns:xlink="http://www.w3.org/1999/xlink" x="0px" y="0px"
	 viewBox="0 0 400 400" style="enable-background:new 0 0 400 400;" xml:space="preserve">
<style type="text/css">
	.st0{opacity:0.1;}
</style>
<g id="XMLID_16_" class="st0">
	<path id="XMLID_21_" d="M190,55.3c1.4,0,4-0.1,6.7,0c2.3,0.1,3.4,0.9,3.5,3.6c0.9,16.3,6.7,30.8,17.4,43.1
		c13.5,15.6,30.5,24,51.1,25.2c3.1,0.2,4,1.3,4.2,4.3c1.6,34.3,28.1,63.1,62.1,67.6c1,0.1,2,0.3,2.9,0.5c6.2,0.7,6.2,0.7,6.8,6.8
		c1.1,12.1-0.9,23.9-6.2,34.7c-7.2,14.9-14.7,29.7-22.4,44.4c-6.8,13.1-16.9,23.2-30,30c-15.3,8-30.8,15.9-46.4,23.3
		c-13.1,6.2-27.2,7-41.4,4.6c-14.1-2.3-28.3-4.4-42.5-6.7c-16.2-2.7-30-10.2-41.6-21.7c-9.9-9.9-19.9-19.8-29.8-29.7
		c-12.2-12.2-19.2-27-21.9-44c-2.1-13.5-4.2-27.1-6.2-40.5c-2.5-15.7-0.4-30.8,6.7-45.1c6.8-13.7,13.7-27.5,20.8-41
		c7.4-14.4,18.8-24.9,33.2-32.3c13.5-6.9,26.9-13.9,40.5-20.5C167.2,57.2,177.6,54.7,190,55.3z M177,83.2c-2.4,0.8-4.6,1.3-6.7,2.4
		c-15.1,7.6-30.2,15.1-45.1,23c-7.7,4-13.4,10.5-17.4,18.2c-6.9,13.1-13.6,26.3-20.2,39.5c-4.6,9.3-6.7,19.1-5,29.5
		c2.3,13.7,4.6,27.4,6.5,41.2c1.5,10.9,5.6,20.6,13.4,28.5c10.7,10.8,21.5,21.6,32.4,32.4c6.4,6.4,14.3,10.5,23.1,12.1
		c13.8,2.5,27.7,4.2,41.4,6.8c13.7,2.6,26.2,0.5,38.3-6.2c11.4-6.3,23.2-11.9,34.7-17.8c8.8-4.5,15.6-11.1,20.2-19.9
		c6.8-13.1,13.5-26.3,20.2-39.5c1.7-3.3,2.8-6.8,4.2-10.4c-1.1-0.5-1.5-0.7-2.1-0.9c-33.2-11.6-55.1-34.1-65.3-67.7
		c-0.8-2.6-2.3-3.2-4.6-4c-27.6-8.7-48.3-25.5-61.3-51.5C181.2,93.8,179.3,88.7,177,83.2z"/>
	<path id="XMLID_12_" d="M272.3,254.3c0,9.9-8,17.9-17.8,17.9c-9.6,0-17.8-8.1-17.8-17.6c-0.1-10.1,8-18.4,17.8-18.3
		C264.2,236.3,272.3,244.5,272.3,254.3z"/>
	<path id="XMLID_11_" d="M163.5,163.6c0,9.8-8.1,18-17.9,17.9c-9.8,0-17.8-8-17.8-18c0-9.7,8-17.8,17.9-18
		C155.3,145.5,163.5,153.7,163.5,163.6z"/>
	<path id="XMLID_10_" d="M145.9,254.5c-0.1-9.7,8-18.1,17.7-18.2c9.7-0.1,18.3,8.4,18.2,18.1c-0.1,9.7-8.3,17.8-18.1,17.8
		C154.2,272.2,146,264.1,145.9,254.5z"/>
	<path id="XMLID_9_" d="M200.3,199.7c0.1-9.5,8.6-18,18.1-17.8c9.6,0.1,17.8,8.4,17.8,17.8c0,9.8-8.3,18.1-18.2,18.1
		C208.5,217.8,200.2,209.3,200.3,199.7z"/>
</g>
</svg>
