<?xml version="1.0" encoding="utf-8"?>
<!-- Generator: Adobe Illustrator 19.0.0, SVG Export Plug-In . SVG Version: 6.00 Build 0)  -->
<svg version="1.1" id="Layer_1" xmlns="http://www.w3.org/2000/svg" xmlns:xlink="http://www.w3.org/1999/xlink" x="0px" y="0px"
	 viewBox="0 0 288 288.1" style="enable-background:new 0 0 288 288.1;" xml:space="preserve">
<g>
	<path d="M81,288c-0.6,0-1.2,0-1.8,0c0-2.6,0-5.2,0-8.1c-4.7,2.9-9,5.5-13.3,8.1c-1.3,0-2.6,0-4,0c-4.2-2.6-8.4-5.3-13-8.1
		c0,3,0,5.5,0,8.1c-0.6,0-1.2,0-1.8,0c0-2.6,0-5.2,0-8.1c-3.2,1.9-6.1,3.6-8.9,5.3c-1.4,0.9-2.7,1.8-4.1,2.7c-1.4,0-2.9,0-4.3,0
		c-2.6-1.6-5.1-3.2-7.7-4.8c-1.7-1-3.3-2-5.3-3.2c0,2.9,0,5.5,0,8c-0.6,0-1.2,0-1.8,0c0-2.6,0-5.2,0-8c-2.6,1.6-4.8,2.8-7,4.2
		c-2,1.2-4,2.6-6,3.8c-0.7-0.4-2.3,1.1-2.2-1.1c4.7-2.8,9.3-5.6,14.3-8.6c-4.9-2.9-9.6-5.6-14.3-8.3c0-13.6,0-27.1,0-40.7
		c4.7-2.8,9.3-5.6,14.3-8.6c-4.9-2.9-9.6-5.6-14.3-8.3c0-13.6,0-27.1,0-40.7c4.7-2.8,9.3-5.6,14.3-8.6c-4.9-2.9-9.6-5.6-14.3-8.3
		c0-13.6,0-27.1,0-40.7c4.7-2.8,9.3-5.6,14.3-8.6c-4.9-2.9-9.6-5.6-14.3-8.4c0-13.6,0-27.1,0-40.7c4.7-2.8,9.3-5.6,14.3-8.6
		C9.4,45.1,4.7,42.3,0,39.6C0,26.4,0,13.2,0,0c0.5,0,1,0,1.4,0C1.3,0.7,1,1.3,0.9,2c0,4.6,0,9.2,0,13.8c0,0.5,0.1,1,0.1,1.7
		c4.6-2.7,8.9-5.3,13.3-8c0.4-0.3,0.7-1.1,0.8-1.6c0.1-2.6,0-5.3,0.1-7.9c0.6,0,1.2,0,1.8,0c0,2.5,0,5,0,7.5c0,1.1,0.3,1.7,1.2,2.3
		c3.9,2.3,7.8,4.7,11.7,7c0.3,0.2,0.7,0.3,1.2,0.5c0-5.5,0-10.9,0-16.2c0-0.4-0.3-0.8-0.4-1.1c1,0,1.9,0,2.9,0
		c-0.2,0.7-0.6,1.3-0.6,2c0,4.6,0,9.2,0,13.8c0,0.5,0.1,1,0.1,1.7c4.6-2.8,9.1-5.4,13.4-8.1c0.4-0.3,0.6-1.1,0.6-1.7
		c0.1-2.6,0.1-5.1,0.1-7.7c0.6,0,1.2,0,1.8,0c0,2.6,0,5.2-0.1,7.7c0,1,0.3,1.6,1.2,2.1c3.8,2.2,7.6,4.5,11.4,6.8
		c0.4,0.3,0.9,0.4,1.5,0.8c0-5.6,0-10.8,0-16.1c0-0.4-0.3-0.9-0.4-1.3c1,0,1.9,0,2.9,0c-0.2,0.6-0.6,1.3-0.6,1.9
		c-0.1,4.7,0,9.5,0,14.2c0,0.4,0.1,0.8,0.2,1.3c4.6-2.7,9-5.4,13.4-8.1c0.4-0.3,0.6-1.1,0.6-1.7c0.1-2.6,0.1-5.2,0.1-7.7
		c0.6,0,1.2,0,1.8,0c0,1.8,0.1,3.6-0.1,5.4c-0.4,2.8,0.7,4.4,3.2,5.7c3.7,1.9,7.2,4.2,11,6.5c0-5.7,0-11.2,0-16.6
		c0-0.3-0.2-0.7-0.4-1c1,0,1.9,0,2.9,0c-0.2,0.7-0.6,1.4-0.6,2.1c-0.1,4.6,0,9.1,0,13.7c0,0.5,0.1,1,0.1,1.8
		c4.6-2.8,9.1-5.4,13.4-8.1c0.4-0.3,0.6-1.1,0.6-1.7c0.1-2.6,0.1-5.1,0.2-7.7c0.6,0,1.2,0,1.8,0c0,3,0,6,0,8.9c2,1.3,4,2.6,6,3.8
		c0.2,0.1,0.4,0.2,0.6,0.4c2.4,1.4,4.8,2.9,7.4,4.4c0-5.8,0-11.3,0-16.8c0-0.3-0.2-0.5-0.3-0.8c1,0,1.9,0,2.9,0
		c-0.2,0.4-0.7,0.8-0.7,1.1c0,5.4,0,10.7,0,16.1c0.3,0,0.4,0.1,0.5,0c4.3-2.6,8.6-5.1,12.9-7.7c0.3-0.2,0.7-0.7,0.7-1.1
		c0-2.8-0.1-5.6-0.1-8.4c0.6,0,1.2,0,1.8,0c0,2.4,0.2,4.8,0.1,7.2c0,1.3,0.3,2.2,1.6,2.9c3.7,2.1,7.2,4.3,10.8,6.4
		c0.5,0.3,1.1,0.6,1.8,1c0-0.7,0.1-1.1,0.1-1.5c0-4.9,0-9.7,0-14.6c0-0.5-0.4-0.9-0.7-1.4c1,0,1.9,0,2.9,0c-0.1,0.7-0.4,1.5-0.4,2.2
		c0,4,0,8,0,12c0,1,0,2,0,3.3c4.8-2.9,9.2-5.5,13.5-8.2c0.4-0.2,0.6-0.9,0.6-1.3c0-2.7,0-5.4-0.1-8.1c0.6,0,1.2,0,1.8,0
		c0,2.5,0.1,5,0.1,7.5c0,1.1,0.3,1.7,1.3,2.3c3.9,2.3,7.7,4.6,11.6,6.9c0.4,0.2,0.8,0.4,1.4,0.7c0-5.6,0-10.9,0-16.2
		c0-0.4-0.4-0.8-0.6-1.2c1,0,1.9,0,2.9,0c-0.1,0.7-0.4,1.4-0.4,2.1c0,3.7,0,7.3,0,11c0,1.4,0,2.8,0,4.6c4.8-2.9,9.2-5.5,13.5-8.2
		c0.3-0.2,0.6-0.9,0.6-1.3c0-2.7,0-5.4,0-8.1c0.6,0,1.2,0,1.8,0c0,2.5,0.1,4.9,0,7.4c0,1.2,0.3,2,1.4,2.6c3.7,2.1,7.3,4.3,10.9,6.5
		c0.5,0.3,1.1,0.6,1.9,1c0-5.7,0-11.1,0-16.4c0-0.4-0.4-0.7-0.6-1.1c1,0,1.9,0,2.9,0c-0.2,0.8-0.4,1.6-0.4,2.4c0,3.7,0,7.4,0,11.1
		c0,1.2,0,2.4,0,4c4.8-2.8,9.2-5.5,13.5-8.1c0.4-0.2,0.6-1,0.6-1.5c0-2.6,0-5.3,0-7.9c0.6,0,1.2,0,1.8,0c0,2.5,0.1,5,0,7.5
		c0,1.2,0.4,1.8,1.4,2.4c3.5,2,6.9,4.1,10.3,6.2c0.7,0.4,1.5,0.9,2.5,1.4c0-5.7,0-11,0-16.3c0-0.4-0.4-0.8-0.6-1.3c1,0,1.9,0,2.9,0
		c-0.2,0.8-0.5,1.6-0.5,2.4c0,4.1,0,8.3,0,12.4c0,0.8,0,1.6,0,2.4c0.4,0,0.5,0,0.6,0c4.3-2.5,8.6-5.1,12.8-7.7
		c0.4-0.3,0.8-1,0.8-1.6c0.1-2.6,0-5.3,0-7.9c0.6,0,1.2,0,1.8,0c0,2.6,0.1,5.1,0,7.7c0,1,0.3,1.6,1.2,2.1c2.5,1.5,5,3,7.5,4.5
		c1.7,1,3.4,2,5.2,3.1c0.1-0.4,0.2-0.5,0.2-0.7c0-5.1,0-10.2,0-15.2c0-0.5-0.3-1-0.5-1.5c0.5,0,1,0,1.4,0c0,13.2,0,26.4,0,39.6
		c-4.7,2.7-9.4,5.5-14.3,8.4c5,3,9.7,5.8,14.3,8.6c0,13.6,0,27.1,0,40.7c-4.7,2.7-9.4,5.5-14.3,8.4c5,3,9.7,5.8,14.3,8.6
		c0,13.6,0,27.1,0,40.7c-4.7,2.7-9.4,5.5-14.3,8.4c5,3,9.7,5.8,14.3,8.6c0,13.6,0,27.1,0,40.7c-4.7,2.7-9.4,5.5-14.3,8.3
		c5,3,9.7,5.8,14.3,8.6c0,13.6,0,27.1,0,40.7c-4.7,2.7-9.4,5.5-14.3,8.3c5,3,9.7,5.8,14.3,8.6c0.2,2.1-1.5,0.6-2.2,1.1
		c-1.3-0.9-2.6-1.8-4-2.6c-2.9-1.8-5.8-3.5-9-5.4c0,2.9,0,5.5,0,8c-0.6,0-1.2,0-1.8,0c0-2.6,0-5.2,0-8c-2.3,1.4-4.2,2.5-6,3.7
		c-2.3,1.4-4.6,2.9-6.9,4.4c-1.4,0-2.9,0-4.3,0c-1.1-0.7-2.1-1.5-3.2-2.2c-3.1-1.9-6.3-3.8-9.8-5.9c0,2.9,0,5.5,0,8
		c-0.6,0-1.2,0-1.8,0c0-2.6,0-5.2,0-8c-1.5,0.9-2.7,1.6-3.9,2.3c-3,1.9-6.1,3.8-9.1,5.7c-1.4,0-2.9,0-4.3,0
		c-1.2-0.8-2.3-1.6-3.5-2.4c-3-1.9-6.1-3.7-9.5-5.7c0,2.9,0,5.5,0,8c-0.6,0-1.2,0-1.8,0c0-2.5,0-5.1,0-8.1c-4.5,2.8-8.7,5.4-13,8.1
		c-1.3,0-2.6,0-4,0c-4.3-2.6-8.6-5.3-13.3-8.1c0,3,0,5.6,0,8.1c-0.6,0-1.2,0-1.8,0c0-2.5,0-5.1,0-8c-4.5,2.8-8.7,5.4-13,8
		c-1.3,0-2.6,0-4,0c-4.3-2.6-8.6-5.3-13.3-8.2c0,3.1,0,5.6,0,8.2c-0.6,0-1.2,0-1.8,0c0-2.5,0-5.1,0-8c-4.5,2.7-8.7,5.4-13,8
		c-1.3,0-2.6,0-4,0c-4.3-2.6-8.6-5.3-13-8c0,2.9,0,5.4,0,8c-0.6,0-1.2,0-1.8,0c0-2.6,0-5.2,0-8.2c-4.8,2.9-9.1,5.6-13.3,8.2
		c-1.3,0-2.6,0-4,0c-4.2-2.6-8.5-5.3-13-8C81,282.9,81,285.4,81,288z M79.1,49.6c-4.8,2.9-9.2,5.5-13.6,8.2
		c-0.4,0.3-0.6,1.1-0.6,1.7c-0.1,2.9,0,5.9,0,8.8c0,2.2,0,4.4,0,6.5c0.4,0,0.5,0,0.6,0c4.3-2.6,8.6-5.1,12.9-7.8
		c0.4-0.2,0.7-1,0.7-1.5C79.2,60.4,79.1,55.2,79.1,49.6z M64.9,190.3c0.8-0.4,1.3-0.6,1.8-0.9c3-1.8,5.8-3.8,9-5.3
		c2.9-1.4,3.8-3.3,3.6-6.4c-0.3-4.1-0.1-8.3-0.1-12.8c-3.4,2-6.4,4.2-9.6,5.7c-3.9,1.8-5.2,4.4-4.7,8.5
		C65.2,182.6,64.9,186.3,64.9,190.3z M208.9,46.4c3.8-2.3,7.1-4.5,10.7-6.3c2.8-1.4,3.9-3.2,3.6-6.4c-0.3-4.1-0.1-8.3-0.1-12.6
		c-0.4,0.1-0.5,0.1-0.7,0.1c-4.3,2.5-8.5,5.1-12.8,7.7c-0.4,0.2-0.7,0.8-0.7,1.3C208.9,35.4,208.9,40.7,208.9,46.4z M78.9,161.4
		c0.1-0.3,0.2-0.5,0.2-0.7c0-5,0.1-10.1,0-15.1c0-0.6-0.6-1.4-1.1-1.8c-3.8-2.4-7.7-4.7-11.5-7c-0.4-0.3-0.9-0.4-1.5-0.7
		c0,5.5,0,10.8,0.1,16.1c0,0.5,0.7,1.2,1.2,1.5c3.7,2.3,7.5,4.5,11.2,6.8C77.8,160.8,78.4,161.1,78.9,161.4z M79.1,107.4
		c-0.4,0.2-0.7,0.2-0.9,0.3c-4.2,2.5-8.4,5-12.5,7.5c-0.5,0.3-0.9,1.2-0.9,1.9c-0.1,4.7,0,9.4,0,14c0,0.4,0.1,0.9,0.1,1.3
		c0.3,0,0.4,0,0.5-0.1c2.8-1.7,5.5-3.7,8.5-5c4.2-1.8,5.8-4.6,5.2-9.2C78.8,114.7,79.1,111.1,79.1,107.4z M64.9,20.8
		c0,5.6,0,10.7,0,15.9c0,0.6,0.5,1.4,1.1,1.8c3.9,2.4,7.9,4.8,11.8,7.2c0.3,0.2,0.7,0.3,1.3,0.5c0-4-0.3-7.9,0.1-11.7
		c0.3-3.8-0.6-6.4-4.4-7.8c-1.7-0.6-3.2-1.9-4.8-2.8C68.4,22.9,66.8,22,64.9,20.8z M65.1,193.7c-0.1,0.4-0.2,0.5-0.2,0.7
		c0,5.1,0,10.2,0,15.3c0,0.6,0.5,1.3,1,1.6c4,2.5,8,4.8,12,7.2c0.3,0.2,0.7,0.3,1.2,0.4c0-4.6-0.2-9.1,0.1-13.5
		c0.1-2.5-0.6-3.9-2.8-5C72.6,198.4,68.9,196,65.1,193.7z M223.1,248c0-5.7,0-11-0.1-16.3c0-0.5-0.6-1.1-1.1-1.4
		c-3.9-2.4-7.8-4.7-11.7-7c-0.4-0.2-0.8-0.4-1.3-0.6c0,5.4,0,10.7,0,15.9c0,0.5,0.3,1.2,0.7,1.4C214,242.5,218.4,245.1,223.1,248z
		 M191,75.1c0.1-0.5,0.1-0.8,0.1-1c0-5,0-9.9,0-14.9c0-0.6-0.6-1.4-1.1-1.8c-3.9-2.4-7.9-4.8-11.8-7.1c-0.3-0.2-0.7-0.3-1.2-0.5
		c0,5.5,0,10.7,0,16c0,0.5,0.5,1.2,1,1.5c2.7,1.7,5.4,3.3,8.1,4.9C187.7,73.1,189.2,74.1,191,75.1z M64.9,78.4c0,5.7,0,11,0,16.3
		c0,0.5,0.6,1.1,1.1,1.4c3.1,2,6.3,3.8,9.5,5.7c1.1,0.7,2.2,1.3,3.6,2.1c0-5.7,0-11.1,0-16.4c0-0.4-0.4-0.8-0.8-1.1
		C74,83.8,69.6,81.2,64.9,78.4z M111.1,49.6c-4.8,2.9-9.2,5.5-13.7,8.2c-0.3,0.2-0.5,0.7-0.5,1c0,5.3,0,10.6,0,16
		c0.3,0,0.5,0,0.7-0.1c4.3-2.5,8.5-5.1,12.8-7.7c0.4-0.2,0.7-0.8,0.7-1.3C111.1,60.6,111.1,55.3,111.1,49.6z M208.9,164.8
		c0,5.7,0,11,0,16.3c0,0.5,0.6,1.1,1.1,1.4c3.9,2.4,7.8,4.7,11.7,7.1c0.4,0.2,0.8,0.4,1.4,0.6c0-5.5,0-10.8,0-16
		c0-0.4-0.4-1-0.7-1.3C218,170.2,213.6,167.6,208.9,164.8z M47.1,104c0-5.7,0-11,0-16.3c0-0.4-0.4-1-0.8-1.2
		c-4.2-2.6-8.4-5.1-12.6-7.6c-0.2-0.1-0.4-0.1-0.8-0.2c0,4.4,0.2,8.7-0.1,12.9c-0.2,2.9,0.5,4.7,3.3,5.9c1.9,0.8,3.5,2.1,5.3,3.1
		C43.2,101.6,45,102.7,47.1,104z M33.2,21c-0.2,0.3-0.3,0.4-0.3,0.5c0,5.2-0.1,10.3,0,15.5c0,0.5,0.6,1.3,1.1,1.6
		c3.4,2.1,6.9,4.2,10.3,6.2c0.8,0.5,1.7,1,2.8,1.6c0-5.5,0-10.7-0.1-16c0-0.6-0.6-1.4-1.2-1.7c-3.6-2.2-7.2-4.4-10.8-6.5
		C34.5,21.8,33.8,21.4,33.2,21z M144.9,46.4c4.1-2.4,7.8-4.8,11.6-6.9c2.1-1.1,2.8-2.5,2.7-4.8c-0.2-4.5-0.1-9.1-0.1-13.6
		c-0.3,0-0.4,0-0.5,0c-4.3,2.6-8.6,5.1-12.9,7.7c-0.4,0.2-0.7,0.8-0.7,1.3C144.9,35.4,144.9,40.7,144.9,46.4z M223.1,78.4
		c-3.5,2.1-6.5,4.3-9.9,5.8c-3.7,1.7-4.8,4.1-4.4,8c0.4,3.8,0.1,7.6,0.1,11.4c0.3,0,0.5,0.1,0.5,0.1c4.3-2.6,8.7-5.1,13-7.7
		c0.4-0.2,0.7-1,0.7-1.5C223.1,89.2,223.1,84,223.1,78.4z M32.9,136c0,5.6,0,10.8,0,15.9c0,0.6,0.6,1.4,1.1,1.8
		c3.9,2.4,7.8,4.7,11.7,7.1c0.4,0.2,0.8,0.4,1.4,0.7c0-5.5,0-10.8,0-16c0-0.5-0.5-1.2-1-1.5c-2.1-1.3-4.2-2.6-6.3-3.8
		C37.6,138.8,35.4,137.5,32.9,136z M79.1,276.8c0-5.7,0-10.9,0-16.1c0-0.5-0.4-1.2-0.9-1.5c-4.2-2.6-8.4-5.1-12.6-7.6
		c-0.2-0.1-0.4-0.1-0.7-0.1c0,3.5,0,6.9,0,10.3c0,2.1-0.6,4.7,0.4,6.3c0.9,1.6,3.4,2.3,5.1,3.4C73.2,273.2,76,274.9,79.1,276.8z
		 M223.1,75.2c0-5.4,0-10.5,0-15.6c0-1.1-0.4-1.7-1.3-2.3c-3.8-2.2-7.6-4.5-11.4-6.8c-0.4-0.3-0.9-0.4-1.5-0.7
		c0,3.8,0.3,7.4-0.1,10.8c-0.5,4.5,0.7,7.5,5.1,9.1c1.3,0.5,2.5,1.5,3.7,2.2C219.4,73,221.1,74,223.1,75.2z M223.1,132.8
		c0-5.6,0-10.8,0-15.9c0-0.6-0.6-1.4-1.1-1.8c-3.9-2.4-7.8-4.7-11.7-7.1c-0.4-0.2-0.8-0.4-1.4-0.6c0,5.5,0,10.7,0,16
		c0,0.5,0.5,1.2,1,1.5c2.8,1.8,5.6,3.4,8.5,5.1C219.9,130.8,221.3,131.7,223.1,132.8z M32.9,132.6c0.5-0.2,0.7-0.2,0.9-0.3
		c4.2-2.5,8.4-5,12.5-7.5c0.5-0.3,0.8-1.2,0.9-1.9c0.1-3.8,0-7.7,0-11.5c0-1.3,0-2.6,0-4.1c-4.7,2.8-9.2,5.5-13.5,8.2
		c-0.4,0.2-0.7,1-0.7,1.5C32.9,122,32.9,127.1,32.9,132.6z M32.9,75.2c4.8-2.9,9.2-5.5,13.5-8.2c0.4-0.3,0.7-1.1,0.7-1.6
		c0.1-4,0-8,0-12c0-1.2,0-2.3,0-3.8c-4.7,2.8-9.1,5.5-13.5,8.1c-0.3,0.2-0.7,0.7-0.7,1.1C32.9,64.1,32.9,69.5,32.9,75.2z
		 M191.1,20.8c-4.7,2.8-9.1,5.4-13.4,8.1c-0.5,0.3-0.8,1.2-0.8,1.8c-0.1,4.8,0,9.6,0,14.4c0,0.4,0.1,0.7,0.2,1.3
		c4.6-2.8,9-5.4,13.4-8.1c0.3-0.2,0.6-0.8,0.6-1.1C191.1,31.8,191.1,26.5,191.1,20.8z M96.9,132.8c4.8-2.9,9.2-5.5,13.5-8.2
		c0.4-0.3,0.6-1.1,0.6-1.7c0.1-2.7,0-5.4,0-8.1c0-2.4,0-4.9,0-7.7c-4.8,2.9-9.3,5.6-13.8,8.3c-0.2,0.1-0.4,0.6-0.4,0.9
		C96.9,121.7,96.9,127,96.9,132.8z M32.9,190.4c4.5-2.7,8.7-5.3,13-7.7c1-0.6,1.3-1.2,1.3-2.3c-0.1-4.7,0-9.4,0-14
		c0-0.4-0.1-0.9-0.2-1.4c-4.5,2.7-8.8,5.3-13.1,7.9c-0.4,0.3-0.9,0.9-0.9,1.4C32.9,179.4,32.9,184.7,32.9,190.4z M176.9,222.4
		c0,5.7,0,10.9,0.1,16.1c0,0.6,0.7,1.4,1.2,1.7c3.5,2.2,7.1,4.3,10.6,6.4c0.7,0.4,1.4,0.8,2.4,1.4c0-5-0.1-9.6,0.1-14.2
		c0.1-2.1-0.6-3.3-2.4-4.4C184.8,227.3,181,224.9,176.9,222.4z M223.1,136c-4.8,2.8-9.2,5.5-13.6,8.2c-0.4,0.2-0.6,1-0.6,1.5
		c-0.1,2.2,0,4.4,0,6.7c0,3,0,5.9,0,8.9c0.3,0,0.5,0.1,0.6,0c4.3-2.6,8.6-5.1,12.9-7.8c0.3-0.2,0.7-0.7,0.7-1.1
		C223.1,147,223.1,141.7,223.1,136z M32.9,193.6c0,5.6,0,10.9,0.1,16.1c0,0.6,0.7,1.4,1.2,1.7c3.5,2.2,7.1,4.3,10.6,6.4
		c0.7,0.4,1.4,0.8,2.4,1.3c0-3.6,0-6.8,0-10c0-2.3,0.7-5.1-0.4-6.9c-1-1.8-3.7-2.6-5.7-3.8C38.4,196.9,35.8,195.3,32.9,193.6z
		 M176.9,107.2c0,5.8,0,11.1,0,16.5c0,0.4,0.6,1,1.1,1.2c3.9,2.4,7.8,4.7,11.7,7c0.4,0.2,0.8,0.4,1.4,0.6c0-5.5,0-10.8,0-16
		c0-0.4-0.4-1-0.7-1.3C186,112.6,181.6,110,176.9,107.2z M47.1,222.4c-4.8,2.9-9.2,5.5-13.7,8.2c-0.4,0.2-0.6,1-0.6,1.5
		c0,4.8,0,9.6,0,14.4c0,0.4,0.1,0.7,0.2,1.3c4.5-2.7,8.9-5.3,13.2-8c0.4-0.2,0.7-0.9,0.7-1.4C47.1,233.2,47.1,228,47.1,222.4z
		 M191.1,78.4c-4.5,2.7-8.7,5.3-12.9,7.7c-1,0.6-1.3,1.3-1.3,2.4c0.1,4.4,0,8.9,0,13.3c0,0.6,0,1.2,0,2.1c4.8-2.9,9.1-5.5,13.5-8.1
		c0.4-0.2,0.7-0.8,0.7-1.3C191.1,89.3,191.1,84.1,191.1,78.4z M240.9,46.1c0.3,0,0.5,0,0.7-0.1c4.3-2.5,8.5-5.1,12.8-7.7
		c0.5-0.3,0.7-1.2,0.7-1.8c0.1-4.7,0-9.5,0-14.2c0-0.4-0.1-0.8-0.2-1.4c-4.6,2.8-9.1,5.4-13.5,8.1c-0.3,0.2-0.5,0.6-0.5,0.9
		C240.9,35.3,240.9,40.6,240.9,46.1z M191.1,190.4c0-5.7,0-10.9,0-16.1c0-0.6-0.6-1.3-1.1-1.6c-2.6-1.7-5.3-3.3-8-4.9
		c-1.6-1-3.2-1.9-5.2-3c0,4,0.3,7.7-0.1,11.3c-0.5,4.3,0.9,7,4.9,8.8C184.9,186.3,187.8,188.4,191.1,190.4z M159.1,78.4
		c-4.7,2.8-9.1,5.4-13.4,8.1c-0.5,0.3-0.8,1.2-0.8,1.8c-0.1,3.1,0,6.1,0,9.2c0,2.1,0,4.1,0,6.6c4.8-2.9,9.2-5.5,13.7-8.3
		c0.3-0.2,0.5-0.7,0.5-1C159.1,89.4,159.1,84.1,159.1,78.4z M208.9,219.2c4.1-2.5,7.8-4.8,11.6-6.9c2.1-1.1,2.8-2.4,2.7-4.8
		c-0.2-4.5-0.1-9.1-0.1-14c-4.8,2.9-9.3,5.6-13.8,8.3c-0.3,0.2-0.5,0.7-0.5,1.1C208.9,208.2,208.9,213.5,208.9,219.2z M176.9,276.7
		c0.8-0.4,1.3-0.7,1.8-1c3.7-2.2,7.4-4.5,11.1-6.6c1-0.6,1.3-1.3,1.3-2.4c-0.1-4.6,0-9.1,0-13.7c0-0.5-0.1-1-0.1-1.7
		c-4.6,2.7-9,5.3-13.3,8c-0.4,0.3-0.8,0.9-0.8,1.4C176.9,265.9,176.9,271.1,176.9,276.7z M176.8,161.6c3.6-2.1,6.6-4.2,9.9-5.8
		c3.4-1.6,5.3-3.8,4.4-7.7c-0.1-0.2,0-0.5,0-0.7c0-3.7,0-7.4,0-11.4c-4.8,2.9-9.2,5.6-13.7,8.3c-0.3,0.2-0.6,0.7-0.6,1
		C176.8,150.5,176.8,155.9,176.8,161.6z M47.1,276.8c0-5.7,0-11-0.1-16.2c0-0.5-0.6-1.2-1.2-1.6c-3.9-2.4-7.9-4.8-11.9-7.2
		c-0.3-0.2-0.7-0.3-1.2-0.4c0,5.3,0,10.5,0,15.7c0,0.5,0.2,1.3,0.6,1.5C37.9,271.3,42.3,273.9,47.1,276.8z M255.1,78.4
		c-4.7,2.8-9.1,5.5-13.5,8.2c-0.3,0.2-0.6,0.7-0.6,1.1c0,5.3,0,10.6,0,15.9c0.3,0,0.4,0.1,0.5,0c4.3-2.6,8.7-5.1,12.9-7.7
		c0.4-0.2,0.7-0.8,0.7-1.3C255.1,89.3,255.1,84.1,255.1,78.4z M96.9,190.1c0.4-0.1,0.6-0.1,0.7-0.1c4.2-2.5,8.5-5,12.6-7.6
		c0.5-0.3,0.8-1.3,0.8-1.9c0.1-4.3,0-8.5,0-12.8c0-0.9,0-1.7,0-2.9c-4.7,2.8-9.1,5.4-13.4,8.1c-0.4,0.3-0.8,0.9-0.8,1.4
		C96.9,179.5,96.9,184.7,96.9,190.1z M240.9,218.9c0.4-0.1,0.6-0.2,0.8-0.3c4.2-2.5,8.4-4.9,12.5-7.5c0.5-0.3,0.9-1.2,0.9-1.9
		c0.1-3.4,0-6.8,0-10.2c0-1.7,0-3.4,0-5.4c-4.7,2.8-9.1,5.5-13.5,8.1c-0.3,0.2-0.7,0.7-0.7,1.1C240.9,208.2,240.9,213.5,240.9,218.9
		z M191.1,193.6c-4.8,2.9-9.2,5.5-13.6,8.2c-0.4,0.2-0.6,1.1-0.6,1.7c0,4.6,0,9.2,0,13.9c0,0.5,0.1,1,0.1,1.7c4.6-2.8,9-5.4,13.3-8
		c0.4-0.2,0.8-0.9,0.8-1.4C191.1,204.4,191.1,199.2,191.1,193.6z M96.9,193.6c0,5.7,0,11.1,0.1,16.5c0,0.5,0.7,1,1.2,1.3
		c3.6,2.2,7.2,4.3,10.8,6.5c0.6,0.4,1.3,0.7,2.2,1.2c0-4.5-0.3-8.6,0.1-12.7c0.3-3.3-0.8-5.1-3.7-6.6
		C103.9,198.1,100.6,195.8,96.9,193.6z M144.9,164.8c0,3.9,0.4,7.4-0.1,10.8c-0.6,4.8,1,7.7,5.4,9.6c3,1.3,5.7,3.3,8.9,5.2
		c0-5.7,0-11.1,0-16.5c0-0.3-0.3-0.8-0.6-1C154,170.3,149.6,167.6,144.9,164.8z M145.1,222.5c-0.1,0.3-0.2,0.5-0.2,0.8
		c0,5.1,0,10.2,0,15.3c0,0.5,0.5,1.2,1,1.5c3.8,2.3,7.6,4.6,11.4,6.9c0.5,0.3,1.1,0.6,1.8,1c0-5.6,0-10.8,0-16
		c0-0.5-0.4-1.2-0.8-1.4C154,227.8,149.6,225.2,145.1,222.5z M96.9,248c3.7-2.2,6.9-4.5,10.4-6.1c3.2-1.5,4.2-3.5,3.9-7
		c-0.3-4-0.1-8.1-0.1-12.5c-4.7,2.8-9.2,5.5-13.6,8.2c-0.3,0.2-0.6,0.8-0.6,1.2C96.9,237,96.9,242.3,96.9,248z M240.9,276.7
		c0.8-0.4,1.3-0.7,1.8-1c3.6-2.2,7.3-4.4,10.9-6.5c1.1-0.6,1.5-1.3,1.5-2.5c-0.1-4.6,0-9.2,0-13.8c0-0.4-0.1-0.9-0.1-1.5
		c-4.5,2.7-8.9,5.3-13.2,8c-0.4,0.3-0.8,0.9-0.8,1.4C240.9,265.9,240.9,271.1,240.9,276.7z M240.9,49.6c0,5.7,0,11,0,16.3
		c0,0.5,0.6,1.1,1.1,1.4c3.9,2.4,7.8,4.7,11.7,7c0.4,0.2,0.8,0.3,1.4,0.6c0-5.5,0-10.8,0-16c0-0.4-0.4-1-0.8-1.3
		C250,55,245.6,52.4,240.9,49.6z M111.1,276.8c0-4-0.4-7.7,0.1-11.2c0.6-4.5-1.1-7.2-5.1-9c-3.1-1.4-5.9-3.5-9.2-5.4
		c0,5.7,0,11,0,16.3c0,0.4,0.3,0.9,0.7,1.1C102,271.3,106.4,273.9,111.1,276.8z M255.1,136c-4.8,2.9-9.2,5.5-13.6,8.3
		c-0.4,0.2-0.5,1.1-0.5,1.7c0,4.6,0,9.2,0,13.8c0,0.5,0.1,1,0.1,1.7c4.6-2.8,9-5.4,13.3-8c0.4-0.2,0.7-0.8,0.7-1.3
		C255.1,146.9,255.1,141.7,255.1,136z M208.9,276.6c0.7-0.4,1.1-0.5,1.5-0.8c3.8-2.3,7.6-4.6,11.4-6.8c1-0.6,1.3-1.3,1.3-2.4
		c-0.1-4.6,0-9.2,0-13.9c0-0.4-0.1-0.9-0.1-1.5c-4.6,2.8-9,5.4-13.4,8.1c-0.4,0.2-0.7,0.9-0.7,1.3
		C208.9,265.9,208.9,271.1,208.9,276.6z M158.8,75c0.2-0.3,0.3-0.4,0.3-0.5c0-5.2,0.1-10.3,0-15.5c0-0.5-0.5-1.2-1-1.5
		c-2-1.3-4-2.4-6-3.6c-2.3-1.4-4.6-2.7-6.9-4.1c-0.2,0.3-0.3,0.4-0.3,0.5c0,5.2-0.1,10.3,0,15.5c0,0.5,0.5,1.2,1,1.5
		c2.1,1.3,4.2,2.6,6.3,3.8C154.4,72.4,156.6,73.7,158.8,75z M159.1,136c-4.7,2.8-9,5.4-13.3,8c-0.5,0.3-0.9,1.2-0.9,1.9
		c-0.1,3.2,0,6.3,0,9.5c0,1.9,0,3.9,0,6.2c4.1-2.4,7.6-4.8,11.5-6.8c2.3-1.2,2.9-2.6,2.8-5.1C158.9,145.3,159.1,140.8,159.1,136z
		 M64.9,248c4.8-2.9,9.2-5.5,13.6-8.2c0.4-0.3,0.7-1.2,0.7-1.8c0.1-4.5,0-9.1,0-13.6c0-0.6-0.1-1.1-0.1-1.9
		c-4.6,2.8-9.1,5.4-13.4,8.1c-0.3,0.2-0.7,0.7-0.7,1.1C64.9,236.9,64.9,242.3,64.9,248z M255,247.9c0.1-0.5,0.1-0.8,0.1-1.1
		c0-4.9,0.1-9.8,0-14.8c0-0.6-0.5-1.4-1.1-1.8c-2.8-1.8-5.6-3.4-8.5-5.1c-1.5-0.9-2.9-1.7-4.6-2.7c0,5.6,0,11,0,16.3
		c0,0.4,0.2,0.9,0.5,1C245.9,242.5,250.3,245.1,255,247.9z M96.9,136c0,5.7,0,11,0,16.3c0,0.5,0.6,1.1,1.1,1.4
		c2.3,1.4,4.6,2.8,6.9,4.2c2,1.2,4,2.4,6.2,3.7c0-5.7,0-11,0-16.3c0-0.4-0.4-1-0.7-1.2C106,141.4,101.6,138.8,96.9,136z
		 M240.9,107.2c0,5.6,0,10.8,0.1,16c0,0.6,0.6,1.4,1.2,1.7c3.4,2.1,6.9,4.2,10.3,6.2c0.8,0.5,1.6,1,2.7,1.6c0-5.7,0-11,0-16.3
		c0-0.4-0.3-0.9-0.7-1.1C250,112.6,245.6,110,240.9,107.2z M144.9,276.8c3-1.8,5.7-3.4,8.3-5c1.9-1.2,4.6-2,5.5-3.7
		c1-1.7,0.3-4.4,0.3-6.7c0-3.3,0-6.5,0-10.1c-4.7,2.8-9.2,5.5-13.6,8.2c-0.3,0.2-0.5,0.7-0.5,1C144.9,265.7,144.9,271,144.9,276.8z
		 M111.1,104c0-5.7,0-11,0-16.3c0-0.5-0.6-1.1-1.1-1.4c-3.9-2.4-7.9-4.8-11.9-7.1c-0.3-0.2-0.7-0.3-1.2-0.5c0,5.4,0,10.6,0.1,15.8
		c0,0.6,0.6,1.4,1.2,1.7c3.1,2,6.4,3.9,9.5,5.8C108.7,102.6,109.8,103.2,111.1,104z M145.2,107.4c-0.2,0.2-0.3,0.3-0.3,0.4
		c0,5.2-0.1,10.4,0,15.6c0,0.5,0.6,1.2,1,1.5c2.9,1.8,5.9,3.6,8.9,5.4c1.3,0.8,2.6,1.5,4.2,2.5c0-5.7,0-11,0-16.3
		c0-0.4-0.3-0.9-0.7-1.1C154,112.6,149.6,110,145.2,107.4z M159.1,193.6c-4.7,2.8-9.1,5.4-13.5,8.1c-0.4,0.3-0.7,1.1-0.7,1.7
		c-0.1,2.1,0,4.2,0,6.3c0,3,0,6.1,0,9.1c0.3,0,0.5,0.1,0.5,0c4.3-2.6,8.6-5.1,12.9-7.7c0.4-0.2,0.7-0.8,0.7-1.3
		C159.1,204.5,159.1,199.3,159.1,193.6z M96.9,20.8c0,5.7,0,11.1,0,16.5c0,0.4,0.6,1,1.1,1.2c3.8,2.3,7.7,4.6,11.5,7
		c0.4,0.3,0.9,0.5,1.6,0.8c0-5.5,0-10.8,0-16.1c0-0.5-0.4-1.1-0.9-1.4C105.9,26.2,101.6,23.6,96.9,20.8z M240.9,164.8
		c0,5.7,0,11,0,16.3c0,0.5,0.6,1.1,1.1,1.4c2.6,1.7,5.3,3.2,8,4.8c1.6,1,3.2,1.9,5.1,3c0-5.6,0-10.9,0-16.1c0-0.5-0.4-1.1-0.8-1.4
		C249.9,170.2,245.6,167.6,240.9,164.8z M33.8,192c4.7,2.8,9.2,5.5,13.6,8.1c0.3,0.2,0.8,0.2,1.1,0.1c4.5-2.7,9-5.4,13.7-8.2
		c-4.7-2.8-9.1-5.5-13.6-8.1c-0.3-0.2-1.1-0.1-1.4,0.1C42.8,186.5,38.5,189.2,33.8,192z M158.2,76.8c-4.7-2.8-9.2-5.5-13.7-8.1
		c-0.4-0.2-1.1,0-1.6,0.3c-4,2.3-7.9,4.7-11.9,7.1c-0.4,0.2-0.7,0.5-1.1,0.9c4.5,2.7,8.9,5.4,13.3,7.9c0.4,0.2,1.2,0.2,1.6,0
		C149.2,82.2,153.5,79.6,158.2,76.8z M270.2,278.4c-3.8-2.3-7.5-4.3-10.9-6.7c-2.4-1.7-4.2-1.7-6.6,0c-3.4,2.4-7.1,4.4-10.9,6.6
		c4.7,2.8,9.1,5.5,13.6,8.1c0.3,0.2,1.1,0.1,1.4-0.1C261.2,283.8,265.5,281.2,270.2,278.4z M174.2,105.6c-4.7-2.8-9.1-5.5-13.5-8
		c-0.4-0.2-1.3-0.1-1.7,0.2c-2.1,1.2-4.2,2.5-6.3,3.8c-2.2,1.3-4.4,2.7-6.8,4.1c4.7,2.8,9.1,5.5,13.5,8.1c0.4,0.2,1.1,0.2,1.4,0
		C165.2,111.1,169.5,108.4,174.2,105.6z M206.2,163.2c-4.7-2.8-9.2-5.5-13.7-8.2c-0.3-0.2-0.8-0.1-1.1,0.1
		c-4.5,2.6-8.9,5.3-13.6,8.1c4.7,2.8,9.2,5.5,13.7,8.2c0.3,0.2,0.8,0.1,1.1-0.1C197.1,168.7,201.5,166,206.2,163.2z M158.2,134.4
		c-3.2-1.9-6.1-3.7-9-5.4c-1.7-1-3.5-2.8-5.3-2.8c-1.8,0-3.5,1.8-5.3,2.8c-2.9,1.7-5.8,3.5-8.9,5.4c4.7,2.8,9.1,5.5,13.6,8.1
		c0.3,0.2,1,0.1,1.4-0.1C149.2,139.8,153.5,137.2,158.2,134.4z M62.2,134.4c-4.7-2.8-9.2-5.5-13.7-8.2c-0.3-0.2-0.8-0.1-1.1,0.1
		c-4.5,2.6-8.9,5.3-13.6,8.1c4.7,2.8,9.2,5.5,13.7,8.2c0.3,0.2,0.8,0.1,1.1-0.1C53.1,139.9,57.5,137.2,62.2,134.4z M110.2,105.6
		c-3.1-1.9-5.9-3.5-8.7-5.2c-1.8-1.1-3.6-3-5.4-2.9c-1.9,0-3.7,1.8-5.6,2.9c-2.9,1.7-5.7,3.4-8.7,5.2c4.6,2.8,9,5.5,13.5,8.1
		c0.4,0.2,1.1,0.2,1.4,0C101.1,111.1,105.5,108.4,110.2,105.6z M62.2,76.8c-4.7-2.8-9.1-5.5-13.5-8.1c-0.4-0.3-1.4,0-1.9,0.3
		c-3.9,2.3-7.8,4.6-11.7,7c-0.4,0.2-0.7,0.5-1.2,0.9c4.6,2.7,9,5.4,13.4,8c0.4,0.2,1.1,0.2,1.4,0C53.2,82.3,57.6,79.6,62.2,76.8z
		 M225.8,76.8c4.7,2.8,9.1,5.5,13.6,8.1c0.3,0.2,1,0.2,1.3,0c4.5-2.6,8.9-5.3,13.6-8.1c-4.7-2.8-9.2-5.5-13.7-8.2
		c-0.3-0.2-0.8-0.1-1.1,0.1C234.9,71.3,230.5,74,225.8,76.8z M145.8,48c4.7,2.8,9.2,5.5,13.7,8.2c0.4,0.2,1.1,0,1.6-0.3
		c3.1-1.8,6.2-3.7,9.3-5.5c1.2-0.7,2.5-1.5,3.9-2.4c-4.7-2.8-9.1-5.5-13.5-8.1c-0.4-0.2-1.1-0.2-1.4,0.1
		C154.8,42.5,150.5,45.2,145.8,48z M270.2,163.2c-4.7-2.8-9.1-5.5-13.6-8.1c-0.4-0.2-1.1,0-1.6,0.2c-2.2,1.2-4.3,2.6-6.5,3.9
		c-2.2,1.3-4.4,2.6-6.7,4.1c4.6,2.8,9,5.5,13.5,8.1c0.4,0.2,1.2,0.2,1.6-0.1C261.2,168.6,265.6,166,270.2,163.2z M129.8,19.2
		c4.7,2.8,9.1,5.5,13.5,8.1c0.3,0.2,1,0.2,1.3,0c4.5-2.6,8.9-5.3,13.6-8.1c-4.7-2.8-9.2-5.6-13.8-8.2c-0.3-0.2-0.8-0.1-1.1,0.1
		C138.9,13.7,134.5,16.4,129.8,19.2z M62.2,19.2c-3.1-1.9-6-3.6-8.8-5.3c-1.7-1-3.5-2.9-5.3-2.9c-1.8,0-3.7,1.8-5.4,2.8
		c-2.9,1.7-5.8,3.5-8.9,5.3c4.6,2.8,9,5.5,13.5,8.1c0.4,0.2,1.2,0.2,1.6-0.1C53.2,24.6,57.6,22,62.2,19.2z M225.8,19.2
		c4.7,2.8,9.1,5.5,13.6,8.1c0.4,0.2,1.1,0,1.6-0.2c2.3-1.3,4.5-2.7,6.8-4c2.1-1.2,4.2-2.5,6.5-3.9c-4.7-2.8-9.1-5.5-13.5-8.1
		c-0.3-0.2-1-0.3-1.3-0.1C234.9,13.7,230.5,16.4,225.8,19.2z M222.1,76.9c-0.3-0.2-0.4-0.4-0.6-0.5c-4.2-2.5-8.4-5.1-12.6-7.5
		c-0.5-0.3-1.4-0.2-1.9,0.1c-4,2.3-8,4.8-12,7.2c-0.3,0.2-0.6,0.5-1,0.8c4.5,2.7,8.9,5.3,13.2,7.9c0.4,0.2,1.2,0.3,1.6,0
		C213.2,82.2,217.6,79.6,222.1,76.9z M81.8,48c4.1,2.4,8,4.6,11.7,7.1c1.9,1.3,3.2,1.1,5.1,0c3.7-2.4,7.6-4.6,11.4-6.9
		c-0.1-0.2-0.1-0.3-0.1-0.3c-3.1-1.9-6.4-3.6-9.3-5.7c-3.1-2.4-5.7-2.5-9-0.1C88.6,44.3,85.2,45.9,81.8,48z M129.8,249.6
		c4.1,2.5,8,4.6,11.7,7.1c1.9,1.3,3.2,1.1,5.1,0c3.7-2.4,7.6-4.6,11.7-7.1c-3.6-2.2-7.2-4-10.3-6.3c-2.8-2-4.9-2.1-7.7,0
		C137,245.6,133.4,247.4,129.8,249.6z M241.8,220.8c4,2.4,7.8,4.4,11.3,6.9c2.1,1.5,3.7,1.5,5.8,0c3.6-2.4,7.4-4.5,11.3-6.9
		c-4.7-2.8-9.1-5.5-13.5-8.1c-0.4-0.2-1.1-0.2-1.4,0C250.9,215.3,246.5,218,241.8,220.8z M206.2,105.6c-3.7-2.2-7.3-4-10.5-6.4
		c-2.8-2-4.9-1.9-7.6,0c-3.2,2.3-6.8,4.2-10.4,6.3c4.2,2.5,8.2,4.8,12,7.3c1.6,1.1,2.8,1,4.4,0C198.1,110.3,202.1,108.1,206.2,105.6
		z M110.2,220.8c-4.7-2.8-9-5.5-13.4-8c-0.5-0.3-1.4-0.2-1.9,0.1c-4,2.3-7.9,4.7-11.8,7.1c-0.4,0.2-0.7,0.5-1.2,0.9
		c4.5,2.7,8.9,5.4,13.3,7.9c0.4,0.2,1.1,0.3,1.4,0.1C101.1,226.3,105.5,223.6,110.2,220.8z M30.2,134.4c-4.7-2.8-9.1-5.5-13.6-8.1
		c-0.4-0.2-1.1-0.1-1.6,0.2c-1.9,1-3.7,2.2-5.6,3.3c-2.5,1.5-5,3-7.7,4.6c4.7,2.8,9.1,5.5,13.6,8.1c0.3,0.2,0.8,0.2,1.1,0.1
		C21,139.9,25.5,137.2,30.2,134.4z M222.2,192c-4.7-2.8-9.2-5.5-13.7-8.1c-0.4-0.2-1.2,0-1.6,0.3c-4.1,2.4-8.1,4.8-12.2,7.3
		c-0.3,0.2-0.5,0.4-0.8,0.7c4.5,2.7,8.9,5.3,13.2,7.9c0.4,0.2,1.2,0.2,1.6,0C213.2,197.4,217.5,194.8,222.2,192z M174,278.5
		c-0.2-0.2-0.2-0.4-0.4-0.5c-4.3-2.6-8.5-5.1-12.8-7.6c-0.4-0.3-1.3-0.2-1.7,0.1c-1.9,1.1-3.8,2.2-5.7,3.4c-2.4,1.5-4.9,2.9-7.5,4.5
		c4.7,2.8,9.1,5.5,13.5,8.1c0.4,0.2,1.1,0.2,1.4,0C165.1,283.9,169.5,281.2,174,278.5z M158.2,192c-4.7-2.8-9.1-5.5-13.5-8.1
		c-0.4-0.2-1.3-0.1-1.7,0.2c-3.1,1.8-6.1,3.6-9.1,5.4c-1.3,0.8-2.6,1.6-4.1,2.5c4.7,2.8,9.1,5.5,13.5,8.1c0.4,0.2,1.1,0.2,1.4,0
		C149.2,197.4,153.6,194.8,158.2,192z M1.8,19.2c4.7,2.8,9.2,5.6,13.7,8.2c0.3,0.2,0.8,0.1,1.1-0.1c4.5-2.6,8.9-5.3,13.6-8.1
		c-4.7-2.8-9.2-5.5-13.7-8.2c-0.3-0.2-0.8-0.1-1.1,0.1C10.9,13.7,6.5,16.4,1.8,19.2z M78.2,48c-4.7-2.8-9.2-5.5-13.7-8.2
		c-0.3-0.2-0.8-0.1-1.1,0c-4.5,2.6-8.9,5.3-13.6,8.1c4.7,2.8,9.2,5.5,13.7,8.2c0.3,0.2,0.8,0.1,1.1-0.1C69.1,53.5,73.6,50.8,78.2,48
		z M174.2,163.2c-4.7-2.8-9.2-5.5-13.7-8.2c-0.3-0.2-0.9-0.2-1.1,0c-4.5,2.6-8.9,5.3-13.6,8.2c4.7,2.8,9.2,5.6,13.8,8.2
		c0.3,0.2,0.8,0.1,1.1-0.1C165.1,168.7,169.5,166,174.2,163.2z M97.8,249.6c4.6,2.8,9,5.4,13.4,8c0.5,0.3,1.4,0.2,1.9-0.1
		c3.3-1.9,6.5-3.8,9.7-5.8c1.1-0.7,2.2-1.3,3.5-2.1c-4.7-2.8-9.1-5.5-13.5-8.1c-0.3-0.2-1-0.2-1.3-0.1
		C106.9,244.1,102.5,246.7,97.8,249.6z M193.8,19.2c4.7,2.8,9.1,5.5,13.6,8.1c0.4,0.2,1.1,0.2,1.4-0.1c4.4-2.6,8.8-5.3,13.5-8
		c-4.7-2.8-9.2-5.5-13.7-8.2c-0.3-0.2-0.8-0.1-1.1,0C202.9,13.7,198.5,16.4,193.8,19.2z M110.2,278.4c-4.7-2.8-9.1-5.5-13.6-8.1
		c-0.3-0.2-1-0.2-1.3,0c-4.5,2.6-8.9,5.3-13.6,8.1c4.7,2.8,9.2,5.5,13.7,8.2c0.2,0.1,0.7,0.1,1,0C101,283.9,105.5,281.2,110.2,278.4
		z M81.8,163.2c4.7,2.8,9.1,5.5,13.6,8.1c0.4,0.2,1.1,0,1.6-0.2c2.9-1.7,5.8-3.4,8.7-5.2c1.5-0.9,2.9-1.8,4.6-2.8
		c-4.7-2.8-9.1-5.5-13.5-8.1c-0.3-0.2-1-0.2-1.3-0.1C90.9,157.7,86.5,160.4,81.8,163.2z M177.8,48c4.7,2.8,9.1,5.5,13.6,8.1
		c0.3,0.2,1,0.2,1.3,0c4.5-2.6,8.9-5.3,13.6-8.1c-4.7-2.8-9.1-5.5-13.6-8.1c-0.3-0.2-0.9-0.2-1.1-0.1C187,42.5,182.5,45.2,177.8,48z
		 M78.2,105.6c-4.7-2.8-9.2-5.5-13.7-8.2c-0.3-0.2-0.8-0.1-1.1,0.1c-4.5,2.6-8.9,5.3-13.6,8.1c4.8,2.8,9.2,5.6,13.8,8.2
		c0.3,0.2,0.8,0.1,1.1-0.1C69.1,111.1,73.6,108.4,78.2,105.6z M193.8,134.4c4.7,2.8,9.1,5.5,13.6,8.1c0.4,0.2,1.1,0.2,1.4-0.1
		c4.4-2.6,8.8-5.3,13.5-8c-4.7-2.8-9.2-5.5-13.7-8.2c-0.3-0.2-0.8-0.1-1.1,0.1C202.9,128.9,198.5,131.6,193.8,134.4z M97.8,19.2
		c4.7,2.8,9.1,5.5,13.6,8.2c0.3,0.2,0.8,0.2,1.1,0c4.5-2.7,9-5.4,13.7-8.2c-3.6-2.1-7-3.9-10.2-6.2c-2.9-2.2-5.3-2.2-8.2,0
		C104.8,15.3,101.3,17.1,97.8,19.2z M270.2,48c-4.7-2.8-9.1-5.5-13.5-8.1c-0.4-0.2-1.3-0.1-1.7,0.2c-2.7,1.5-5.3,3.1-7.9,4.7
		c-1.7,1-3.4,2.1-5.3,3.2c4.7,2.8,9.1,5.5,13.5,8.1c0.4,0.2,1.1,0.2,1.4,0C261.1,53.5,265.5,50.8,270.2,48z M145.8,220.8
		c4.7,2.8,9.1,5.5,13.5,8.1c0.3,0.2,1,0.2,1.3,0.1c4.5-2.6,8.9-5.3,13.6-8.2c-4.7-2.8-9.2-5.5-13.8-8.2c-0.3-0.2-0.8-0.1-1.1,0.1
		C154.9,215.3,150.5,218,145.8,220.8z M241.8,105.6c4.7,2.8,9.1,5.5,13.6,8.1c0.3,0.2,0.9,0.2,1.3,0c4.5-2.6,8.9-5.3,13.6-8.1
		c-4.7-2.8-9.1-5.5-13.6-8.1c-0.3-0.2-0.9-0.2-1.1-0.1C251,100.1,246.5,102.8,241.8,105.6z M49.8,163.2c4.7,2.8,9.1,5.5,13.5,8.1
		c0.4,0.2,1.1,0.2,1.4,0c4.4-2.6,8.8-5.3,13.5-8.1c-4.7-2.8-9.2-5.5-13.7-8.2c-0.3-0.2-0.8-0.1-1.1,0.1
		C58.9,157.7,54.5,160.3,49.8,163.2z M222.2,249.6c-3.9-2.3-7.7-4.4-11.2-6.8c-2.2-1.5-3.8-1.5-6,0c-3.5,2.4-7.3,4.5-11.2,6.8
		c4.7,2.8,9.2,5.6,13.7,8.2c0.3,0.2,0.8,0.1,1.1-0.1C213.1,255.1,217.5,252.4,222.2,249.6z M126.2,76.8c-4.7-2.8-9.2-5.5-13.7-8.2
		c-0.4-0.2-1.2,0.1-1.7,0.4c-3.5,2.1-7,4.2-10.5,6.3c-0.8,0.5-1.5,1-2.4,1.6c4.6,2.8,8.9,5.4,13.3,8c0.4,0.2,1.2,0.3,1.6,0
		C117.2,82.3,121.6,79.6,126.2,76.8z M113.8,48c4.7,2.8,9.2,5.5,13.7,8.2c0.3,0.2,0.8,0.1,1.1-0.1c4.5-2.6,8.9-5.3,13.6-8.2
		c-4.7-2.8-9.2-5.5-13.7-8.2c-0.2-0.1-0.7-0.1-1,0C123,42.5,118.5,45.2,113.8,48z M46.2,278.4c-4.7-2.8-9.1-5.5-13.5-8.1
		c-0.4-0.2-1.3-0.1-1.7,0.2c-2,1.1-4,2.4-6,3.6c-2.3,1.4-4.7,2.8-7.2,4.3c4.6,2.8,8.9,5.4,13.3,8c0.4,0.3,1.3,0.3,1.7,0
		C37.3,283.8,41.6,281.2,46.2,278.4z M1.8,76.8c4.7,2.8,9.2,5.5,13.7,8.2c0.3,0.2,0.8,0.1,1.1-0.1c4.5-2.7,8.9-5.3,13.6-8.1
		c-4.7-2.8-9.2-5.5-13.7-8.2c-0.3-0.2-0.8-0.1-1.1,0C10.9,71.3,6.5,74,1.8,76.8z M257.7,19.2c4.7,2.8,9,5.4,13.4,8
		c0.4,0.2,1.2,0.3,1.6,0.1c4.4-2.6,8.8-5.3,13.5-8.1c-4.7-2.8-9.2-5.5-13.7-8.2c-0.3-0.2-0.8-0.1-1.1,0.1
		C266.9,13.7,262.4,16.4,257.7,19.2z M49.8,220.8c4.7,2.8,9.1,5.5,13.4,8.1c0.3,0.2,1,0.3,1.3,0.2c4.5-2.7,9-5.4,13.7-8.2
		c-4.7-2.8-9.2-5.5-13.6-8.2c-0.3-0.2-0.8-0.2-1.1,0C59,215.3,54.5,217.9,49.8,220.8z M62.2,249.6c-4.6-2.8-9-5.4-13.4-8
		c-0.5-0.3-1.5-0.1-2,0.2c-3.5,2-6.9,4.1-10.3,6.2c-0.8,0.5-1.7,1-2.7,1.6c4.7,2.8,9.1,5.5,13.5,8.1c0.4,0.2,1.1,0.2,1.4,0
		C53.2,255,57.6,252.4,62.2,249.6z M225.8,249.6c4.7,2.8,9.1,5.5,13.5,8.1c0.4,0.2,1.2,0.1,1.7-0.2c2.5-1.4,4.9-2.9,7.4-4.4
		c1.9-1.1,3.7-2.2,5.8-3.5c-4.7-2.8-9.1-5.5-13.5-8.1c-0.4-0.2-1.1-0.2-1.4,0C234.8,244.1,230.4,246.8,225.8,249.6z M78.2,278.4
		c-4.7-2.8-9.1-5.5-13.5-8.1c-0.3-0.2-1-0.3-1.3-0.1c-4.5,2.6-8.9,5.3-13.7,8.1c4.8,2.9,9.2,5.6,13.8,8.2c0.3,0.2,0.9,0,1.3-0.2
		C69.2,283.8,73.6,281.2,78.2,278.4z M177.8,278.4c4,2.4,7.9,4.6,11.6,7c1.9,1.3,3.3,1.3,5.2,0c3.7-2.5,7.6-4.6,11.6-7.1
		c-4.6-2.8-9-5.5-13.5-8c-0.4-0.2-1.2-0.2-1.6,0.1C186.8,272.9,182.4,275.6,177.8,278.4z M254.2,192c-4.7-2.8-9.1-5.5-13.5-8.1
		c-0.3-0.2-1-0.3-1.3-0.1c-4.5,2.6-8.9,5.3-13.6,8.2c4.7,2.8,9.2,5.6,13.8,8.2c0.3,0.2,0.8,0.1,1.1-0.1
		C245.1,197.5,249.5,194.8,254.2,192z M97.8,192c4.7,2.8,9,5.5,13.4,8c0.4,0.2,1.2,0.3,1.6,0c4.4-2.6,8.8-5.3,13.5-8
		c-4.7-2.8-9.2-5.5-13.7-8.2c-0.3-0.2-0.8-0.1-1.1,0.1C106.9,186.5,102.5,189.2,97.8,192z M1.8,192c4.7,2.8,9.2,5.5,13.6,8.1
		c0.4,0.2,1.1,0,1.6-0.2c3.2-1.9,6.4-3.8,9.6-5.7c1.1-0.7,2.3-1.4,3.6-2.2c-4.7-2.8-9.1-5.5-13.5-8.1c-0.4-0.2-1.2-0.1-1.6,0.2
		c-1.8,1-3.5,2.1-5.3,3.1C7.2,188.7,4.6,190.3,1.8,192z M257.8,76.8c4.6,2.8,9,5.4,13.5,8c0.3,0.2,1,0.3,1.3,0.1
		c4.5-2.7,9-5.4,13.7-8.2c-3.7-2.2-7.4-4.1-10.6-6.5c-2.6-1.8-4.5-1.9-7.1,0C265.1,72.6,261.4,74.6,257.8,76.8z M113.8,163.2
		c4.7,2.8,9.1,5.5,13.6,8.1c0.3,0.2,0.8,0.2,1.1,0c4.5-2.7,9-5.4,13.7-8.2c-4.7-2.8-9.1-5.5-13.6-8.1c-0.4-0.2-1.2,0-1.7,0.3
		c-2.5,1.5-5,3-7.6,4.5C117.5,160.9,115.7,162,113.8,163.2z M113.8,105.6c4.7,2.8,9,5.4,13.4,8c0.4,0.2,1.1,0.3,1.4,0.1
		c4.5-2.6,8.9-5.3,13.6-8.1c-4.7-2.8-9.2-5.5-13.7-8.2c-0.3-0.2-0.8-0.1-1.1,0.1C122.9,100.1,118.5,102.8,113.8,105.6z M113.8,220.8
		c4.7,2.8,9,5.4,13.4,8c0.4,0.2,1.1,0.3,1.4,0.1c4.5-2.6,8.9-5.3,13.6-8.1c-4.7-2.8-9.2-5.5-13.7-8.2c-0.3-0.2-0.8-0.1-1.1,0.1
		C122.9,215.3,118.5,218,113.8,220.8z M65.8,76.8c3,1.8,5.8,3.5,8.5,5.2c1.8,1.1,3.7,3.1,5.6,3c1.9,0,3.9-1.9,5.7-3
		c2.8-1.7,5.6-3.4,8.6-5.2c-4.7-2.8-9.2-5.5-13.6-8.1c-0.3-0.2-0.9-0.1-1.3,0.1C74.9,71.3,70.5,74,65.8,76.8z M126.2,134.4
		c-4.7-2.8-9.1-5.5-13.6-8.1c-0.3-0.2-0.9-0.2-1.1-0.1c-4.5,2.7-9,5.4-13.7,8.2c4.7,2.8,9.1,5.5,13.6,8.1c0.3,0.2,0.9,0.2,1.3,0
		C117.1,139.9,121.6,137.2,126.2,134.4z M225.8,134.4c4.7,2.8,9.1,5.5,13.6,8.1c0.3,0.2,0.8,0.2,1.1,0.1c4.5-2.7,9-5.4,13.7-8.2
		c-4.7-2.8-9.1-5.5-13.6-8.1c-0.3-0.2-0.9-0.2-1.1-0.1C235,128.8,230.5,131.6,225.8,134.4z M206.2,220.8c-4.7-2.8-9.2-5.5-13.7-8.2
		c-0.3-0.2-0.8-0.1-1.1,0.1c-4.5,2.6-8.9,5.3-13.6,8.1c4.7,2.8,9.2,5.5,13.7,8.2c0.3,0.2,0.8,0.1,1.1-0.1
		C197.1,226.3,201.5,223.6,206.2,220.8z M30.2,249.6c-3.8-2.3-7.4-4.2-10.7-6.5c-2.5-1.8-4.4-1.8-7,0c-3.3,2.4-7,4.3-10.8,6.6
		c4.7,2.8,9.2,5.5,13.6,8.1c0.3,0.2,0.9,0.2,1.3,0C21.1,255.1,25.5,252.4,30.2,249.6z M209.8,278.4c4.7,2.8,9.1,5.5,13.5,8.1
		c0.4,0.2,1.2,0.1,1.7-0.1c2.3-1.3,4.6-2.7,6.9-4.1c2-1.2,4-2.4,6.3-3.8c-4.7-2.8-9.1-5.5-13.5-8c-0.4-0.2-1.1-0.2-1.4,0
		C218.9,272.9,214.5,275.6,209.8,278.4z M94,134.5c-0.2-0.2-0.3-0.4-0.4-0.5c-4.3-2.6-8.5-5.1-12.8-7.6c-0.5-0.3-1.4-0.2-1.9,0.1
		c-4.1,2.4-8.1,4.8-12.2,7.3c-0.3,0.2-0.5,0.4-0.8,0.7c4.5,2.7,8.9,5.4,13.4,8c0.3,0.2,1,0.2,1.3,0C85.1,139.9,89.5,137.2,94,134.5z
		 M142.2,278.4c-4.1-2.5-8.1-4.7-11.8-7.2c-1.8-1.2-3-1.1-4.8,0c-3.8,2.5-7.7,4.7-11.8,7.2c4.7,2.8,9.1,5.5,13.6,8.1
		c0.3,0.2,0.9,0.2,1.3,0C133.1,283.9,137.5,281.2,142.2,278.4z M94.2,249.6c-4.8-2.8-9.3-5.5-13.8-8.2c-0.2-0.1-0.7-0.1-1,0
		c-4.5,2.7-9,5.4-13.7,8.2c3.9,2.3,7.7,4.4,11.2,6.8c2.2,1.5,3.8,1.5,6,0C86.5,254,90.3,251.9,94.2,249.6z M257.8,249.6
		c4.7,2.8,9.1,5.5,13.6,8.2c0.3,0.2,0.8,0.2,1.1,0.1c4.5-2.7,9-5.4,13.7-8.2c-0.3-0.2-0.5-0.3-0.6-0.4c-2.9-1.8-6.1-3.2-8.7-5.4
		c-3.4-2.7-6.3-2.6-9.7,0C264.3,246.1,261,247.6,257.8,249.6z M94.2,192c-4.7-2.8-9.1-5.5-13.5-8.1c-0.3-0.2-1-0.3-1.3-0.1
		c-4.5,2.6-8.9,5.3-13.6,8.1c4.7,2.8,9.1,5.5,13.6,8.1c0.3,0.2,0.9,0.2,1.3,0C85.1,197.5,89.5,194.8,94.2,192z M17.8,105.6
		c4.7,2.8,9,5.4,13.4,8c0.4,0.2,1.2,0.3,1.6,0c4.4-2.6,8.8-5.3,13.5-8.1c-4.7-2.8-9.2-5.5-13.7-8.2c-0.3-0.2-0.8-0.1-1.1,0
		C26.9,100.1,22.5,102.8,17.8,105.6z M65.8,19.2c3.8,2.3,7.6,4.3,11.1,6.8c2.3,1.6,4,1.5,6.3,0c3.5-2.4,7.2-4.4,11-6.7
		c-3.8-2.3-7.4-4.2-10.8-6.6c-2.4-1.7-4.3-1.8-6.8,0C73.2,15,69.5,17,65.8,19.2z M286.2,192c-4.7-2.8-9.1-5.5-13.6-8.1
		c-0.4-0.2-1.2,0-1.6,0.2c-2.6,1.5-5.1,3.1-7.7,4.6c-1.8,1.1-3.6,2.1-5.5,3.3c4.7,2.8,9.1,5.5,13.6,8.1c0.3,0.2,0.9,0.2,1.3,0
		C277.1,197.5,281.5,194.8,286.2,192z M209.8,220.8c3.9,2.4,7.7,4.4,11.2,6.8c2.2,1.5,3.8,1.5,6,0c3.5-2.4,7.3-4.5,11.2-6.8
		c-3.7-2.2-7.3-4.1-10.6-6.5c-2.6-1.9-4.6-1.9-7.3,0C217.1,216.7,213.5,218.6,209.8,220.8z M17.8,163.2c4.6,2.8,9,5.4,13.4,8
		c0.5,0.3,1.4,0.2,1.9-0.1c3.5-2,6.9-4.1,10.3-6.2c0.9-0.5,1.8-1.1,2.9-1.7c-4.7-2.8-9.1-5.5-13.5-8.1c-0.4-0.2-1.1-0.2-1.4,0
		C26.9,157.7,22.5,160.4,17.8,163.2z M286.2,134.4c-4.7-2.8-9.1-5.5-13.5-8c-0.4-0.2-1.3-0.1-1.7,0.2c-2.9,1.6-5.7,3.4-8.5,5.1
		c-1.5,0.9-3,1.8-4.7,2.8c4.7,2.8,9.1,5.5,13.5,8.1c0.4,0.2,1.1,0.2,1.4,0C277.1,139.9,281.5,137.2,286.2,134.4z M190.1,19.3
		c-0.3-0.2-0.4-0.4-0.6-0.5c-4.2-2.5-8.4-5.1-12.6-7.5c-0.5-0.3-1.4-0.2-1.9,0.1c-3.5,2-6.9,4.1-10.3,6.2c-0.9,0.5-1.7,1.1-2.8,1.7
		c4.6,2.8,8.9,5.4,13.3,8c0.4,0.2,1.2,0.3,1.6,0C181.2,24.7,185.6,22,190.1,19.3z M161.8,249.6c4.6,2.8,9,5.4,13.4,8
		c0.5,0.3,1.5,0.1,2-0.2c3.5-2,7-4.2,10.5-6.3c0.8-0.5,1.5-1,2.5-1.6c-4.7-2.8-9.1-5.5-13.5-8.1c-0.3-0.2-1-0.3-1.3-0.1
		C170.9,244.1,166.5,246.8,161.8,249.6z M209.8,105.6c3.5,2.1,7,3.9,10.1,6.2c2.9,2.2,5.3,2.1,8.2,0c3.1-2.3,6.6-4,10.1-6.2
		c-4-2.4-7.9-4.6-11.6-7c-1.9-1.3-3.3-1.4-5.2,0C217.7,101,213.8,103.2,209.8,105.6z M209.8,48c3,1.8,5.8,3.5,8.6,5.2
		c1.8,1.1,3.7,3,5.6,3c1.9,0,3.9-1.9,5.8-3c2.8-1.7,5.6-3.4,8.6-5.2c-4.7-2.8-9.1-5.5-13.5-8.1c-0.4-0.2-1.1-0.2-1.4,0
		C218.8,42.5,214.4,45.2,209.8,48z M209.8,163.2c4.7,2.8,9.1,5.5,13.5,8.1c0.4,0.2,1.2,0.1,1.7-0.1c2-1.1,4-2.4,6-3.6
		c2.3-1.4,4.7-2.8,7.2-4.3c-4.7-2.8-9.2-5.5-13.6-8.1c-0.3-0.2-0.9-0.1-1.3,0.1C218.9,157.7,214.5,160.4,209.8,163.2z M46.2,220.8
		c-4.7-2.8-9.2-5.5-13.7-8.2c-0.4-0.2-1.1,0.1-1.6,0.3c-3.8,2.2-7.6,4.5-11.4,6.8c-0.5,0.3-1,0.7-1.6,1.1c4.6,2.8,9,5.4,13.3,8
		c0.4,0.2,1.1,0.3,1.4,0.1C37.1,226.3,41.6,223.6,46.2,220.8z M17.8,48c4.7,2.8,9,5.4,13.4,8c0.4,0.2,1.2,0.3,1.6,0.1
		c4.4-2.6,8.8-5.3,13.5-8.1c-4.7-2.8-9.2-5.5-13.7-8.2c-0.3-0.2-0.8-0.1-1.1,0C26.9,42.5,22.5,45.2,17.8,48z M190.2,134.4
		c-4.1-2.4-8-4.6-11.7-7.1c-1.9-1.2-3.2-1.2-5.1,0c-3.7,2.5-7.6,4.7-11.7,7.1c4.7,2.8,9.1,5.5,13.6,8.1c0.3,0.2,1,0.2,1.3,0
		C181.1,139.9,185.6,137.2,190.2,134.4z M190.2,192c-3-1.8-5.8-3.5-8.5-5.1c-1.8-1.1-3.7-3-5.6-3c-1.9,0-3.9,1.9-5.7,3
		c-2.8,1.7-5.6,3.4-8.6,5.2c4.6,2.8,9,5.5,13.5,8.1c0.4,0.2,1.2,0.2,1.6-0.1C181.2,197.4,185.6,194.8,190.2,192z M161.8,76.8
		c4.6,2.8,9,5.4,13.4,8c0.5,0.3,1.4,0.2,1.9-0.1c3-1.7,5.9-3.5,8.8-5.2c1.4-0.8,2.8-1.7,4.4-2.7c-4.7-2.8-9.1-5.5-13.5-8.1
		c-0.4-0.2-1.1-0.2-1.4,0C170.8,71.3,166.4,74,161.8,76.8z M127.1,136c-3.9,2.3-7.3,4.6-10.9,6.4c-2.6,1.3-4.1,2.9-3.4,5.9
		c0.2,1,0,2.1,0,3.2c0,3.2,0,6.4,0,9.6c0.4,0,0.5,0,0.6,0c4.3-2.6,8.7-5.1,12.9-7.7c0.4-0.2,0.7-0.8,0.7-1.3
		C127.2,146.9,127.1,141.7,127.1,136z M112.9,222.4c0,5.7,0,11,0,16.3c0,0.5,0.6,1.1,1.1,1.4c3.9,2.4,7.9,4.8,11.9,7.1
		c0.3,0.2,0.7,0.3,1.2,0.5c0-5.4,0-10.6,0-15.8c0-0.5-0.4-1.2-0.8-1.4C121.9,227.8,117.6,225.2,112.9,222.4z M239.1,46.4
		c0-4.9-0.2-9.4,0.1-14c0.1-2.3-0.6-3.6-2.7-4.8c-3.8-2-7.5-4.4-11.2-6.6c-0.2,0.2-0.3,0.3-0.3,0.4c0,5.2,0,10.4,0,15.6
		c0,0.4,0.4,1,0.7,1.3C230,41,234.4,43.6,239.1,46.4z M31.1,78.4c-4.6,2.7-8.7,5.3-13,7.7c-0.9,0.5-1.2,1.1-1.2,2.1
		c0.1,4.5,0,9,0,13.5c0,0.6,0.1,1.2,0.1,2.2c4.7-2.8,9.1-5.4,13.4-8.1c0.3-0.2,0.6-0.8,0.6-1.2C31.1,89.4,31.1,84.1,31.1,78.4z
		 M143,276.7c0-0.8,0.1-1.3,0.1-1.9c0-4.6,0-9.1,0-13.7c0-1.1-0.3-1.7-1.3-2.3c-3.8-2.2-7.6-4.5-11.4-6.8c-0.4-0.3-0.9-0.5-1.5-0.8
		c0,5.5,0,10.8,0,16.1c0,0.5,0.4,1.1,0.8,1.4C134.1,271.4,138.4,273.9,143,276.7z M142.9,46.3c0.1-0.4,0.2-0.6,0.2-0.9
		c0-5,0-10.1,0-15.1c0-0.6-0.6-1.3-1.1-1.6c-2.9-1.9-5.9-3.6-8.9-5.4c-1.3-0.8-2.6-1.5-4.2-2.5c0,5.7,0,11,0,16.3
		c0,0.4,0.2,0.9,0.5,1C133.9,40.9,138.3,43.5,142.9,46.3z M15.1,107.3c-0.7,0.4-1.2,0.6-1.6,0.9c-3.7,2.2-7.5,4.5-11.3,6.7
		c-1,0.6-1.3,1.3-1.3,2.4c0.1,4.6,0,9.1,0,13.7c0,0.5,0.1,1,0.1,1.5c0.3,0,0.4,0,0.5-0.1c2.9-1.7,5.7-3.8,8.8-5.2
		c4-1.7,5.3-4.4,4.8-8.6C14.8,115,15.1,111.2,15.1,107.3z M271.1,276.8c0-5.8,0-11.1,0-16.4c0-0.3-0.3-0.8-0.5-1
		c-4.4-2.7-8.9-5.3-13.4-8c-0.1,0.2-0.3,0.3-0.3,0.4c0,5.2,0,10.4,0,15.6c0,0.4,0.3,1,0.6,1.2C261.9,271.3,266.3,273.9,271.1,276.8z
		 M31.1,21.1c-0.4,0.1-0.6,0.1-0.7,0.2c-4.2,2.5-8.4,5-12.6,7.6c-0.4,0.3-0.8,1-0.8,1.6c-0.1,2.2,0,4.4,0,6.6c0,3,0,5.9,0,9.3
		c4.8-2.9,9.2-5.5,13.6-8.3c0.4-0.2,0.5-1,0.5-1.6c0.1-2.2,0-4.4,0-6.7C31.1,27,31.1,24.1,31.1,21.1z M271.1,161.6
		c0-5.7,0-11,0-16.3c0-0.5-0.6-1.1-1.1-1.4c-2.7-1.7-5.4-3.3-8.2-4.9c-1.6-0.9-3.1-1.9-4.9-2.9c0,5.6,0,10.9,0,16.2
		c0,0.5,0.5,1.2,1,1.5c2.1,1.3,4.2,2.6,6.3,3.8C266.4,158.8,268.6,160.1,271.1,161.6z M0.9,251.2c0,5.7,0,11,0,16.3
		c0,0.5,0.6,1.1,1.1,1.4c3.9,2.4,7.8,4.7,11.7,7.1c0.4,0.2,0.8,0.4,1.4,0.6c0-5.5,0-10.8,0-16c0-0.5-0.5-1.1-0.9-1.4
		C9.9,256.5,5.6,254,0.9,251.2z M175.1,50c-0.3,0-0.5,0-0.5,0c-4.3,2.6-8.7,5.1-12.9,7.7c-0.4,0.2-0.6,1-0.6,1.5
		c-0.1,2.1,0,4.2,0,6.3c0,3.1,0,6.2,0,9.7c3.3-2,6.1-4,9.2-5.4c4.1-1.8,5.5-4.5,5-8.9C174.7,57.3,175.1,53.6,175.1,50z M160.9,136
		c0,5.7,0,11.1,0,16.4c0,0.4,0.6,1,1,1.2c3.8,2.3,7.6,4.6,11.4,6.8c0.5,0.3,1,0.5,1.7,1c0-5.3,0-10.3,0-15.3c0-1.4-0.4-2.2-1.7-2.8
		c-1.4-0.7-2.7-1.6-4-2.4C166.7,139.4,164,137.8,160.9,136z M112.9,164.8c0,5.7,0,11.1,0,16.5c0,0.4,0.6,1,1.1,1.3
		c2,1.3,4,2.4,6,3.6c2.2,1.3,4.5,2.7,7,4.2c0-3.9,0-7.4,0-10.9c0-2,0.6-4.3-0.2-5.8c-0.9-1.6-3.2-2.3-4.9-3.4
		C119.1,168.5,116.1,166.7,112.9,164.8z M112.9,46c0.3,0,0.5,0.1,0.5,0c4.3-2.6,8.7-5.1,13-7.8c0.3-0.2,0.7-0.7,0.7-1.1
		c0-5.3,0-10.6,0-16.2c-0.7,0.4-1.3,0.6-1.8,0.9c-3.2,1.9-6.4,4-9.7,5.8c-2.2,1.1-3,2.5-2.7,4.9c0.2,2.3,0,4.7,0,7
		C112.9,41.7,112.9,43.9,112.9,46z M0.9,190.4c4.8-2.9,9.2-5.5,13.5-8.2c0.3-0.2,0.6-0.6,0.6-1c0-5.4,0-10.7,0-16.5
		c-4.8,2.9-9.3,5.6-13.7,8.3c-0.3,0.2-0.4,0.7-0.4,1.1C0.9,179.4,0.9,184.7,0.9,190.4z M127.1,75.2c0-3.7,0-7.1,0-10.4
		c0-2.2,0.7-4.7-0.3-6.3c-1-1.7-3.5-2.5-5.3-3.7c-2.7-1.7-5.5-3.3-8.2-4.9c-0.2,0.2-0.3,0.3-0.3,0.4c0,5.2,0,10.4,0,15.6
		c0,0.4,0.3,1,0.6,1.2C117.9,69.7,122.4,72.3,127.1,75.2z M80.9,49.6c0,5.7,0,11.1,0.1,16.5c0,0.5,0.7,1,1.2,1.3
		c3.7,2.3,7.5,4.5,11.2,6.8c0.5,0.3,1,0.5,1.7,0.9c0-5.5,0-10.8,0-16.1c0-0.5-0.4-1.1-0.8-1.4C89.9,55,85.6,52.4,80.9,49.6z
		 M0.9,75.2c3.4-2,6.2-4.2,9.4-5.6c4-1.7,5.3-4.4,4.8-8.6c-0.4-3.6-0.1-7.4-0.1-11.4c-4.7,2.9-9.2,5.5-13.6,8.2
		C1.2,58,1,58.5,1,58.8C0.9,64.1,0.9,69.5,0.9,75.2z M272.9,49.6c0,5.7,0,11,0,16.3c0,0.4,0.2,0.9,0.5,1c4.4,2.7,8.9,5.4,13.3,8
		c0.2-0.2,0.3-0.3,0.3-0.4c0-5.2,0.1-10.4,0-15.6c0-0.4-0.4-1-0.8-1.3C282,55,277.6,52.4,272.9,49.6z M257.1,193.8
		c-0.1,0.3-0.2,0.5-0.2,0.6c0,5.1,0,10.2,0,15.3c0,0.6,0.6,1.4,1.2,1.7c3.3,2.1,6.7,4.1,10.1,6.1c0.8,0.5,1.7,1,2.8,1.6
		c0-5.7,0-11,0-16.3c0-0.4-0.2-0.9-0.5-1C266.1,199.1,261.6,196.4,257.1,193.8z M224.9,78.4c0,5.7,0,11,0,16.2c0,0.5,0.6,1.1,1,1.4
		c4,2.4,8,4.8,12,7.2c0.3,0.2,0.6,0.2,1,0.4c0-4.8-0.1-9.5,0-14.2c0.1-1.9-0.5-3-2.2-4C233,83.4,229.1,80.9,224.9,78.4z M129,193.7
		c-0.1,0.5-0.1,0.7-0.1,0.9c0,5-0.1,9.9,0,14.9c0,0.6,0.6,1.5,1.2,1.9c3.4,2.1,6.9,4.2,10.3,6.2c0.8,0.5,1.6,0.9,2.6,1.6
		c0-4.1-0.3-8,0.1-11.7c0.5-4.2-1-6.6-4.8-8.3C135.2,197.7,132.3,195.6,129,193.7z M160.9,251.2c0,5.7,0,11.1,0,16.5
		c0,0.4,0.6,1,1.1,1.2c2.4,1.5,4.8,2.9,7.2,4.4c1.8,1.1,3.7,2.2,5.8,3.5c0-3.9,0-7.4,0-10.9c0-2,0.6-4.4-0.3-6
		c-0.9-1.6-3.2-2.3-5-3.3C166.9,254.8,164.1,253.1,160.9,251.2z M142.9,161.4c0.1-0.4,0.2-0.6,0.2-0.7c0-5.1,0-10.2,0-15.3
		c0-0.6-0.6-1.3-1.1-1.6c-3.9-2.4-7.9-4.8-11.8-7.1c-0.3-0.2-0.7-0.3-1.2-0.5c0,5.5,0,10.7,0,16c0,0.5,0.4,1.1,0.9,1.4
		C134.1,156.2,138.4,158.8,142.9,161.4z M143.1,104c0-4.5-0.3-8.5,0.1-12.6c0.3-3.4-0.8-5.4-3.8-6.8c-3.5-1.7-6.8-4-10.1-5.9
		c-0.2,0.2-0.3,0.2-0.3,0.2c0,5.3-0.1,10.5,0,15.8c0,0.4,0.4,1,0.7,1.3C134,98.6,138.4,101.2,143.1,104z M287.1,132.8
		c0-5.7,0-11.1-0.1-16.5c0-0.5-0.7-1-1.2-1.3c-3.7-2.3-7.4-4.4-11.1-6.7c-0.5-0.3-1.1-0.6-1.8-1c0,5.6,0,10.9,0,16.1
		c0,0.5,0.4,1.1,0.8,1.4C278.1,127.4,282.4,130,287.1,132.8z M16.9,107.2c0,5.7,0,11,0,16.3c0,0.5,0.6,1.1,1.1,1.4
		c2.7,1.7,5.4,3.3,8.1,4.9c1.5,0.9,3.1,1.8,4.6,2.7c0.1-0.4,0.2-0.5,0.2-0.7c0-5.1,0.1-10.2,0-15.3c0-0.5-0.5-1.2-1-1.5
		c-2.2-1.4-4.4-2.7-6.6-4C21.4,109.9,19.3,108.6,16.9,107.2z M127.1,132.8c0-5.7,0-11.1,0-16.4c0-0.4-0.6-1-1-1.3
		c-2.9-1.8-5.9-3.6-8.9-5.4c-1.3-0.8-2.6-1.5-4.2-2.5c0,4.5,0.2,8.7-0.1,12.9c-0.2,3.1,0.7,4.9,3.5,6.3
		C120,128.2,123.3,130.5,127.1,132.8z M30.8,75c0.2-0.3,0.3-0.3,0.3-0.4c0-5.2,0.1-10.4,0-15.6c0-0.5-0.5-1-0.9-1.3
		c-1.8-1.1-3.6-2.2-5.4-3.3c-2.5-1.5-5-3-7.6-4.5c-0.1,0.4-0.2,0.5-0.2,0.7c0,5.1,0,10.2,0,15.3c0,0.5,0.5,1.2,0.9,1.5
		c1.9,1.3,3.9,2.4,5.8,3.6C26.1,72.2,28.4,73.6,30.8,75z M16.9,161.6c4.8-2.9,9.2-5.5,13.7-8.3c0.4-0.2,0.5-1,0.5-1.6
		c0-2.6,0-5.3,0-7.9c0-2.5,0-5,0-7.8c-4.8,2.9-9.2,5.5-13.7,8.2c-0.3,0.2-0.5,0.8-0.5,1.2C16.9,150.7,16.9,155.9,16.9,161.6z
		 M15.1,222.4c-4.7,2.8-9.2,5.5-13.5,8.2c-0.4,0.3-0.6,1.1-0.7,1.7c0,4.8,0,9.6,0,14.4c0,0.4,0.1,0.7,0.2,1.2
		c4.5-2.7,8.8-5.2,13.1-7.9c0.4-0.3,0.8-0.9,0.8-1.4C15.1,233.3,15.1,228,15.1,222.4z M239.1,161.6c0-5.6,0-10.8-0.1-16
		c0-0.6-0.6-1.4-1.2-1.7c-3.4-2.2-7-4.2-10.4-6.3c-0.7-0.4-1.5-0.9-2.5-1.5c0,5.7,0,11,0,16.3c0,0.4,0.2,0.9,0.5,1
		C229.9,156.1,234.3,158.7,239.1,161.6z M30.9,190.2c0.1-0.4,0.2-0.7,0.2-0.9c0-5,0-10.1,0-15.1c0-0.5-0.6-1.3-1.1-1.6
		c-3.9-2.4-7.8-4.7-11.7-7.1c-0.4-0.2-0.8-0.3-1.3-0.6c0,3.7,0,7.2,0,10.7c0,2-0.6,4.4,0.3,6c0.9,1.6,3.2,2.3,5,3.3
		C25,186.7,27.9,188.4,30.9,190.2z M160.9,190.4c4.8-2.9,9.2-5.5,13.5-8.2c0.4-0.2,0.6-1.1,0.6-1.7c0.1-3.8,0-7.7,0-11.5
		c0-1.3,0-2.6,0-4.2c-4.8,2.8-9.2,5.5-13.6,8.1c-0.3,0.2-0.6,0.8-0.6,1.2C160.9,179.4,160.9,184.7,160.9,190.4z M287.1,190.4
		c0-5.5,0-10.5,0-15.6c0-1.1-0.4-1.7-1.3-2.3c-3.9-2.3-7.8-4.7-11.7-7c-0.3-0.2-0.7-0.3-1.2-0.5c0,5.4,0,10.6,0,15.8
		c0,0.5,0.3,1.2,0.7,1.4C278,184.9,282.3,187.5,287.1,190.4z M224.9,247.9c3.1-1.8,5.8-3.5,8.6-5.1c1.8-1.1,4.3-1.9,5.3-3.5
		c0.9-1.7,0.3-4.2,0.3-6.3c0-3.4,0-6.8,0-10.5c-4.8,2.9-9.2,5.5-13.6,8.2c-0.4,0.2-0.5,1-0.5,1.6c-0.1,2.7,0,5.4,0,8.1
		C224.9,242.7,224.9,245.2,224.9,247.9z M31.1,193.6c-4.7,2.8-9.2,5.4-13.5,8.2c-0.4,0.2-0.6,1.1-0.6,1.7c-0.1,3.6,0,7.2,0,10.8
		c0,1.5,0,3,0,4.9c4.8-2.9,9.2-5.5,13.5-8.2c0.3-0.2,0.6-0.8,0.6-1.2C31.1,204.6,31.1,199.3,31.1,193.6z M287,247.9
		c0.1-0.7,0.1-1.1,0.1-1.5c0-4.7,0-9.3,0-14c0-1.1-0.4-1.7-1.3-2.3c-3.9-2.3-7.7-4.6-11.6-6.9c-0.4-0.2-0.8-0.4-1.4-0.6
		c0,5.5,0,10.7,0,16c0,0.5,0.4,1.1,0.8,1.4C278.1,242.6,282.4,245.2,287,247.9z M160.9,193.6c0,5.7,0,10.9,0.1,16.2
		c0,0.5,0.6,1.2,1.2,1.6c3.5,2.2,7.1,4.3,10.6,6.4c0.7,0.4,1.4,0.8,2.3,1.3c0-5.6,0-10.8,0-16.1c0-0.4-0.2-1-0.6-1.2
		C170.1,199.1,165.7,196.4,160.9,193.6z M272.9,276.5c0.4-0.1,0.6-0.1,0.7-0.2c4.2-2.5,8.5-5,12.6-7.6c0.5-0.3,0.8-1.2,0.8-1.8
		c0.1-3.7,0-7.4,0-11.2c0-1.4,0-2.8,0-4.6c-4.8,2.9-9.3,5.5-13.7,8.2c-0.3,0.2-0.5,0.7-0.5,1C272.9,265.8,272.9,271,272.9,276.5z
		 M272.9,219.2c4.5-2.7,8.6-5.3,12.8-7.7c1-0.6,1.4-1.2,1.4-2.4c-0.1-4.6,0-9.2,0-13.9c0-0.4-0.1-0.9-0.2-1.5
		c-4.6,2.8-9,5.4-13.4,8.1c-0.3,0.2-0.6,0.7-0.6,1C272.9,208.1,272.9,213.4,272.9,219.2z M271.1,49.6c-4.8,2.9-9.2,5.5-13.6,8.2
		c-0.4,0.2-0.5,1-0.5,1.6c0,3.5,0,7,0,10.4c0,1.7,0,3.3,0,5c0.4-0.1,0.6-0.1,0.8-0.2c4.2-2.5,8.4-5,12.6-7.6
		c0.4-0.3,0.8-0.9,0.8-1.4C271.1,60.5,271.1,55.3,271.1,49.6z M112.9,104c2.9-1.7,5.4-3.2,7.9-4.7c2.1-1.2,4.9-2.1,5.9-3.9
		c1.1-1.9,0.4-4.8,0.4-7.2c0-3.1,0-6.3,0-9.8c-4.7,2.8-9.1,5.5-13.5,8.2c-0.3,0.2-0.6,0.8-0.6,1.1C112.9,93,112.9,98.2,112.9,104z
		 M160.9,78.4c0,5.7,0,10.9,0,16.1c0,0.5,0.5,1.2,0.9,1.5c1.8,1.2,3.7,2.3,5.5,3.4c2.4,1.5,4.9,2.9,7.6,4.5c0-0.8,0.1-1.4,0.1-2
		c0-4-0.1-8,0.1-12c0.1-2.2-0.5-3.4-2.5-4.5C168.7,83.2,165,80.9,160.9,78.4z M257.1,78.5c-0.1,0.5-0.2,0.7-0.2,0.9
		c0,5,0,9.9,0.1,14.9c0,0.6,0.6,1.4,1.1,1.8c3.9,2.4,7.9,4.8,11.8,7.2c0.3,0.2,0.7,0.3,1.2,0.5c0-5.5,0-10.7,0-16
		c0-0.5-0.5-1.2-1-1.5c-2.3-1.5-4.6-2.8-6.9-4.2C261.2,80.9,259.2,79.8,257.1,78.5z M80.9,107.2c0,5.7,0,11,0,16.3
		c0,0.5,0.6,1.1,1.1,1.4c3.9,2.4,7.9,4.8,11.8,7.1c0.3,0.2,0.7,0.3,1.2,0.5c0-5.5,0-10.7,0-16c0-0.4-0.3-1-0.7-1.3
		C90,112.6,85.7,110,80.9,107.2z M30.9,247.8c0.1-0.4,0.2-0.7,0.2-0.9c0-5,0-10.1,0-15.1c0-0.5-0.6-1.3-1.1-1.6
		c-3.9-2.4-7.8-4.7-11.7-7.1c-0.4-0.2-0.8-0.4-1.2-0.5c-0.1,0.3-0.1,0.4-0.1,0.5c0,3.4,0,6.7,0,10.1c0,2-0.6,4.4,0.3,6
		c0.9,1.6,3.2,2.3,5,3.3C25,244.3,27.9,246,30.9,247.8z M160.9,132.8c4.5-2.7,8.7-5.3,12.8-7.7c1-0.6,1.3-1.3,1.3-2.4
		c-0.1-4.6,0-9.1,0-13.7c0-0.5-0.1-1-0.1-1.7c-4.6,2.8-9,5.4-13.4,8.1c-0.3,0.2-0.5,0.7-0.5,1C160.9,121.7,160.9,127,160.9,132.8z
		 M95.1,193.6c-4.7,2.8-9,5.4-13.2,8c-0.5,0.3-0.9,1.1-0.9,1.7c-0.1,3.6,0,7.3,0,10.9c0,1.5,0,3,0,4.9c4.8-2.8,9.2-5.5,13.5-8.1
		c0.3-0.2,0.6-0.7,0.6-1C95.1,204.7,95.1,199.3,95.1,193.6z M239.1,276.8c0-4.6-0.2-8.9,0.1-13.1c0.2-2.9-0.6-4.7-3.3-6
		c-3.7-1.8-7.1-4.1-10.9-6.4c0,5.7,0,11,0,16.3c0,0.5,0.6,1.1,1.1,1.4c2.8,1.7,5.6,3.4,8.5,5.1C236,274.9,237.4,275.7,239.1,276.8z
		 M160.9,20.8c0,5.7,0,11.1,0,16.5c0,0.4,0.6,1,1.1,1.2c2.6,1.6,5.3,3.2,8,4.8c1.6,0.9,3.1,1.9,5,3c0-5.8,0-11.1,0-16.5
		c0-0.4-0.5-0.9-0.9-1.1c-2.1-1.3-4.3-2.6-6.5-3.9C165.5,23.5,163.3,22.3,160.9,20.8z M63.1,20.8c-4.7,2.8-9.1,5.4-13.4,8.1
		c-0.4,0.3-0.7,1.2-0.7,1.8c-0.1,4.5,0,9,0,13.5c0,0.6,0,1.2,0,2.2c4.8-2.9,9.2-5.5,13.6-8.2c0.3-0.2,0.5-0.7,0.5-1
		C63.1,31.9,63.1,26.5,63.1,20.8z M95.1,251.2c-3.2,1.9-6.1,3.6-9,5.4c-1.7,1-4,1.7-4.8,3.2c-0.9,1.5-0.3,3.8-0.3,5.8
		c0,3.6,0,7.1,0,11c0.8-0.5,1.4-0.7,2-1.1c3-1.8,5.9-3.8,9-5.3c2.7-1.3,3.5-3,3.3-5.9C94.9,260.1,95.1,255.8,95.1,251.2z
		 M207.1,46.4c0-5.7,0-11,0-16.3c0-0.5-0.6-1.1-1.1-1.4c-1.9-1.2-3.9-2.4-5.8-3.5c-2.3-1.4-4.6-2.7-7.1-4.3c0,5.7,0,11,0,16.3
		c0,0.4,0.3,0.9,0.7,1.1C198,40.9,202.3,43.5,207.1,46.4z M224.9,190.2c0.7-0.4,1.2-0.6,1.6-0.8c3.8-2.2,7.5-4.5,11.3-6.7
		c1-0.6,1.3-1.2,1.3-2.3c-0.1-4.7,0-9.4,0-14c0-0.4-0.1-0.9-0.2-1.3c-0.3,0.1-0.4,0.1-0.5,0.2c-3,1.8-5.9,3.9-9.1,5.3
		c-3.7,1.6-4.8,4.1-4.4,8C225.2,182.3,224.9,186.2,224.9,190.2z M63.1,78.4c-4.7,2.8-9.1,5.4-13.4,8.1c-0.5,0.3-0.7,1.2-0.7,1.8
		c-0.1,4.3,0,8.5,0,12.8c0,0.9,0,1.7,0,2.9c4.8-2.9,9.2-5.5,13.6-8.2c0.3-0.2,0.5-0.8,0.5-1.2C63.1,89.3,63.1,84.1,63.1,78.4z
		 M143.1,222.4c-4.4,2.6-8.4,5-12.4,7.4c-0.3,0.2-0.6,0.3-0.7,0.5c-0.4,0.6-1,1.3-1,2c-0.1,4.7-0.1,9.3,0,14c0,0.4,0.1,0.9,0.2,1.5
		c2.8-1.7,5.4-3.2,8-4.8c1.9-1.2,4.6-1.9,5.6-3.7c1-1.8,0.4-4.5,0.4-6.9C143.1,229.3,143.1,226,143.1,222.4z M1.2,136.1
		c-0.1,0.4-0.2,0.5-0.2,0.7c0,5.1,0,10.2,0,15.3c0,0.6,0.6,1.3,1.1,1.6c3.8,2.4,7.7,4.7,11.5,7c0.4,0.3,0.9,0.5,1.6,0.8
		c0-5.6,0-10.9,0-16.2c0-0.4-0.5-1-1-1.3C9.8,141.3,5.6,138.8,1.2,136.1z M271.1,46.4c0-5.7,0-11.1,0-16.4c0-0.4-0.6-1-1-1.3
		c-3.4-2.1-6.9-4.2-10.3-6.2c-0.8-0.5-1.7-1-2.6-1.5c-0.1,0.4-0.2,0.5-0.2,0.6c0,3.4,0.3,6.8-0.1,10c-0.7,4.8,1,7.7,5.4,9.6
		C265.2,42.5,268,44.5,271.1,46.4z M256.9,132.5c0.4-0.1,0.7-0.2,0.9-0.3c4.2-2.5,8.3-4.9,12.4-7.5c0.5-0.3,0.8-1.1,0.8-1.7
		c0.1-3.2,0-6.3,0-9.5c0-2,0-4,0-6.3c-3.2,1.9-6,4-9.1,5.4c-4.2,1.8-5.8,4.6-5.2,9.1C257.2,125.2,256.9,128.8,256.9,132.5z
		 M239.1,107.2c-3.3,2-6.3,4.1-9.5,5.6c-3.8,1.7-5.2,4.2-4.7,8.3c0.4,3.7,0.1,7.5,0.1,11.2c0.3,0,0.5,0.1,0.5,0
		c4.3-2.6,8.7-5.1,13-7.7c0.3-0.2,0.6-0.6,0.6-1C239.1,118.3,239.1,112.9,239.1,107.2z M271.1,222.4c-4.7,2.8-9.1,5.4-13.4,8.1
		c-0.5,0.3-0.7,1.2-0.7,1.8c-0.1,4.7,0,9.5,0,14.2c0,0.4,0.1,0.8,0.2,1.3c4.5-2.7,8.8-5.2,13-7.8c0.4-0.3,0.9-0.9,0.9-1.3
		C271.1,233.4,271.1,228.1,271.1,222.4z M272.9,161.3c0.4-0.1,0.6-0.1,0.7-0.1c4.2-2.5,8.5-5,12.6-7.6c0.5-0.3,0.8-1.1,0.8-1.8
		c0.1-3.2,0-6.5,0-9.7c0-1.9,0-3.8,0-6.1c-4.8,2.9-9.3,5.5-13.7,8.3c-0.3,0.2-0.5,0.9-0.5,1.4c0,2.8,0,5.5,0,8.3
		C272.9,156.3,272.9,158.8,272.9,161.3z M63.1,190.3c0-5.7,0-11,0-16.3c0-0.4-0.5-1-1-1.3c-2-1.3-4.1-2.5-6.1-3.7
		c-2.2-1.3-4.5-2.7-7-4.2c0,5.7,0,11,0,16.3c0,0.5,0.6,1.1,1.1,1.4c3.2,2,6.4,3.9,9.5,5.8C60.7,188.9,61.7,189.5,63.1,190.3z
		 M143.1,49.6c-3.4,2.1-6.4,4.2-9.7,5.7c-3.7,1.7-5,4-4.6,8c0.4,3.8,0.1,7.6,0.1,11.5c0.4-0.1,0.6,0,0.7-0.1c4.2-2.5,8.5-5,12.6-7.6
		c0.5-0.3,0.8-1.1,0.8-1.8c0.1-2.6,0-5.2,0-7.7C143.1,55.1,143.1,52.5,143.1,49.6z M80.9,161.2c0.4-0.1,0.6,0,0.7-0.1
		c4.2-2.5,8.5-5,12.7-7.6c0.4-0.3,0.7-1.1,0.8-1.6c0.1-5,0-10.1,0-15.1c0-0.2-0.1-0.4-0.2-0.6c-0.2,0.1-0.3,0.1-0.4,0.2
		c-2.9,1.7-5.6,3.7-8.7,5.1c-3.9,1.8-5.4,4.3-4.9,8.6C81.3,153.7,80.9,157.5,80.9,161.2z M81.2,165c-0.1,0.3-0.2,0.5-0.2,0.7
		c0,5.1,0,10.2,0,15.3c0,0.5,0.6,1.3,1.1,1.6c3.9,2.4,7.8,4.7,11.7,7.1c0.4,0.2,0.8,0.4,1.4,0.6c0-4.8-0.1-9.4,0.1-13.9
		c0.1-2.2-0.6-3.4-2.5-4.5C88.8,169.6,85,167.3,81.2,165z M143.1,164.8c-4.8,2.9-9.2,5.5-13.6,8.2c-0.4,0.3-0.6,1.1-0.6,1.7
		c-0.1,3.8,0,7.7,0,11.5c0,1.3,0,2.6,0,4.2c4.8-2.9,9.2-5.5,13.5-8.2c0.3-0.2,0.6-0.8,0.6-1.2C143.1,175.8,143.1,170.5,143.1,164.8z
		 M239.1,49.6c-4.7,2.9-9.2,5.5-13.6,8.2c-0.4,0.2-0.5,1-0.5,1.6c0,2.8,0,5.5,0,8.3c0,2.4,0,4.7,0,7.5c3.5-2.1,6.5-4.3,9.9-5.8
		c3.6-1.6,4.8-4,4.4-7.8C238.8,57.7,239.1,53.8,239.1,49.6z M224.9,193.6c0,5.7,0,11,0,16.3c0,0.5,0.6,1.1,1.1,1.4
		c3,1.8,5.9,3.6,8.9,5.4c1.3,0.8,2.5,1.5,4.1,2.4c0-5.7,0-11,0-16.3c0-0.4-0.3-0.9-0.7-1.1C234,199,229.7,196.4,224.9,193.6z
		 M287.1,78.8c-0.3-0.1-0.4-0.1-0.4-0.1c-4.4,2.6-8.8,5.2-13.1,7.8c-0.4,0.3-0.6,1.1-0.7,1.7c-0.1,3.1,0,6.1,0,9.2
		c0,2.1,0,4.1,0,6.3c0.4-0.1,0.6-0.1,0.7-0.1c4.2-2.5,8.5-5,12.6-7.6c0.5-0.3,0.8-1.1,0.8-1.7c0.1-2.8,0-5.5,0-8.3
		C287.1,83.5,287.1,81.1,287.1,78.8z M63.1,247.9c0-3.8,0-7.2,0-10.5c0-2.2,0.6-4.7-0.3-6.3c-0.9-1.6-3.4-2.4-5.3-3.5
		c-2.7-1.7-5.5-3.3-8.5-5.1c0,5.7,0,11.1,0,16.5c0,0.4,0.6,1,1.1,1.2c2.4,1.5,4.9,3,7.4,4.5C59.2,245.6,61,246.7,63.1,247.9z
		 M16.9,276.4c0.3,0,0.5,0,0.6,0c4.3-2.5,8.6-5.1,12.8-7.7c0.4-0.3,0.8-1,0.8-1.6c0.1-2.5,0-4.9,0-7.4c0-2.7,0-5.5,0-8.5
		c-4.8,2.9-9.2,5.5-13.7,8.2c-0.3,0.2-0.5,0.8-0.5,1.2C16.9,265.9,16.9,271.1,16.9,276.4z M207.1,276.7c0-5.7,0-10.9-0.1-16.2
		c0-0.5-0.6-1.2-1.2-1.6c-3.4-2.1-6.9-4.2-10.3-6.2c-0.8-0.5-1.6-0.9-2.6-1.5c0,5.6,0,10.9,0,16.2c0,0.4,0.2,1,0.5,1.2
		C197.9,271.3,202.3,273.9,207.1,276.7z M0.9,20.8c0,5.7,0,11,0,16.4c0,0.4,0.5,1,1,1.3c2.5,1.6,5.1,3.1,7.7,4.6
		c1.7,1,3.4,2,5.5,3.2c0-5.7,0-11.1,0-16.4c0-0.3-0.3-0.8-0.6-1C10.1,26.3,5.7,23.7,0.9,20.8z M0.9,78.4c0,5.7,0,11,0,16.3
		c0,0.5,0.6,1.1,1.1,1.4c3.8,2.3,7.6,4.6,11.4,6.9c0.5,0.3,1,0.5,1.7,0.9c0-5.6,0-10.8,0-16c0-0.5-0.4-1.2-0.9-1.5
		C9.9,83.8,5.6,81.2,0.9,78.4z M160.9,248c4.8-2.9,9.2-5.5,13.7-8.2c0.4-0.2,0.5-1,0.5-1.6c0-2.9,0-5.8,0-8.6c0-2.2,0-4.5,0-7.1
		c-4.8,2.9-9.2,5.5-13.7,8.2c-0.3,0.2-0.5,0.8-0.5,1.2C160.9,237.1,160.9,242.3,160.9,248z M143.1,107.2c-4.8,2.9-9.2,5.5-13.6,8.2
		c-0.4,0.2-0.6,1.1-0.6,1.7c0,4.3,0,8.6,0,13c0,0.8,0,1.6,0,2.7c4.8-2.9,9.2-5.5,13.6-8.2c0.3-0.2,0.6-0.7,0.6-1
		C143.1,118.3,143.1,113,143.1,107.2z M63.1,251.2c-3.5,2.1-6.5,4.2-9.8,5.8c-3.6,1.6-4.8,3.9-4.4,7.8c0.4,3.8,0.1,7.7,0.1,11.7
		c0.4-0.1,0.6-0.1,0.7-0.2c4.2-2.5,8.4-5,12.6-7.6c0.4-0.3,0.8-1,0.8-1.6c0.1-2.6,0-5.2,0-7.7C63.1,256.8,63.1,254.2,63.1,251.2z
		 M192.9,248c4.7-2.8,9.2-5.5,13.5-8.2c0.4-0.2,0.6-1.1,0.6-1.7c0.1-3.4,0-6.7,0-10.1c0-1.8,0-3.5,0-5.6c-4.7,2.8-9.1,5.5-13.5,8.1
		c-0.3,0.2-0.6,0.8-0.6,1.2C192.9,237,192.9,242.3,192.9,248z M95.1,78.4c-4.7,2.8-9.1,5.4-13.4,8.1c-0.4,0.3-0.7,1.1-0.7,1.6
		c-0.1,4.9,0,9.7,0,14.6c0,0.3,0.1,0.6,0.2,1.1c4.6-2.7,8.9-5.3,13.3-8c0.3-0.2,0.7-0.7,0.7-1.1C95.1,89.4,95.1,84.1,95.1,78.4z
		 M207.1,219.2c0-5.7,0-11-0.1-16.4c0-0.5-0.6-1.1-1.1-1.4c-2.6-1.6-5.2-3.2-7.8-4.7c-1.6-1-3.3-1.9-5.1-3c0,5.7,0,11,0,16.3
		c0,0.4,0.3,0.9,0.7,1.1C198,213.7,202.3,216.3,207.1,219.2z M80.9,222.4c0,5.7,0,11.1,0,16.5c0,0.4,0.5,0.9,0.9,1.2
		c1.9,1.2,3.9,2.4,5.8,3.5c2.3,1.4,4.7,2.8,7.3,4.4c0-4.7-0.2-9,0.1-13.2c0.2-2.9-0.8-4.5-3.3-5.9C88.2,227,84.7,224.7,80.9,222.4z
		 M193,78.5c0,0.8-0.1,1.3-0.1,1.8c0,4.6,0,9.1,0,13.7c0,1.2,0.4,1.8,1.4,2.4c2.8,1.6,5.5,3.2,8.2,4.9c1.4,0.8,2.8,1.7,4.6,2.7
		c0-4.1-0.3-7.9,0.1-11.6c0.5-4.1-0.9-6.6-4.7-8.3C199.2,82.6,196.3,80.4,193,78.5z M287.1,20.8c-4.8,2.9-9.2,5.5-13.5,8.1
		c-0.4,0.3-0.7,1.1-0.7,1.6c-0.1,4.8,0,9.6,0,14.4c0,0.4,0.1,0.7,0.2,1.3c3.7-2.2,7.2-4.5,10.8-6.4c2.5-1.3,3.4-2.9,3.2-5.7
		C286.9,29.8,287.1,25.5,287.1,20.8z M80.9,46.4c4.5-2.7,8.6-5.2,12.7-7.6c1.1-0.6,1.5-1.3,1.5-2.5c-0.1-4.6,0-9.1,0-13.7
		c0-0.5-0.1-1-0.1-1.7c-4.6,2.7-8.9,5.3-13.3,8C81.3,29.1,81,29.6,81,30C80.9,35.3,80.9,40.6,80.9,46.4z M207.1,164.8
		c-4.7,2.8-9.1,5.4-13.5,8.1c-0.4,0.2-0.6,1-0.6,1.5c-0.1,2.5,0,5,0,7.6c0,2.7,0,5.3,0,8.4c4.8-2.9,9.3-5.5,13.7-8.3
		c0.4-0.2,0.4-1,0.5-1.6c0-3.2,0-6.4,0-9.5C207.1,169,207.1,167.1,207.1,164.8z M192.9,132.8c4.8-2.9,9.2-5.5,13.6-8.2
		c0.4-0.2,0.6-1.1,0.6-1.7c0-4.2,0-8.4,0-12.6c0-0.9,0-1.8,0-3.1c-4.8,2.9-9.2,5.5-13.6,8.2c-0.3,0.2-0.6,0.8-0.6,1.2
		C192.9,121.8,192.9,127.1,192.9,132.8z M62.8,132.6c0.2-0.3,0.3-0.4,0.3-0.5c0-3.4,0-6.8,0-10.2c0-2,0.6-4.4-0.3-6
		c-0.9-1.6-3.2-2.3-5-3.3c-2.8-1.7-5.7-3.4-8.7-5.2c-0.1,0.4-0.2,0.5-0.2,0.7c0,5.1,0,10.2,0,15.3c0,0.5,0.6,1.3,1.1,1.6
		c2.2,1.4,4.4,2.7,6.6,4C58.7,130.1,60.7,131.4,62.8,132.6z M63.1,75.2c0-5.7,0-11.1-0.1-16.4c0-0.5-0.6-1.1-1.1-1.4
		c-3.5-2.2-7.1-4.3-10.6-6.4c-0.7-0.4-1.4-0.8-2.3-1.3c0,5.6,0,11,0,16.3c0,0.3,0.2,0.8,0.5,1C53.9,69.7,58.3,72.3,63.1,75.2z
		 M207.1,49.6c-2.9,1.7-5.4,3.2-7.9,4.8c-2,1.2-4.8,2.1-5.9,3.9c-1,1.8-0.3,4.7-0.3,7.1c0,3.1,0,6.3,0,9.8c3.1-1.8,5.8-3.5,8.6-5.1
		c1.8-1.1,4.3-1.9,5.3-3.5c0.9-1.7,0.3-4.2,0.3-6.3C207.1,56.8,207.1,53.4,207.1,49.6z M48.9,161.3c0.4-0.1,0.6-0.1,0.7-0.2
		c4.2-2.5,8.4-5,12.6-7.6c0.4-0.3,0.7-1,0.8-1.6c0.1-2.5,0-4.9,0-7.4c0-2.7,0-5.5,0-8.5c-4.8,2.9-9.2,5.5-13.6,8.2
		c-0.3,0.2-0.5,0.8-0.5,1.2C48.9,150.7,48.9,155.9,48.9,161.3z M207.1,161.5c0-5.7,0-11.1,0-16.5c0-0.4-0.5-0.9-0.9-1.1
		c-2.1-1.3-4.3-2.6-6.5-3.9c-2.1-1.3-4.3-2.6-6.7-4c0,5.7,0,11,0,16.3c0,0.4,0.5,1,1,1.3c2.9,1.8,5.9,3.6,8.9,5.4
		C204.1,159.8,205.5,160.6,207.1,161.5z M271.1,164.8c-4.8,2.9-9.2,5.5-13.6,8.3c-0.4,0.2-0.5,1-0.5,1.6c0,3.5,0,7,0,10.4
		c0,1.6,0,3.3,0,5.3c4.8-2.9,9.3-5.5,13.7-8.3c0.3-0.2,0.5-0.8,0.5-1.2C271.1,175.7,271.1,170.5,271.1,164.8z M1.2,193.8
		c-0.1,0.3-0.3,0.5-0.3,0.7c0,5.1-0.1,10.2,0,15.3c0,0.5,0.6,1.3,1.1,1.6c3.8,2.4,7.7,4.7,11.5,7c0.4,0.3,0.9,0.4,1.5,0.7
		c0-4.3-0.3-8.2,0.1-12.2c0.3-3.6-0.8-5.7-4.1-7.2C7.7,198,4.5,195.8,1.2,193.8z M48.9,219.2c4.6-2.7,8.7-5.3,13-7.8
		c0.9-0.5,1.2-1.1,1.2-2.1c-0.1-4.6,0-9.2,0-13.9c0-0.5-0.1-1-0.1-1.8c-4.6,2.8-9,5.4-13.4,8.1c-0.3,0.2-0.6,0.8-0.6,1.2
		C48.9,208.2,48.9,213.5,48.9,219.2z M127.1,193.6c-4.5,2.7-8.7,5.3-13,7.7c-1,0.6-1.3,1.2-1.3,2.3c0.1,4.6,0,9.2,0,13.9
		c0,0.4,0.1,0.9,0.2,1.6c4.6-2.8,9-5.4,13.4-8.1c0.3-0.2,0.6-0.8,0.6-1.2C127.1,204.6,127.1,199.3,127.1,193.6z M127.1,251.2
		c-4.8,2.9-9.2,5.5-13.6,8.2c-0.4,0.3-0.6,1.1-0.6,1.7c0,4.7,0,9.4,0,14c0,0.4,0.1,0.9,0.2,1.6c4.6-2.8,9-5.4,13.4-8.1
		c0.3-0.2,0.6-0.8,0.6-1.2C127.1,262.1,127.1,256.9,127.1,251.2z"/>
</g>
</svg>
