<?xml version="1.0" encoding="utf-8"?>
<!-- Generator: Adobe Illustrator 19.0.0, SVG Export Plug-In . SVG Version: 6.00 Build 0)  -->
<svg version="1.1" id="Layer_1" xmlns="http://www.w3.org/2000/svg" xmlns:xlink="http://www.w3.org/1999/xlink" x="0px" y="0px"
	 viewBox="0 0 400 400" style="enable-background:new 0 0 400 400;" xml:space="preserve">
<style type="text/css">
	.st0{opacity:2.000000e-002;}
</style>
<g class="st0">
	<path d="M152.1,347.8c-2.4-7-5.3-15.5-8.2-24c-3.7-10.9-7.5-21.8-11.1-32.8c-0.8-2.4-2.5-2.3-4.3-2.4c-18.2-1.2-36.4-2.9-54.7-3.6
		c-12.9-0.5-15.5-9-10.5-18.3c8.6-16,16.1-32.5,24.2-48.8c1.3-2.6,1.1-4.1-0.9-6.3c-12.4-13.9-24.5-27.9-36.7-42
		c-1.6-1.9-3.2-4.1-4-6.4c-1.5-4.5,1-9.2,6-11.1c9-3.4,18.1-6.4,27.2-9.5c9.8-3.3,19.5-6.6,29.4-9.8c2.4-0.8,3.1-2.2,3.2-4.5
		c1.2-18.8,2.9-37.6,3.5-56.5c0.3-8.8,8.7-13.8,16.6-9.5c16.5,8.9,33.6,16.7,50.4,25.1c2.4,1.2,4,1.2,6.1-0.7
		c14.1-12.6,28.4-25.1,42.7-37.5c7.4-6.5,14.8-4.3,18,5.1c6.2,17.9,12.3,35.8,18.3,53.8c0.8,2.5,2.1,3.1,4.4,3.2
		c18.8,1.2,37.7,2.5,56.5,3.8c10.3,0.7,14,6.9,9.5,16.2c-8.2,16.9-16.4,33.7-24.8,50.5c-1.2,2.5-1.4,4,0.7,6.3
		c12.5,13.9,24.7,28.1,37,42.2c3,3.4,5.3,7.1,3.5,11.9c-1.1,3-3.3,4.9-6.4,6c-18.1,6.1-36.1,12.3-54.2,18.3
		c-3.3,1.1-4.7,2.6-4.9,6.3c-1,18.5-2.7,36.9-3.4,55.4c-0.3,8.6-7.6,14.1-16.5,9.4c-16.3-8.7-33.2-16.4-49.7-24.8
		c-3.1-1.6-5.1-1.3-7.6,1c-14.4,12.7-28.9,25.3-43.3,37.9C162.8,356.3,155.9,355.1,152.1,347.8z M234.5,72.3c-1.6,1.2-2.7,2-3.8,3
		c-12,10.5-24.1,20.8-35.9,31.5c-4.5,4-8.8,4.3-14,1.7c-14.3-7.2-28.6-14.1-42.9-21.1c-1.1-0.6-2.3-1-4-1.7
		c-0.2,1.9-0.3,3.1-0.4,4.5c-1.1,16-2.2,32.1-3.3,48.1c-0.3,5.3-2.6,8.8-7.9,10.5c-11.7,3.8-23.2,7.9-34.8,11.9
		c-5,1.7-9.9,3.5-15.2,5.4c0.9,1.1,1.2,1.5,1.6,2c10.5,12,21,24,31.5,35.9c5.8,6.6,6.2,9,2.5,16.6c-6.8,13.9-13.6,27.8-20.4,41.7
		c-0.6,1.3-1.2,2.6-1.9,4.2c1.8,0.2,3.1,0.3,4.4,0.4c16.2,1.1,32.3,2.2,48.5,3.2c5,0.3,8.4,2.4,10.1,7.4
		c3.5,10.6,7.1,21.2,10.7,31.8c2.1,6.2,4.2,12.3,6.4,18.6c1.1-0.6,1.8-0.9,2.3-1.3c12.5-10.9,24.9-21.7,37.3-32.6
		c5-4.4,7.9-4.9,13.9-2c14.3,7,28.6,14.1,42.9,21.1c1.2,0.6,2.5,1.1,4.3,1.9c0.2-1.9,0.3-3.2,0.4-4.5c1-15.8,2.1-31.6,3.1-47.4
		c0.5-7.1,2.4-9.6,9.2-11.9c13.4-4.5,26.7-9,40.1-13.5c2.8-0.9,5.6-2,8.8-3.2c-1.5-1.8-2.6-3.1-3.7-4.4
		c-10.3-11.8-20.6-23.7-31.1-35.3c-3.9-4.4-4.1-8.7-1.6-13.7c5.3-10.6,10.5-21.2,15.7-31.8c2.4-4.9,4.8-9.8,7.5-15.3
		c-4.8-0.3-9.2-0.6-13.5-0.9c-13.1-0.9-26.2-1.8-39.4-2.6c-5.3-0.3-8.8-2.6-10.5-8c-2.9-9.2-6.2-18.2-9.3-27.3
		C239.6,87.6,237.1,80.2,234.5,72.3z"/>
	<path d="M139.9,235c-19.4-34.2-7.9-76.8,25.9-95.6c33.6-18.7,76-7.1,94.5,25.9c19.2,34.1,7.9,76.3-25.8,95.4
		C201.6,279.5,158.5,267.8,139.9,235z M175.2,156.5c-21.3,11.2-34.6,41.4-18.5,69c14.5,24.7,44.4,32,68.3,18.3
		c24.4-14,33-43.6,18.6-68.8C228.2,147.9,195.5,143.9,175.2,156.5z"/>
</g>
</svg>
