<?xml version="1.0" encoding="utf-8"?>
<!-- Generator: Adobe Illustrator 19.0.0, SVG Export Plug-In . SVG Version: 6.00 Build 0)  -->
<svg version="1.1" id="Layer_1" xmlns="http://www.w3.org/2000/svg" xmlns:xlink="http://www.w3.org/1999/xlink" x="0px" y="0px"
	 viewBox="0 0 400 400" style="enable-background:new 0 0 400 400;" xml:space="preserve">
<style type="text/css">
	.st0{opacity:2.000000e-002;}
</style>
<g class="st0">
	<path d="M361.5,251.5c-9.6-16.6-19.2-33.2-28.8-49.8c-9.6-16.6-19.2-33.3-28.8-49.9c-13.7-23.7-27.4-47.4-41.1-71.1l-17.4-30.1
		c-1.1-1.9-4-6.9-9.6-6.9c-3.3,0-6,1.8-7.7,3.2L228,47c-4.2,3.5-9,7.6-12.4,12.8c-12.6,18.9-17.8,40-15.3,62.9
		c2.9,27.5,15.8,47.2,38.4,58.8c12.9,6.6,26.3,9,37.7,10.5c4.9,10.6,9.9,21.3,14.8,31.8l0.2,0.4c8.2,17.6,16.7,35.8,25.1,53.5
		c2.7,5.9,6.8,7.1,9.8,7.1l0,0c2.1,0,4.2-0.6,6.6-1.9c8.3-4.7,16.3-9.4,23.8-13.7c2.9-1.7,6-3.7,7-7.5
		C364.9,257.7,363.2,254.3,361.5,251.5z M353.9,263.9c-7.9,4.6-15.9,9.2-23.8,13.7c-3.8,2.1-6.2,1.4-8-2.5
		c-8.5-17.9-16.9-35.9-25.3-53.9c-5-10.7-10-21.5-15-32.3c-0.8-1.9-2.1-2.7-4.1-2.9c-12.5-1.6-24.7-4.1-36.1-9.9
		c-22.1-11.3-32.7-30.3-35.2-54.1c-2.3-21.2,2.4-41.1,14.3-58.9c2.9-4.4,7.1-8.1,11.2-11.5c3.9-3.1,5.9-2.3,8.4,2
		c19.5,33.8,38.9,67.5,58.4,101.2c19.2,33.2,38.4,66.5,57.6,99.7C359.3,259.6,358.9,261,353.9,263.9z"/>
	<path d="M225.7,326.1c-0.6-0.8-1.1-1.6-1.7-2.5l-0.3-0.4c-5.2-8.1-10.6-16.6-16.1-24.8c-4.9-7.5-9.8-14.9-14.7-22.4
		c-5-7.6-9.9-15.1-14.8-22.7c-1.9-3-3.8-5.9-5.8-8.9c-3.4-5.2-6.8-10.6-10.4-15.9c1.6-1.8,2.9-3.3,4.1-4.9
		c13.9-18.7,14.7-41.1,2.3-61.5c-10.2-16.6-22.5-31.3-36.4-47.5c-1.1-1.2-4.3-5-9.6-5c-2.1,0-4.2,0.6-6.5,1.8l-0.8,0.4
		c-0.8,0.4-1.6,0.9-2.5,1.5c-7,4.4-8.6,10.8-4.4,17.8l30.6,53.1c0.2,0.3,0.3,0.5,0.3,0.7c-0.2,0.1-0.4,0.3-0.8,0.5
		c-1.1,0.7-1.8,0.9-2.1,1.1c-0.1-0.1-0.2-0.3-0.4-0.6c-4.3-6.5-8.5-12.9-12.7-19.4c-4.3-6.6-8.6-13.2-13-19.9l-1.8-2.7
		c-2.6-3.9-5.2-7.9-8.1-11.7c-1.6-2.2-4.4-3.9-7.3-4.4h-0.2c-0.5-0.1-1-0.1-1.6-0.1c-5.6,0-13.4,4.2-15.8,10.1l-0.1,0.2
		c-1,2.9-0.9,6.7,0.3,9.3l0.1,0.1c9.3,19,18.9,38.1,28.1,56.5c0.2,0.4,0.3,0.7,0.4,0.9c-0.3,0.2-0.8,0.6-1.8,1.1
		c-0.6,0.3-1,0.5-1.2,0.6c-0.1-0.1-0.2-0.3-0.4-0.6c-2.3-3.9-4.5-7.8-6.8-11.8c-2.8-4.9-5.6-9.8-8.5-14.7c-2.6-4.5-5.2-9-7.8-13.5
		c-2.6-4.5-5.2-9.1-7.8-13.6c-3.1-5.3-7.1-6.4-9.9-6.4c-1.7,0-3.4,0.4-5.3,1.2l-0.1,0.1c-2.4,1.1-4.5,2.3-6.4,3.7
		c-4.8,3.7-6.3,9.1-4,14.9v0.1c2.8,6.7,5.6,13.5,8.3,20.1c4,9.7,8.1,19.8,12.2,29.6c9,21.4,27.8,34.2,50.3,34.2
		c3.8,0,7.6-0.4,11.4-1.1c0.5-0.1,1.1-0.2,1.6-0.3c0.3,0.5,0.5,1.1,0.8,1.6l0.2,0.4c5.3,10.5,10.7,21.1,15.9,31.4
		c3.5,7,7.1,13.9,10.6,20.9c2.1,4.2,4.3,8.4,6.3,12.6c2.1,4.2,4.2,8.5,6.4,12.7c4.8,9.5,9.8,19.1,14.6,28.3c2.2,4.2,5.2,6.4,8.9,6.4
		l0,0c2.6,0,4.9-1.1,6.4-2c6.5-3.7,13-7.5,19.3-11.1c2.3-1.4,4.7-2.7,7-4.1c3-1.7,4.9-4,5.7-6.7c0.7-2.8,0.2-5.7-1.6-8.6
		C227.5,328.7,226.6,327.4,225.7,326.1z M221.4,340.3c-8.8,5.1-17.5,10.2-26.3,15.2c-3.5,2-5.2,1.6-7-1.9
		c-4.9-9.4-9.8-18.8-14.6-28.3c-4.3-8.4-8.4-16.9-12.7-25.3c-8.8-17.4-17.7-34.8-26.5-52.3c-3-6-2.9-6.1-9.1-4.9
		c-23.9,4.6-45.5-7-55-29.5c-7-16.5-13.6-33.1-20.5-49.7c-1.3-3.3-0.5-5.9,2.1-7.9c1.6-1.2,3.4-2.2,5.2-3c3.6-1.5,5.8-0.6,7.7,2.7
		c5.2,9,10.4,18.1,15.6,27.1c5.2,8.9,10.3,17.9,15.3,26.5c2.3,4,5.3,4.7,9.7,2.3c5.2-2.8,6.1-5.4,3.9-9.9
		c-9.4-18.8-18.8-37.6-28.1-56.5c-0.6-1.3-0.6-3.4-0.1-4.8c1.4-3.5,7.3-6.8,11-6.3c1.2,0.2,2.7,1,3.4,2c3.4,4.6,6.5,9.4,9.7,14.2
		c8.6,13.1,17.1,26.1,25.7,39.2c2.6,4,5.7,4.4,10.7,1.3c4.1-2.5,4.8-5.3,2.5-9.3c-10.2-17.7-20.4-35.4-30.6-53.1
		c-2.5-4.3-1.8-7.1,2.5-9.8c0.9-0.6,1.9-1.1,2.8-1.6c3.7-1.9,6.1-1.4,8.9,1.8c12.8,14.9,25.5,29.9,35.8,46.7
		c10.6,17.4,10.8,37.5-2,54.8c-1.6,2.1-3.4,4.1-5.2,6c-1.3,1.3-1.5,2.2-0.4,3.8c5.9,8.8,11.6,17.8,17.4,26.7
		c9.8,15,19.7,30.1,29.5,45.1c5.5,8.4,10.9,16.8,16.3,25.2c1.4,2.2,2.9,4.2,4.2,6.4C225.1,336.3,224.6,338.5,221.4,340.3z"/>
</g>
</svg>
