<?xml version="1.0" encoding="utf-8"?>
<!-- Generator: Adobe Illustrator 19.0.0, SVG Export Plug-In . SVG Version: 6.00 Build 0)  -->
<svg version="1.1" id="Layer_1" xmlns="http://www.w3.org/2000/svg" xmlns:xlink="http://www.w3.org/1999/xlink" x="0px" y="0px"
	 viewBox="0 0 412.7 129.1" style="enable-background:new 0 0 412.7 129.1;" xml:space="preserve">
<style type="text/css">
	.st0{fill:#97BF56;}
	.st1{fill:#FFFBF9;}
</style>
<g id="Vegan">
	<path id="XMLID_15_" class="st0" d="M10.6,24.2L0.1,1.2C0,1,0,0.8,0.1,0.6c0.1-0.2,0.3-0.3,0.6-0.3h3.5c0.3,0,0.5,0.1,0.6,0.4
		l6.5,14.6h0.2L18,0.7c0.1-0.2,0.3-0.4,0.6-0.4h3.5c0.3,0,0.4,0.1,0.6,0.3c0.1,0.2,0.1,0.4,0,0.6L12.1,24.2
		c-0.1,0.2-0.3,0.4-0.6,0.4h-0.3C10.9,24.5,10.7,24.4,10.6,24.2z"/>
	<path id="XMLID_17_" class="st0" d="M25.8,23.5V1c0-0.2,0.1-0.3,0.2-0.5c0.1-0.1,0.3-0.2,0.5-0.2h13.9c0.2,0,0.3,0.1,0.5,0.2
		c0.1,0.1,0.2,0.3,0.2,0.5v2.8c0,0.2-0.1,0.3-0.2,0.5c-0.1,0.1-0.3,0.2-0.5,0.2H30.2V10h8.4c0.2,0,0.3,0.1,0.5,0.2
		c0.1,0.1,0.2,0.3,0.2,0.4v2.8c0,0.2-0.1,0.3-0.2,0.5c-0.1,0.1-0.3,0.2-0.5,0.2h-8.4v6h10.1c0.2,0,0.3,0.1,0.5,0.2
		c0.1,0.1,0.2,0.3,0.2,0.5v2.8c0,0.2-0.1,0.3-0.2,0.5c-0.1,0.1-0.3,0.2-0.5,0.2H26.4c-0.2,0-0.3-0.1-0.5-0.2
		C25.8,23.9,25.8,23.7,25.8,23.5z"/>
	<path id="XMLID_19_" class="st0" d="M47.5,20.9c-2.4-2.4-3.6-5.2-3.6-8.7c0-3.4,1.2-6.3,3.6-8.7C50,1.2,52.8,0,56.2,0
		c3.1,0,5.8,1.1,8.3,3.2c0.3,0.3,0.3,0.7,0,1l-2.1,2.2c-0.3,0.3-0.6,0.3-0.9,0c-1.5-1.3-3.2-2-5.1-2c-2.1,0-3.9,0.8-5.4,2.3
		c-1.5,1.6-2.2,3.4-2.2,5.6c0,2.1,0.7,4,2.2,5.5c1.5,1.5,3.3,2.3,5.4,2.3c1.3,0,2.6-0.3,4.1-0.9v-2.9h-2.7c-0.2,0-0.3-0.1-0.5-0.2
		c-0.1-0.1-0.2-0.3-0.2-0.4V13c0-0.4,0.2-0.6,0.6-0.6h6.5c0.2,0,0.3,0.1,0.4,0.2c0.1,0.1,0.2,0.3,0.2,0.5v8.7c0,0.2-0.1,0.4-0.3,0.5
		c-0.3,0.2-0.6,0.4-1.1,0.6c-0.5,0.3-1.5,0.6-2.9,1c-1.5,0.4-2.9,0.6-4.4,0.6C52.8,24.5,49.9,23.3,47.5,20.9z"/>
	<path id="XMLID_21_" class="st0" d="M67.4,24.2c-0.3,0-0.4-0.1-0.6-0.3c-0.1-0.2-0.1-0.4,0-0.6L77.4,0.4C77.6,0.1,77.7,0,78,0h0.3
		c0.3,0,0.5,0.1,0.6,0.4l10.5,22.9c0.1,0.2,0.1,0.4,0,0.6c-0.1,0.2-0.3,0.3-0.6,0.3h-3c-0.4,0-0.8-0.2-1-0.7l-1.7-3.7H73l-1.7,3.7
		c-0.2,0.5-0.5,0.7-1,0.7H67.4z M74.7,16h6.8l-3.4-7.5h-0.1L74.7,16z"/>
	<path id="XMLID_24_" class="st0" d="M92.5,23.5V0.6c0-0.2,0.1-0.3,0.2-0.4C92.8,0.1,93,0,93.2,0H94l14.2,15.1h0V1
		c0-0.2,0.1-0.3,0.2-0.5c0.1-0.1,0.3-0.2,0.5-0.2h3.1c0.2,0,0.3,0.1,0.4,0.2s0.2,0.3,0.2,0.4v22.9c0,0.2-0.1,0.3-0.2,0.4
		c-0.1,0.1-0.3,0.2-0.5,0.2h-0.8L97,8.9h0v14.6c0,0.2-0.1,0.3-0.2,0.5c-0.1,0.1-0.3,0.2-0.5,0.2h-3.1c-0.2,0-0.3-0.1-0.5-0.2
		C92.6,23.8,92.5,23.7,92.5,23.5z"/>
</g>
<g id="XMLID_1_">
	<path id="XMLID_3_" class="st1" d="M14.7,115.3c-9.3-9.2-14-20.4-14-33.7c0-13.2,4.7-24.5,14-33.8c9.3-9.3,20.6-14,33.8-14
		c12.3,0,23,4.1,32,12.3c1.3,1.2,1.4,2.5,0.1,3.7L70.3,60.6c-1.1,1.1-2.2,1.1-3.3,0c-5-4.5-11-6.7-17.9-6.7c-7.4,0-13.6,2.7-18.5,8
		c-4.9,5.3-7.4,11.8-7.4,19.2c0,7.4,2.5,13.7,7.5,19c5,5.2,11.2,7.9,18.6,7.9c6.9,0,12.8-2.1,17.7-6.4c1.2-1.1,2.4-1,3.4,0.1
		l10.3,11c1.1,1.1,1.1,2.3-0.1,3.6c-8.8,8.6-19.5,12.8-32.1,12.8C35.2,129.1,24,124.5,14.7,115.3z"/>
	<path id="XMLID_5_" class="st1" d="M103.2,115.3c-9.2-9.2-13.8-20.4-13.8-33.7c0-13.2,4.6-24.5,13.8-33.8c9.2-9.3,20.4-14,33.7-14
		c13.2,0,24.5,4.7,33.7,14c9.3,9.3,13.9,20.6,13.9,33.8c0,13.2-4.6,24.5-13.9,33.7c-9.3,9.2-20.5,13.8-33.7,13.8
		C123.6,129.1,112.4,124.5,103.2,115.3z M110.5,81.6c0,7.2,2.6,13.4,7.7,18.6c5.2,5.2,11.4,7.7,18.6,7.7c7.2,0,13.4-2.6,18.7-7.7
		c5.2-5.2,7.8-11.4,7.8-18.6c0-7.3-2.6-13.6-7.8-18.8c-5.2-5.2-11.4-7.8-18.7-7.8c-7.2,0-13.4,2.6-18.6,7.8
		C113.1,68.1,110.5,74.3,110.5,81.6z"/>
	<path id="XMLID_8_" class="st1" d="M195.8,118.9c-0.7-0.7-1.1-1.3-1.2-1.7c-0.1-0.4,0.1-1.1,0.5-2l6.2-11c0.4-0.8,1.2-1.2,2.2-1.3
		c1.1-0.1,1.8,0.1,2.2,0.5l0.9,0.5c0.6,0.4,1.3,0.9,2.2,1.5c0.8,0.5,1.9,1.1,3.2,1.7c1.3,0.6,2.6,1.2,3.8,1.7c1.3,0.5,2.7,1,4.2,1.3
		c1.5,0.4,3,0.5,4.4,0.5c2.6,0,4.8-0.7,6.5-2.2c1.7-1.5,2.6-3.4,2.6-5.7c0-5.3-4.5-9.7-13.6-13.4c-17.1-6.8-25.7-16.5-25.7-29.2
		c0-7.1,2.7-13.3,8.1-18.5c5.4-5.2,12.9-7.8,22.5-7.8c9.9,0,19.3,3.3,28.3,9.9c0.7,0.4,1.1,1.1,1.2,2.1c0.1,1,0,1.7-0.4,2.1
		l-6.7,10.2c-0.5,0.8-1.3,1.4-2.2,1.8c-0.9,0.4-1.7,0.4-2.3-0.1c-0.1,0-0.6-0.4-1.6-1.1c-1-0.7-2.1-1.4-3.3-2.1
		c-1.2-0.7-2.6-1.4-4.2-2.2c-1.5-0.8-3.2-1.4-5-1.9c-1.8-0.5-3.4-0.7-4.9-0.7c-2.4,0-4.4,0.7-6,2s-2.4,2.9-2.4,4.8
		c0,2.5,1.1,4.7,3.3,6.7c2.2,2,5.9,4,11.1,6.2c17.8,7.1,26.7,17.1,26.7,30.2c0,7.2-2.9,13.6-8.7,19.1c-5.8,5.5-13.3,8.3-22.6,8.3
		c-7.5,0-13.7-1.1-18.7-3.3S198.2,121.3,195.8,118.9z"/>
	<path id="XMLID_10_" class="st1" d="M284.9,125.3V54.7H266c-0.7,0-1.3-0.2-1.8-0.7c-0.5-0.5-0.7-1.1-0.7-1.8V37.7
		c0-0.7,0.2-1.3,0.7-1.8c0.5-0.5,1.1-0.7,1.8-0.7h58.7c0.7,0,1.3,0.2,1.8,0.7c0.5,0.5,0.7,1.1,0.7,1.8v14.4c0,0.7-0.2,1.3-0.7,1.8
		c-0.5,0.5-1.1,0.7-1.8,0.7h-18.9v70.6c0,0.6-0.3,1.2-0.8,1.7s-1.1,0.8-1.7,0.8h-15.9c-0.6,0-1.2-0.3-1.7-0.8
		S284.9,125.9,284.9,125.3z"/>
	<path id="XMLID_12_" class="st1" d="M326,127.8c-1,0-1.7-0.4-2.2-1.1c-0.5-0.7-0.5-1.5-0.1-2.4l41.4-89c0.4-1,1.2-1.5,2.2-1.5h1.3
		c1.1,0,1.8,0.5,2.2,1.5l41.4,89c0.4,0.9,0.4,1.7-0.1,2.4c-0.5,0.7-1.2,1.1-2.2,1.1h-14.7c-2,0-3.6-1.1-4.6-3.3l-4.8-10.5h-36
		l-4.8,10.6c-0.9,2.1-2.5,3.2-4.8,3.2H326z M358,96.1h20.1l-10.1-21.8h-0.1L358,96.1z"/>
</g>
</svg>
