<?xml version="1.0" encoding="utf-8"?>
<!-- Generator: Adobe Illustrator 19.0.0, SVG Export Plug-In . SVG Version: 6.00 Build 0)  -->
<svg version="1.1" id="Layer_1" xmlns="http://www.w3.org/2000/svg" xmlns:xlink="http://www.w3.org/1999/xlink" x="0px" y="0px"
	 viewBox="0 0 89.6 89.4" style="enable-background:new 0 0 89.6 89.4;" xml:space="preserve">
<style type="text/css">
	.st0{fill:#FFC000;}
</style>
<g id="XMLID_23_">
	<path id="XMLID_67_" class="st0" d="M89.6,44c0,0.5,0,1.1,0,1.6c-0.2,2.1-0.3,4.2-0.7,6.2C86.5,64.6,80.2,74.9,69.2,82
		c-10.3,6.8-21.6,8.9-33.7,6.4C28.4,87,22,83.8,16.4,79.2c-5.2-4.3-9.3-9.5-12.1-15.6c-3.4-7.4-5.1-15.2-3.9-23.3
		c0.6-3.9,1.4-7.9,2.7-11.6c2.6-7,6.8-13,12.6-17.9c6.1-5.1,13-8.5,20.8-9.9c2.1-0.4,4.2-0.6,6.4-1c1.3,0,2.5,0,3.8,0
		c0.3,0.1,0.7,0.3,1,0.3c6,0.3,11.6,1.9,16.9,4.6c12,6.2,19.9,15.8,23.3,28.9C88.8,37,89.1,40.5,89.6,44z M38.1,19.6
		c0.6,11.8,1.2,23.3,1.9,34.8c3.1,0,6,0,8.9,0c0.3-5.7,0.7-11.3,1-16.9c0.2-3.2,0.2-6.3,0.3-9.5c0.1-2.5,0.4-5,0.5-7.5
		c0-0.3-0.5-0.9-0.9-0.9C46,19.5,42.2,19.6,38.1,19.6z M44.2,72.6c5,0.3,6.5-2.8,6.6-6c0.1-3.8-2.5-6.5-6.4-6.4
		c-3.7,0.1-6.3,1.4-6.4,6.3C38,70.6,40.6,72.9,44.2,72.6z"/>
</g>
</svg>
