<?xml version="1.0" encoding="utf-8"?>
<!-- Generator: Adobe Illustrator 19.0.0, SVG Export Plug-In . SVG Version: 6.00 Build 0)  -->
<svg version="1.1" id="Layer_1" xmlns="http://www.w3.org/2000/svg" xmlns:xlink="http://www.w3.org/1999/xlink" x="0px" y="0px"
	 viewBox="0 0 89.6 89.4" style="enable-background:new 0 0 89.6 89.4;" xml:space="preserve">
<style type="text/css">
	.st0{fill:#87CE49;}
</style>
<path id="XMLID_23_" class="st0" d="M44.7,89.4c-24.4,0.1-44.8-20-44.7-45C0.1,20.4,20.2-0.9,46.5,0c23,0.8,43.4,19.9,43,45.4
	C89.3,69.4,69.5,89.5,44.7,89.4z M33.9,51.4c-0.6-0.6-0.9-0.9-1.3-1.2c-3.6-3.6-7.2-7.2-10.8-10.8c-0.9-0.9-1.6-0.9-2.5,0
	c-2.8,2.8-5.6,5.6-8.4,8.4c-1.2,1.2-1.2,1.4,0,2.7c7.2,7.3,14.5,14.5,21.7,21.8c0.9,0.9,1.4,0.9,2.3,0
	c14.5-14.6,29.1-29.1,43.7-43.7c1.2-1.2,1.2-1.4,0-2.6c-2.8-2.8-5.6-5.6-8.4-8.4c-1.4-1.4-1.4-1.4-2.9,0C56.6,28.4,45.8,39.2,35,50
	C34.6,50.4,34.3,50.8,33.9,51.4z"/>
</svg>
