<?xml version="1.0" encoding="utf-8"?>
<!-- Generator: Adobe Illustrator 19.0.0, SVG Export Plug-In . SVG Version: 6.00 Build 0)  -->
<svg version="1.1" id="Layer_1" xmlns="http://www.w3.org/2000/svg" xmlns:xlink="http://www.w3.org/1999/xlink" x="0px" y="0px"
	 viewBox="0 0 400 400" style="enable-background:new 0 0 400 400;" xml:space="preserve">
<style type="text/css">
	.st0{opacity:2.000000e-002;}
</style>
<g class="st0">
	<path d="M210.3,333.4c-10.3-1.5-20.6-3-30.9-4.6c-7.5-1.1-15.1-2.1-22.5-3.6c-13.9-2.8-25.8-9.5-35.8-19.5
		c-9.3-9.3-18.6-18.5-27.8-27.7c-11.3-11.3-17.6-25.1-19.9-40.8c-1.8-12-3.7-24-5.6-36c-2.4-14.7-0.5-28.7,6.2-42
		c6.2-12.5,12.6-25,19-37.5c6.8-13.3,17.2-23,30.3-29.8c12.5-6.5,25.1-12.8,37.7-19.1c11.5-5.7,23.9-6.7,36.5-5.9
		c2.7,0.2,2.6,2,2.7,3.8c0.9,16,7,29.7,17.8,41.3c11.5,12.3,25.8,19.4,42.8,20.7c7.1,0.6,5.5-0.2,6,6.1c1.2,13.8,6.2,26.2,15.1,36.8
		c12.5,14.8,28.5,22.8,47.8,24c2.1,0.1,2.6,0.9,2.9,2.9c1.7,14.4-1.3,27.8-7.9,40.5c-5.5,10.5-10.8,21.1-16.1,31.8
		c-7.5,15.1-18.7,26.3-33.8,33.7c-11.8,5.8-23.5,12-35.3,17.8C230.4,330.7,220.7,333.1,210.3,333.4z M185.3,83.3
		c-7.4,0.5-13.1,2.1-19.7,5.5c-11.4,5.8-22.7,11.7-34.2,17.4c-10.8,5.4-19,13.4-24.5,24.1c-6.1,11.8-12.1,23.7-18.1,35.5
		c-5.1,10.1-6.5,20.8-4.9,31.9c1.9,12.2,4,24.4,5.7,36.6c1.8,13.3,7.5,24.4,17.1,33.7c8.6,8.3,17,16.9,25.4,25.4
		c8,8.3,17.6,13.7,28.9,15.6c13.2,2.2,26.4,4.1,39.6,6.3c11.2,1.8,22.1,0.7,32.3-4.4c12.4-6.2,24.8-12.5,37.2-18.8
		c10.7-5.5,18.3-13.9,23.6-24.6c5.4-10.8,11.2-21.4,16.2-32.4c2.6-5.6,4.1-11.8,6.1-17.7c0.8-2.3,0.1-3.2-2.4-4
		c-32.4-9.2-53.1-30-61.5-62.7c-0.6-2.3-1.6-3-3.7-3.5c-18.2-4.3-33.5-13.6-45.5-28C194.2,108.9,188.2,97,185.3,83.3z"/>
	<path d="M154.4,249.9c0-7.1,5.3-12.5,12.4-12.5c6.5,0,12.3,5.7,12.3,12.1c0,6.9-5.7,12.6-12.6,12.6
		C159.8,262,154.4,256.6,154.4,249.9z"/>
	<path d="M137.8,166.2c0.2-6.9,5.7-12.4,12.5-12.3c6.6,0.1,12.2,5.8,12,12.4c-0.1,7.3-5.7,12.5-13,12.3
		C142.9,178.4,137.6,172.7,137.8,166.2z"/>
	<path d="M262.2,249.8c0.1,6.6-5.5,12.3-12.2,12.2c-6.9,0-12.3-5.4-12.4-12.4c-0.1-6.6,5.3-12.2,11.7-12.3
		C256.7,237.2,262.2,242.6,262.2,249.8z"/>
	<path d="M204.3,199.6c0.1-7.1,5.6-12.4,12.8-12.2c6.4,0.1,12,5.8,12,12.2c0,6.8-5.9,12.5-12.8,12.5
		C209.8,212,204.2,206.2,204.3,199.6z"/>
</g>
</svg>
